<svg xmlns="http://www.w3.org/2000/svg" xmlns:xlink="http://www.w3.org/1999/xlink" viewBox="0 0 1920 1080"><defs><style>.cls-1,.cls-20{fill:none;}.cls-2{fill:#cbecf5;}.cls-3{isolation:isolate;}.cls-23,.cls-4{fill:#39baf9;}.cls-5{opacity:0.64;}.cls-6{clip-path:url(#clip-path);}.cls-14,.cls-7{fill:#fff;}.cls-16,.cls-17,.cls-7{opacity:0.3;}.cls-7{mix-blend-mode:lighten;}.cls-8{fill:#1a9cf1;}.cls-25,.cls-9{fill:#e8f6ff;}.cls-10{fill:#021b74;}.cls-11{clip-path:url(#clip-path-2);}.cls-12{clip-path:url(#clip-path-3);}.cls-13,.cls-15{fill:#f4f4fa;}.cls-15{font-size:180.34px;}.cls-15,.cls-25{font-family:OpenSans-Bold, Open Sans;font-weight:700;}.cls-18{fill:#1f398e;}.cls-19{fill:#bde4f3;mix-blend-mode:multiply;}.cls-20{stroke:#f4f4fa;stroke-miterlimit:10;stroke-width:6px;}.cls-21{fill:#1651da;}.cls-22{opacity:0.2;}.cls-23,.cls-24{opacity:0.48;}.cls-25{font-size:70.7px;}.cls-26{fill:#778489;}.cls-27{fill:#abbec5;}.cls-28{clip-path:url(#clip-path-4);}.cls-29{fill:#738085;}.cls-30{fill:#78858a;}.cls-31{fill:#7c8a8f;}.cls-32{fill:#818f94;}.cls-33{fill:#859499;}.cls-34{fill:#8a999e;}.cls-35{fill:#8e9da3;}.cls-36{fill:#93a2a8;}.cls-37{fill:#97a7ad;}.cls-38{fill:#9bacb3;}.cls-39{fill:#a0b1b8;}.cls-40{clip-path:url(#clip-path-5);}.cls-41{fill:#376a80;}.cls-42{fill:#396e85;}.cls-43{fill:#3b7189;}.cls-44{fill:#3d758d;}.cls-45{fill:#3f7992;}.cls-46{fill:#417c96;}.cls-47{fill:#43809b;}.cls-48{fill:#44849f;}.cls-49{fill:#35667c;}.cls-50{fill:#336377;}.cls-51{fill:#315f73;}.cls-52{fill:#336277;}.cls-53{fill:#8979cc;}.cls-54{fill:#498dab;}.cls-55{fill:#cccecc;}.cls-56{fill:#eaeaea;}.cls-57{fill:#eba298;}.cls-58{fill:#d1d3d4;}</style><clipPath id="clip-path"><rect id="SVGID" class="cls-1" x="0.8" width="1918.4" height="1080"/></clipPath><clipPath id="clip-path-2"><path id="SVGID-2" data-name="SVGID" class="cls-2" d="M852.82,66.18,833.61,55.13c-2.93-1.7-7-1.46-11.49,1.13l19.21,11.05C845.82,64.72,849.89,64.48,852.82,66.18Z"/></clipPath><clipPath id="clip-path-3"><path id="SVGID-3" data-name="SVGID" class="cls-2" d="M153.47,464.45,134.25,453.4c-8.91,5.15-16.11,17.62-16.09,27.84l19.22,11.05C137.35,482.07,144.55,469.6,153.47,464.45Z"/></clipPath><clipPath id="clip-path-4"><path class="cls-1" d="M956.45,785.1a1.08,1.08,0,0,0-.62.89v-2.15a1.09,1.09,0,0,1,.63-.89v0a3.41,3.41,0,0,1,3.08,0v0a1.09,1.09,0,0,1,.65.89V786a1.1,1.1,0,0,0-.65-.9A3.41,3.41,0,0,0,956.45,785.1Z"/></clipPath><clipPath id="clip-path-5"><path class="cls-1" d="M960.18,783.83V786a1.07,1.07,0,0,1-.63.89,3.36,3.36,0,0,1-3.07,0,1.1,1.1,0,0,1-.65-.9c0-.72,0-1.43,0-2.15a1.13,1.13,0,0,0,.65.9,3.38,3.38,0,0,0,3.08,0A1.09,1.09,0,0,0,960.18,783.83Z"/></clipPath></defs><g class="cls-3"><g id="Cube_Root" data-name="Cube Root"><rect class="cls-4" width="1920" height="1080"/><g class="cls-5"><g class="cls-6"><path class="cls-7" d="M1921.18,99.48V96.36l-13.55,7.85-44.9-26,44.9-26,13.55,7.85V57l-10.86-6.29,10.86-6.29v-3.1l-13.55,7.83-44.9-26,44.9-26L1921.18,5V1.86l-10.86-6.28,10.86-6.29v-3.12L1907.63-6l-44.9-26,44.9-26,13.55,7.84v-3.11l-10.86-6.28,10.86-6.3v-3.1l-13.55,7.84-44.9-26,44.9-26,13.55,7.84v-3.12l-10.86-6.29,10.86-6.27V-124l-13.55,7.84-44.9-26,44.9-26,13.55,7.83v-3.1l-10.86-6.29,10.86-6.29v-3.12l-13.55,7.85-44.9-26,44.9-26,13.55,7.85v-3.12l-10.86-6.29,10.86-6.27v-3.12l-13.55,7.85-44.9-26,44.9-26,13.55,7.85v-3.13l-10.86-6.27,10.86-6.29v-3.11l-13.55,7.84-44.9-26,4.9-2.84h-5.38L1860-309l-2.23-1.28h-5.36l4.89,2.84-44.9,26-44.9-26,4.9-2.84h-5.38l-2.21,1.28-2.21-1.28h-5.38l4.9,2.84-44.91,26-44.89-26,4.89-2.84h-5.38l-2.21,1.28-2.21-1.28h-5.39l4.91,2.84-44.9,26-44.91-26,4.92-2.84h-5.4l-2.21,1.28-2.2-1.28h-5.4l4.91,2.84-44.9,26-44.91-26,4.92-2.84h-5.39l-2.21,1.28-2.21-1.28h-5.39l4.9,2.84-44.89,26-44.92-26,4.92-2.84h-5.39l-2.22,1.28-2.2-1.28h-5.39l4.92,2.84-44.91,26-44.91-26,4.91-2.84h-5.39l-2.2,1.28-2.22-1.28h-5.37l4.89,2.84-44.9,26-49.81-28.83H1186l-44.84,26-44.86-26h-5.49l-44.85,26-44.85-26h-5.49l-44.84,26-44.84-26h-5.5l-44.85,26-44.84-26h-5.5l-49.81,28.83-44.9-26,4.92-2.84h-5.4L707.86-309l-2.2-1.28h-5.39l4.92,2.84-44.91,26-44.91-26,4.9-2.84H614.9L612.69-309l-2.22-1.28h-5.38l4.9,2.84-44.89,26-44.92-26,4.91-2.84h-5.38L517.5-309l-2.22-1.28H509.9l4.91,2.84-44.92,26-44.88-26,4.89-2.84h-5.38L422.31-309l-2.22-1.28h-5.38l4.9,2.84-44.89,26-44.9-26,4.89-2.84h-5.37L327.13-309l-2.21-1.28h-5.41l4.92,2.84-44.9,26-44.91-26,4.91-2.84h-5.39L231.93-309l-2.22-1.28h-5.37l4.91,2.84-44.91,26-44.9-26,4.9-2.84H139l-2.2,1.28-2.21-1.28h-5.39l4.9,2.84-44.9,26-44.9-26,4.9-2.84H43.78L41.56-309l-2.21-1.28H34l4.91,2.84L.42-285.2v3.11l41.14-23.8,44.9,26-44.9,26L.42-277.73v3.12l38.45,22.24L.42-230.11V-227L41.56-250.8l44.9,26-44.9,26L.42-222.64v3.12l38.45,22.26L.42-175v3.12L41.56-195.7l44.9,26-44.9,26L.42-167.53v3.11l38.45,22.26L.42-119.91v3.11l41.14-23.81,44.9,26-44.9,26L.42-112.44v3.1L38.87-87.08.42-64.82v3.12L41.56-85.52l44.9,26-44.9,26L.42-57.35v3.12L38.87-32,.42-9.72v3.11l41.14-23.8,44.9,26-44.9,26L.42-2.25V.86L38.87,23.11.42,45.37v3.11l41.14-23.8,44.9,26-44.9,26L.42,52.84V56L38.87,78.21.42,100.47v3.12L41.56,79.77l44.9,26-44.9,26L.42,107.94v3.12l38.45,22.26L.42,155.55v3.13l41.14-23.82,44.9,26-48.2,27.91L.42,166.85V170l35.14,20.35L.42,210.66v3.11l37.84-21.89,44.89,26-44.89,26L.42,222v3.1l35.14,20.35L.42,265.76v3.11L38.26,247l44.89,26L38.26,299,.42,277v3.13l35.14,20.34L.42,320.84V324l37.84-21.9,44.89,26L38.26,354,.42,332.15v3.11L35.56,355.6.42,376v3.1l37.84-21.88L88.11,386,43.22,412,.42,387.25v3.11l40.1,23.21L.42,436.78v3.12l42.8-24.77,44.89,26-44.89,26L.42,442.33v3.12l40.1,23.21L.42,491.87V495l42.8-24.77,44.89,26-44.89,26L.42,497.44v3.1l40.1,23.23L.42,547v3.11l42.8-24.77,44.89,26-44.89,26L.42,552.53v3.12l40.1,23.21L.42,602.07v3.11l42.8-24.76,44.89,26-44.89,26L.42,607.62v3.12l40.1,23.2L.42,657.15v3.13l42.8-24.78,44.89,26-44.89,26L.42,662.71v3.12l40.1,23.22L.42,712.26v3.1l42.8-24.76,44.89,26-44.89,26L.42,717.81v3.12l40.1,23.21L.42,767.35v3.12l42.8-24.77,44.89,26-44.89,26L.42,772.91V776l40.1,23.2L.42,822.44v3.12l42.8-24.77,44.89,26-44.89,26L.42,828v3.13l40.1,23.22L.42,877.55v3.1l42.8-24.76,44.89,26-44.89,26L.42,883.1v3.12l40.1,23.21L.42,932.63v3.12L43.22,911l44.89,26L43.22,963,.42,938.2v3.11l40.1,23.21L.42,987.73v3.12l42.8-24.77,44.89,26-44.89,26L.42,993.29v3.11l40.1,23.22L.42,1042.83v3.11l42.8-24.77,44.89,26L38.26,1076,.42,1054.12v3.12l35.14,20.34L.42,1097.92V1101l37.84-21.9,44.89,26-44.89,26L.42,1109.22v3.11l35.14,20.35L.42,1153v3.11l37.84-21.89,44.89,26-44.89,26L.42,1164.32v3.11l35.14,20.34L.42,1208.11v3.12l37.84-21.9,44.89,26-44.89,26L.42,1219.41v3.12l35.14,20.34L.42,1263.21v3.12l37.84-21.9,48.2,27.89-44.9,26L.42,1274.51v3.11l38.45,22.26L.42,1322.13v3.12l41.14-23.82,44.9,26-44.9,26L.42,1329.6v3.11L38.87,1355,.42,1377.23v3.12l41.14-23.82,44.9,26-44.9,26L.42,1384.7v3.12l38.45,22.24L.42,1432.32v3.12l41.14-23.82,44.9,26-44.9,26L.42,1439.79v3.12l38.45,22.25L.42,1487.41v3.12l41.14-23.81,44.9,26-44.9,26L.42,1494.89V1498l38.45,22.26L.42,1542.52v3.11l41.14-23.82,44.9,26-44.9,26L.42,1550v3.11l38.45,22.25L.42,1597.6v3.13l41.14-23.82,44.9,26L65.1,1615.27h5.36l18.69-10.81,18.69,10.81h5.38L91.84,1602.9l44.91-26,44.9,26-21.38,12.37h5.38l18.69-10.81L203,1615.27h5.36L187,1602.9l44.9-26,44.91,26-21.38,12.37h5.39l18.68-10.81,18.67,10.81h5.4l-21.38-12.37,44.91-26,44.89,26-21.37,12.37H356l18.69-10.81,18.67,10.81h5.39L377.4,1602.9l44.91-26,44.9,26-21.38,12.37h5.4l18.66-10.81,18.69,10.81H494L472.6,1602.9l44.9-26,44.9,26L541,1615.27h5.39l18.69-10.81,18.66,10.81h5.4l-21.39-12.37,44.92-26,44.89,26-21.36,12.37h5.38l18.68-10.81L679,1615.27h5.38L663,1602.9l44.88-26,44.93,26-21.39,12.37h5.38l18.68-10.81,18.69,10.81h5.38l-21.38-12.37,44.9-26,44.91,26-21.37,12.37H832l18.68-10.81,18.69,10.81h5.38l-21.38-12.37,44.91-26,44.9,26-21.37,12.37h5.37l18.69-10.81,18.69,10.81h5.37l-21.37-12.37L998.39,1574l49.86,28.86-21.38,12.37h5.4l18.66-10.81,18.7,10.81H1075l-21.37-12.37,44.9-26,44.9,26-21.38,12.37h5.39l18.69-10.81,18.67,10.81h5.39l-21.39-12.37,44.92-26,44.89,26-21.37,12.37h5.39l18.68-10.81,18.69,10.81h5.37L1244,1602.9l44.9-26,44.89,26-21.37,12.37h5.38l18.69-10.81,18.67,10.81h5.39l-21.38-12.37,44.9-26,44.91,26-21.37,12.37H1413l18.68-10.81,18.69,10.81h5.38l-21.38-12.37,44.91-26,44.91,26-21.38,12.37h5.38l18.68-10.81,18.68,10.81h5.38l-21.37-12.37,44.9-26,44.9,26L1598,1615.27h5.37l18.69-10.81,18.68,10.81h5.38l-21.37-12.37,44.9-26,44.9,26-21.38,12.37h5.39l18.68-10.81,18.69,10.81h5.39L1720,1602.9l44.9-26,44.9,26-21.38,12.37h5.39l18.68-10.81,18.69,10.81h5.39l-21.38-12.37,44.9-26,44.89,26-21.37,12.37H1889l18.68-10.81,13.55,7.84v-3.12l-10.86-6.28,10.86-6.28v-3.12l-13.55,7.84-44.9-26,44.9-26,13.55,7.85v-3.12l-10.86-6.29,10.86-6.28v-3.11l-13.55,7.83-44.9-26,44.9-26,13.55,7.84V1499l-10.86-6.29,10.86-6.29v-3.12l-13.55,7.85-44.9-26,44.9-26,13.55,7.85v-3.12l-10.86-6.29,10.86-6.29v-3.1l-13.55,7.83-44.9-26,44.9-26,13.55,7.85v-3.12l-10.86-6.28,10.86-6.29v-3.11l-13.55,7.84-44.9-26,44.9-26,13.55,7.84v-3.12l-10.86-6.29,10.86-6.28V1318l-13.55,7.84-44.9-26,44.9-26,13.55,7.85v-3.12l-10.86-6.29,10.86-6.27v-3.12l-13.55,7.83-44.9-26,48.2-27.89,10.25,5.93v-3.12l-7.56-4.37,7.56-4.38v-3.1l-10.25,5.92-44.9-26,44.9-26,10.25,5.93v-3.11l-7.56-4.38,7.56-4.37v-3.11l-10.25,5.93-44.9-26,44.9-26,10.25,5.92v-3.11l-7.56-4.36,7.56-4.38v-3.12l-10.25,5.93-49.86-28.86,44.91-26,15.2,8.81v-3.13l-12.52-7.23,12.52-7.25v-3.11l-15.2,8.8-44.91-26,44.91-26,15.2,8.79v-3.1l-12.52-7.25,12.52-7.24v-3.12l-15.2,8.8-44.91-26,44.91-26,15.2,8.8v-3.12L1908.66,937l12.52-7.23v-3.12l-15.2,8.79-44.91-26,44.91-26,15.2,8.8v-3.12l-12.52-7.24,12.52-7.25v-3.1l-15.2,8.79-44.91-26,44.91-26,15.2,8.79V834l-12.52-7.25,12.52-7.24v-3.11l-15.2,8.81-44.91-26,44.91-26,15.2,8.8v-3.12l-12.52-7.23,12.52-7.24v-3.12l-15.2,8.8-44.91-26,44.91-26,15.2,8.79v-3.11l-12.52-7.24,12.52-7.25v-3.13L1906,715l-44.91-26,44.91-26,15.2,8.79v-3.1l-12.52-7.23,12.52-7.25v-3.12L1906,660l-44.91-26L1906,608l15.2,8.8v-3.12l-12.52-7.24,12.52-7.24V596l-15.2,8.8-44.91-26,44.91-26,15.2,8.79v-3.11l-12.52-7.24,12.52-7.25V541l-15.2,8.79-44.91-26,44.91-26,15.2,8.81v-3.12l-12.52-7.25,12.52-7.23v-3.12l-15.2,8.81-44.91-26,44.91-26,15.2,8.79v-3.12l-12.52-7.23,12.52-7.25v-3.11l-15.2,8.8-44.91-26,44.91-26,15.2,8.8v-3.12L1908.66,386l12.52-7.24v-3.12l-15.2,8.81-44.91-26,49.86-28.86,10.25,5.91v-3.1l-7.56-4.37,7.56-4.38v-3.12l-10.25,5.94-44.9-26,44.9-26,10.25,5.94v-3.12l-7.56-4.38,7.56-4.37v-3.11l-10.25,5.94-44.9-26,44.9-26,10.25,5.92v-3.11l-7.56-4.37,7.56-4.38v-3.12l-10.25,5.93-48.2-27.9,44.9-26,13.55,7.85v-3.12l-10.86-6.29,10.86-6.27v-3.13l-13.55,7.85-44.9-26,44.9-26,13.55,7.84V112l-10.86-6.27Zm-16.25-48.82-44.89,26-44.9-26,44.9-26ZM1667-32l-44.9,26-44.91-26,44.91-26Zm-42.21-27.55,44.9-26,44.9,26-44.9,26Zm-626.37,690-44.9-26,44.9-26,44.91,26ZM1046,606.05l44.91,26L1046,658l-44.89-26ZM995.7,632l-44.9,26-44.91-26,44.91-26Zm-92.49-1.56-44.92-26,44.92-26,44.89,26Zm-2.7,1.56L852.31,660l-44.91-26,48.21-27.89Zm-3.3,57-44.9,26-44.91-26,44.91-26ZM855,661.49l48.21-27.89,44.89,26-48.2,27.91Zm95.8-.35,44.9,26L947.49,715l-44.89-26Zm2.69-1.56,44.9-26,44.91,26-44.91,26Zm92.49,1.56,48.21,27.91-44.91,26-48.19-27.92Zm2.7-1.56,44.9-26,48.21,27.91-44.91,26Zm0-55.09,44.9-26,44.9,26-44.9,26Zm0-55.1,44.9-26,44.9,26-44.9,26Zm42.21,27.55-44.91,26-44.89-26L1046,551Zm-92.5-1.56-44.9-26,44.9-26,44.91,26Zm-2.69,1.56-44.9,26-44.91-26,44.91-26Zm-92.49-1.56-44.92-26,44.92-26,44.89,26Zm-2.7,1.56-44.9,26-44.91-26,44.91-26ZM808,575.38l-44.9-26,44.9-26,44.91,26Zm44.91,29.11-48.21,27.9-44.9-26L808,578.5Zm-3.31,57-44.9,26-44.9-26,44.9-26Zm0,55.11-44.9,26-44.9-26,44.9-26Zm2.7,1.56,44.9,26-44.9,26-44.91-26ZM855,716.6l44.9-26,44.9,26-44.9,26Zm92.49,1.56,48.21,27.9-44.9,26-48.2-27.9Zm2.7-1.56,48.2-27.91,48.2,27.91-48.2,27.9Zm99.09,1.56,44.91,26L1046,772l-44.89-26Zm2.7-1.56,44.9-26,44.91,26-44.91,26Zm92.49,1.56,44.91,26-44.91,26-44.9-26Zm-44.9-29.11,44.9-26,44.91,26-44.91,26Zm-3.3-57,44.91-26,48.2,27.89-44.91,26Zm0-55.1,44.91-26,44.89,26-44.89,26Zm0-55.1,44.91-26,44.89,26-44.89,26Zm-2.69-1.55-44.9-26,44.9-26,44.9,26Zm-2.69,1.55-44.91,26-44.89-26,44.89-26Zm-92.5-1.55-44.9-26,44.9-26,44.91,26Zm-2.69,1.55-44.9,26-44.91-26,44.91-26Zm-92.49-1.55-44.92-26,44.92-26,44.89,26Zm-2.7,1.55-44.9,26-44.91-26,44.91-26ZM808,520.29l-44.9-26,44.9-26,44.91,26Zm-2.68,1.55-44.92,26-44.89-26,44.89-26Zm0,55.1-48.22,27.9-44.89-26L760.41,551Zm-3.31,57-44.91,26-44.89-26,44.89-26Zm0,55.11-44.91,26-44.89-26,44.89-26Zm0,55.09-44.91,26-44.89-26,44.89-26Zm0,55.09-44.91,26-44.89-26,44.89-26Zm-42.21-27.54,44.9-26,44.9,26-44.9,26Zm92.5,1.55,48.2,27.91-44.9,26-48.21-27.9Zm2.69-1.55,44.9-26,48.2,27.9-44.89,26Zm95.8,3.47,44.9,26-44.9,26-44.91-26Zm2.69-1.56,44.9-26,44.91,26-44.91,26Zm92.49,1.56,44.91,26-44.91,26-44.89-26Zm2.7-1.56,48.2-27.9,44.91,26-48.21,27.89Zm95.79-.36,44.91,26-48.2,27.9-44.91-26Zm2.7-1.55,44.9-26,44.9,26-44.9,26Zm0-55.09,44.9-26,44.9,26-44.9,26Zm0-55.09,44.9-26,44.9,26-44.9,26Zm-3.3-57,44.9-26,48.2,27.9-44.9,26Zm0-55.1,44.9-26,44.9,26-44.9,26Zm0-55.09,44.9-26,44.9,26-44.9,26Zm0-55.1,44.9-26,44.9,26-44.9,26Zm42.2,27.55-44.89,26-44.91-26,44.91-26Zm-92.49-1.56-44.9-26,44.9-26,44.9,26Zm-2.69,1.56-44.91,26-44.89-26,44.89-26Zm-92.5-1.56-44.9-26,44.9-26,44.91,26Zm-2.69,1.56-44.9,26-44.91-26,44.91-26Zm-92.49-1.56-44.92-26,44.92-26,44.89,26Zm-2.7,1.56-44.9,26-44.91-26,44.91-26ZM808,465.19l-44.9-26,44.9-26,44.91,26Zm-2.68,1.56-44.92,26-44.89-26,44.89-26Zm-92.51-1.56-44.9-26,44.9-26,44.91,26Zm44.91,29.11-44.91,26-44.9-26,44.9-26Zm0,55.09L709.52,577.3l-44.89-26,48.19-27.91Zm-3.31,57-44.9,26-44.89-26,44.89-26Zm0,55.09-44.9,26-44.89-26,44.89-26Zm0,55.11-44.9,26-44.89-26,44.89-26Zm0,55.09-44.9,26-44.89-26,44.89-26Zm0,55.09-44.9,26-44.89-26,44.89-26Zm2.69,1.56,48.22,27.9-44.92,26-48.19-27.9Zm2.7-1.56,44.9-26,48.21,27.9-44.91,26Zm95.8,3.47,44.9,26-44.9,26-44.91-26Zm2.68-1.56,44.92-26,44.89,26-44.89,26Zm92.51,1.56,44.9,26-44.9,26-44.91-26Zm2.69-1.56,44.9-26,44.91,26-44.91,26Zm92.49,1.56,44.91,26-44.91,26-44.89-26Zm2.7-1.56,44.9-26,44.9,26-44.9,26Zm92.5,1.56,44.89,26-44.89,26-44.91-26Zm2.69-1.56,48.2-27.9,44.9,26-48.2,27.91Zm95.79-.35,44.91,26-48.21,27.9-44.9-26Zm-44.9-29.11,44.9-26,44.91,26-44.91,26Zm0-55.09,44.9-26,44.91,26-44.91,26Zm0-55.09,44.9-26,44.91,26-44.91,26Zm0-55.11,44.9-26,44.91,26-44.91,26Zm-3.3-57,44.9-26,48.21,27.91-44.91,26Zm0-55.1,44.9-26,44.9,26-44.9,26Zm0-55.09,44.9-26,44.9,26-44.9,26Zm0-55.1,44.9-26,44.9,26-44.9,26Zm-2.69-1.55-44.9-26,44.9-26,44.9,26Zm-2.7,1.55-44.89,26-44.91-26,44.91-26Zm-92.49-1.55-44.9-26,44.9-26,44.9,26Zm-2.69,1.55-44.91,26-44.89-26,44.89-26Zm-92.5-1.55-44.9-26,44.9-26,44.91,26Zm-2.69,1.55-44.9,26-44.91-26,44.91-26Zm-92.49-1.55-44.92-26,44.92-26,44.89,26Zm-2.7,1.55-44.9,26-44.91-26,44.91-26ZM808,410.1l-44.9-26,44.9-26,44.91,26Zm-2.68,1.55-44.92,26-44.89-26,44.89-26Zm-92.51-1.55-44.9-26,44.9-26,44.91,26Zm-2.68,1.55-44.91,26-44.9-26,44.9-26Zm0,55.1-44.91,26-44.9-26,44.9-26Zm0,55.09-48.21,27.91-44.9-26,48.2-27.92Zm-3.31,57-44.9,26-44.9-26,44.9-26Zm0,55.08-44.9,26-44.9-26,44.9-26Zm0,55.11-44.9,26-44.9-26,44.9-26Zm0,55.09-44.9,26-44.9-26,44.9-26Zm0,55.09-44.9,26-44.9-26,44.9-26Zm0,55.11-44.9,26-44.9-26,44.9-26Zm3.31,57-44.91,26L617,909.43l44.9-26Zm-45.51-29.46,44.89-26,48.21,27.91-44.91,26Zm95.78,3.48,44.92,26-44.92,26-44.89-26Zm2.7-1.56,44.9-26,44.91,26-44.91,26Zm92.5,1.56,44.9,26-44.9,26-44.91-26Zm2.68-1.56,44.92-26,44.89,26-44.89,26Zm92.51,1.56,44.9,26-44.9,26-44.91-26Zm2.69-1.56,44.9-26,44.91,26-44.91,26Zm92.49,1.56,44.91,26-44.91,26-44.89-26Zm2.7-1.56,44.9-26,44.9,26-44.9,26Zm92.5,1.56,44.89,26-44.89,26-44.91-26Zm2.69-1.56,44.9-26,44.9,26-44.9,26Zm92.49,1.56,44.9,26-44.9,26-44.9-26Zm2.7-1.56,48.2-27.91,44.9,26L1284,909.79Zm3.29-57,44.91-26,44.9,26-44.9,26Zm0-55.09,44.91-26,44.9,26-44.9,26Zm0-55.09,44.91-26,44.9,26-44.9,26Zm0-55.09,44.91-26,44.9,26-44.9,26Zm0-55.11,44.91-26,44.9,26-44.9,26Zm-3.29-57,44.89-26,48.21,27.91-44.9,26Zm0-55.09,44.89-26,44.91,26-44.91,26Zm0-55.1,44.89-26,44.91,26-44.91,26Zm0-55.09,44.89-26,44.91,26-44.91,26Zm0-55.1L1284,303l44.91,26L1284,355Zm42.2,27.55-44.9,26-44.9-26,44.9-26ZM1188.77,355l-44.9-26,44.9-26,44.9,26Zm-2.7,1.55-44.89,26-44.91-26,44.91-26ZM1093.58,355l-44.9-26,44.9-26,44.9,26Zm-2.69,1.55-44.91,26-44.89-26,44.89-26ZM998.39,355l-44.9-26,44.9-26,44.91,26Zm-2.69,1.55-44.9,26-44.91-26,44.91-26ZM903.21,355l-44.92-26,44.92-26,44.89,26Zm-2.7,1.55-44.9,26-44.91-26,44.91-26ZM808,355l-44.9-26L808,303l44.91,26Zm-2.68,1.55-44.92,26-44.89-26,44.89-26ZM712.82,355l-44.9-26,44.9-26,44.91,26Zm-2.68,1.55-44.91,26-44.9-26,44.9-26ZM617.64,355l-44.91-26,44.91-26,44.9,26Zm44.9,29.1-44.9,26-44.91-26,44.91-26Zm0,55.09-44.9,26-44.91-26,44.91-26Zm0,55.1-48.2,27.91-44.9-26,48.2-27.89Zm-3.31,57-44.89,26-44.9-26,44.9-26Zm0,55.09-44.89,26-44.9-26,44.9-26Zm0,55.09-44.89,26-44.9-26,44.9-26Zm0,55.11-44.89,26-44.9-26,44.9-26Zm0,55.09-44.89,26-44.9-26,44.9-26Zm0,55.09-44.89,26-44.9-26,44.9-26Zm0,55.1-44.89,26-44.9-26,44.9-26Zm3.31,57-44.9,26L569.44,937l44.9-26Zm2.69,1.56,44.91,26-44.91,26-44.9-26Zm2.69-1.56,44.9-26,44.91,26-44.91,26Zm92.49,1.56,44.92,26-44.92,26-44.89-26Zm2.7-1.56,44.9-26,44.91,26-44.91,26Zm92.5,1.56,44.9,26-44.9,26-44.91-26Zm2.68-1.56,44.92-26,44.89,26-44.89,26Zm92.51,1.56,44.9,26-44.9,26-44.91-26Zm2.69-1.56,44.9-26,44.91,26-44.91,26Zm92.49,1.56,44.91,26-44.91,26-44.89-26Zm2.7-1.56,44.9-26,44.9,26-44.9,26Zm92.5,1.56,44.89,26-44.89,26-44.91-26Zm2.69-1.56,44.9-26,44.9,26-44.9,26Zm92.49,1.56,44.9,26-44.9,26-44.9-26Zm2.7-1.56,44.89-26,44.91,26-44.91,26Zm92.49,1.56,44.9,26-44.9,26-44.9-26Zm-44.9-29.11,48.21-27.9,44.9,26-48.21,27.89Zm3.3-57,44.91-26,44.9,26-44.9,26Zm0-55.11,44.91-26,44.9,26-44.9,26Zm0-55.09,44.91-26,44.9,26-44.9,26Zm0-55.09,44.91-26,44.9,26-44.9,26Zm0-55.11,44.91-26,44.9,26-44.9,26Zm0-55.08,44.91-26,44.9,26-44.9,26Zm-3.3-57,44.9-26,48.21,27.92-44.9,26Zm0-55.09,44.9-26,44.9,26-44.9,26Zm0-55.1,44.9-26,44.9,26-44.9,26Zm0-55.09,44.9-26,44.9,26-44.9,26Zm0-55.1,44.9-26,44.9,26-44.9,26Zm-2.7-1.56-44.89-26,44.89-26,44.91,26Zm-2.69,1.56-44.9,26-44.9-26,44.9-26Zm-92.49-1.56-44.9-26,44.9-26,44.9,26Zm-2.7,1.56-44.89,26-44.91-26,44.91-26Zm-92.49-1.56-44.9-26,44.9-26,44.9,26Zm-2.69,1.56-44.91,26-44.89-26,44.89-26Zm-92.5-1.56-44.9-26,44.9-26,44.91,26Zm-2.69,1.56-44.9,26-44.91-26,44.91-26Zm-92.49-1.56-44.92-26,44.92-26,44.89,26Zm-2.7,1.56-44.9,26-44.91-26,44.91-26ZM808,299.9l-44.9-26,44.9-26,44.91,26Zm-2.68,1.56-44.92,26-44.89-26,44.89-26Zm-92.51-1.56-44.9-26,44.9-26,44.91,26Zm-2.68,1.56-44.91,26-44.9-26,44.9-26Zm-92.5-1.56-44.91-26,44.91-26,44.9,26Zm-2.7,1.56-44.9,26-44.9-26,44.9-26Zm0,55.1-44.9,26-44.9-26,44.9-26Zm0,55.09-44.9,26-44.9-26,44.9-26Zm0,55.1-48.2,27.9-44.9-26,48.2-27.9Zm-3.3,57-44.9,26-44.9-26,44.9-26Zm0,55.09-44.9,26-44.9-26,44.9-26Zm0,55.08-44.9,26-44.9-26,44.9-26Zm0,55.11-44.9,26-44.9-26,44.9-26Zm0,55.09-44.9,26-44.9-26,44.9-26Zm0,55.09-44.9,26-44.9-26,44.9-26Zm0,55.11-44.9,26-44.9-26,44.9-26Zm0,55.09-44.9,26-44.9-26,44.9-26Zm3.3,57-44.9,26-48.2-27.9,44.9-26Zm0,55.11-44.9,26-44.9-26,44.9-26ZM572.73,994l44.91-26,44.9,26-44.9,26Zm92.5,1.55,44.91,26-44.91,26-44.9-26Zm2.69-1.55,44.9-26,44.91,26-44.91,26Zm92.49,1.55,44.92,26-44.92,26-44.89-26Zm2.7-1.55L808,968l44.91,26L808,1020Zm92.5,1.55,44.9,26-44.9,26-44.91-26Zm2.68-1.55,44.92-26,44.89,26-44.89,26Zm92.51,1.55,44.9,26-44.9,26-44.91-26Zm2.69-1.55,44.9-26,44.91,26-44.91,26Zm92.49,1.55,44.91,26-44.91,26-44.89-26Zm2.7-1.55,44.9-26,44.9,26-44.9,26Zm92.5,1.55,44.89,26-44.89,26-44.91-26Zm2.69-1.55,44.9-26,44.9,26-44.9,26Zm92.49,1.55,44.9,26-44.9,26-44.9-26Zm2.7-1.55L1284,968l44.91,26L1284,1020Zm92.49,1.55,44.9,26-44.9,26-44.9-26Zm2.68-1.55,44.91-26,44.91,26-44.91,26Zm0-55.09L1382.45,911l44.9,26-48.21,27.9Zm3.31-57,44.91-26,44.9,26-44.9,26Zm0-55.1,44.91-26,44.9,26-44.9,26Zm0-55.09,44.91-26,44.9,26-44.9,26Zm0-55.09,44.91-26,44.9,26-44.9,26Zm0-55.09,44.91-26,44.9,26-44.9,26Zm0-55.11,44.91-26,44.9,26-44.9,26Zm0-55.09,44.91-26,44.9,26-44.9,26Zm-3.31-57,44.91-26,48.21,27.89-44.9,26Zm0-55.1,44.91-26,44.91,26-44.91,26Zm0-55.09,44.91-26,44.91,26-44.91,26Zm0-55.1,44.91-26,44.91,26-44.91,26Zm0-55.1,44.91-26,44.91,26-44.91,26Zm0-55.08,44.91-26,44.91,26-44.91,26Zm42.22,27.55-44.9,26-44.9-26,44.9-26Zm-92.5-1.57-44.89-26,44.89-26,44.91,26Zm-2.69,1.57-44.9,26-44.9-26,44.9-26Zm-92.49-1.57-44.9-26,44.9-26,44.9,26Zm-2.7,1.57-44.89,26-44.91-26,44.91-26Zm-92.49-1.57-44.9-26,44.9-26,44.9,26Zm-2.69,1.57-44.91,26-44.89-26,44.89-26Zm-92.5-1.57-44.9-26,44.9-26,44.91,26Zm-2.69,1.57-44.9,26-44.91-26,44.91-26Zm-92.49-1.57-44.92-26,44.92-26,44.89,26Zm-2.7,1.57-44.9,26-44.91-26,44.91-26ZM808,244.81l-44.9-26,44.9-26,44.91,26Zm-2.68,1.57-44.92,26-44.89-26,44.89-26Zm-92.51-1.57-44.9-26,44.9-26,44.91,26Zm-2.68,1.57-44.91,26-44.9-26,44.9-26Zm-92.5-1.57-44.91-26,44.91-26,44.9,26Zm-2.7,1.57-44.9,26-44.9-26,44.9-26Zm-92.49-1.57-44.9-26,44.9-26,44.91,26Zm44.91,29.1-44.91,26-44.9-26,44.9-26Zm0,55.1-44.91,26-44.9-26,44.9-26Zm0,55.1-44.91,26-44.9-26,44.9-26Zm0,55.09-48.21,27.9-44.9-26,48.2-27.91Zm-3.31,57-44.9,26-44.9-26,44.9-26Zm0,55.11-44.9,26-44.9-26,44.9-26Zm0,55.09-44.9,26-44.9-26,44.9-26Zm0,55.09-44.9,26-44.9-26,44.9-26Zm0,55.11-44.9,26-44.9-26,44.9-26Zm0,55.09-44.9,26-44.9-26,44.9-26Zm0,55.09-44.9,26-44.9-26,44.9-26Zm0,55.1-44.9,26-44.9-26,44.9-26Zm0,55.09-44.9,26-44.9-26,44.9-26Zm3.31,57-44.91,26-48.2-27.91,44.9-26Zm0,55.1-44.91,26-44.9-26,44.9-26Zm2.68,1.56,44.9,26-44.9,26-44.9-26Zm2.69-1.56,44.91-26,44.9,26-44.9,26Zm92.5,1.56,44.91,26-44.91,26-44.9-26Zm2.69-1.56,44.9-26,44.91,26-44.91,26Zm92.49,1.56,44.92,26-44.92,26-44.89-26Zm2.7-1.56,44.9-26,44.91,26-44.91,26Zm92.5,1.56,44.9,26-44.9,26-44.91-26Zm2.68-1.56,44.92-26,44.89,26-44.89,26Zm92.51,1.56,44.9,26-44.9,26-44.91-26Zm2.69-1.56,44.9-26,44.91,26-44.91,26Zm92.49,1.56,44.91,26-44.91,26-44.89-26Zm2.7-1.56,44.9-26,44.9,26-44.9,26Zm92.5,1.56,44.89,26-44.89,26-44.91-26Zm2.69-1.56,44.9-26,44.9,26-44.9,26Zm92.49,1.56,44.9,26-44.9,26-44.9-26Zm2.7-1.56,44.89-26,44.91,26-44.91,26Zm92.49,1.56,44.9,26-44.9,26-44.9-26Zm2.68-1.56,44.91-26,44.91,26-44.91,26Zm92.5,1.56,44.91,26-44.91,26-44.89-26Zm-44.89-29.1,44.89-26,44.91,26-44.91,26Zm0-55.11,48.2-27.9,44.9,26-48.21,27.9Zm3.3-57,44.9-26,44.9,26-44.9,26Zm0-55.09,44.9-26,44.9,26-44.9,26Zm0-55.11,44.9-26,44.9,26-44.9,26Zm0-55.09,44.9-26,44.9,26-44.9,26Zm0-55.09,44.9-26,44.9,26L1430,715Zm0-55.11,44.9-26,44.9,26L1430,660Zm0-55.08,44.9-26,44.9,26-44.9,26Zm0-55.09,44.9-26,44.9,26-44.9,26Zm-3.3-57,44.89-26,48.21,27.9-44.9,26Zm0-55.1,44.89-26,44.91,26-44.91,26Zm0-55.09,44.89-26,44.92,26-44.92,26Zm0-55.1,44.89-26,44.92,26-44.92,26Zm0-55.08,44.89-26,44.92,26-44.92,26Zm0-55.11,44.89-26,44.92,26-44.92,26Zm-2.7-1.55-44.91-26,44.91-26,44.91,26Zm-2.69,1.55-44.9,26-44.9-26,44.9-26Zm-92.5-1.55-44.89-26,44.89-26,44.91,26Zm-2.69,1.55-44.9,26-44.9-26,44.9-26Zm-92.49-1.55-44.9-26,44.9-26,44.9,26Zm-2.7,1.55-44.89,26-44.91-26,44.91-26Zm-92.49-1.55-44.9-26,44.9-26,44.9,26Zm-2.69,1.55-44.91,26-44.89-26,44.89-26Zm-92.5-1.55-44.9-26,44.9-26,44.91,26Zm-2.69,1.55-44.9,26-44.91-26,44.91-26Zm-92.49-1.55-44.92-26,44.92-26,44.89,26Zm-2.7,1.55-44.9,26-44.91-26,44.91-26ZM808,189.72l-44.9-26,44.9-26,44.91,26Zm-2.68,1.55-44.92,26-44.89-26,44.89-26Zm-92.51-1.55-44.9-26,44.9-26,44.91,26Zm-2.68,1.55-44.91,26-44.9-26,44.9-26Zm-92.5-1.55-44.91-26,44.91-26,44.9,26Zm-2.7,1.55-44.9,26-44.9-26,44.9-26Zm-92.49-1.55-44.9-26,44.9-26,44.91,26Zm-2.68,1.55-44.92,26-44.88-26,44.88-26Zm0,55.11-44.92,26-44.88-26,44.88-26Zm0,55.08-44.92,26-44.88-26,44.88-26Zm0,55.1-44.92,26-44.88-26,44.88-26Zm0,55.09-48.22,27.91-44.9-26,48.2-27.91Zm-3.3,57-44.92,26-44.9-26,44.9-26Zm0,55.11-44.92,26-44.9-26,44.9-26Zm0,55.09-44.92,26-44.9-26,44.9-26Zm0,55.08-44.92,26-44.9-26,44.9-26Zm0,55.11-44.92,26-44.9-26,44.9-26Zm0,55.09-44.92,26-44.9-26,44.9-26Zm0,55.09-44.92,26-44.9-26,44.9-26Zm0,55.11-44.92,26-44.9-26,44.9-26Zm0,55.09-44.92,26-44.9-26,44.9-26Zm0,55.09-44.92,26-44.9-26,44.9-26Zm3.3,57-44.92,26-48.2-27.91,44.9-26Zm0,55.09-44.92,26-44.88-26,44.88-26Zm0,55.09-44.92,26-44.88-26,44.88-26Zm-42.22-27.55,44.9-26,44.91,26-44.91,26Zm92.49,1.56,44.9,26-44.9,26-44.9-26Zm2.69-1.56,44.91-26,44.9,26-44.9,26Zm92.5,1.56,44.91,26-44.91,26-44.9-26Zm2.69-1.56,44.9-26,44.91,26-44.91,26Zm92.49,1.56,44.92,26-44.92,26-44.89-26Zm2.7-1.56,44.9-26,44.91,26-44.91,26Zm92.5,1.56,44.9,26-44.9,26-44.91-26Zm2.68-1.56,44.92-26,44.89,26-44.89,26Zm92.51,1.56,44.9,26-44.9,26-44.91-26Zm2.69-1.56,44.9-26,44.91,26-44.91,26Zm92.49,1.56,44.91,26-44.91,26-44.89-26Zm2.7-1.56,44.9-26,44.9,26-44.9,26Zm92.5,1.56,44.89,26-44.89,26-44.91-26Zm2.69-1.56,44.9-26,44.9,26-44.9,26Zm92.49,1.56,44.9,26-44.9,26-44.9-26Zm2.7-1.56,44.89-26,44.91,26-44.91,26Zm92.49,1.56,44.9,26-44.9,26-44.9-26Zm2.68-1.56,44.91-26,44.91,26-44.91,26Zm92.5,1.56,44.91,26-44.91,26-44.89-26Zm2.69-1.56,44.91-26,44.91,26-44.91,26Zm0-55.09,44.91-26,44.91,26-44.91,26Zm0-55.1,48.22-27.9,44.9,26L1474.33,1020Zm3.32-57,44.9-26,44.9,26-44.9,26Zm0-55.09,44.9-26,44.9,26-44.9,26Zm0-55.1,44.9-26,44.9,26-44.9,26Zm0-55.09,44.9-26,44.9,26-44.9,26Zm0-55.09,44.9-26,44.9,26-44.9,26Zm0-55.09,44.9-26,44.9,26-44.9,26Zm0-55.11,44.9-26,44.9,26-44.9,26Zm0-55.09,44.9-26,44.9,26-44.9,26Zm0-55.11,44.9-26,44.9,26-44.9,26Zm-3.32-57,44.91-26,48.21,27.91-44.9,26Zm0-55.09,44.91-26,44.91,26-44.91,26Zm0-55.1,44.91-26,44.91,26-44.91,26Zm0-55.1,44.91-26,44.91,26-44.91,26Zm0-55.08,44.91-26,44.91,26-44.91,26Zm0-55.11,44.91-26,44.91,26-44.91,26Zm0-55.09,49.87-28.86,44.91,26-49.87,28.84Zm42.23,27.54-44.92,26-44.89-26,44.89-26Zm-92.51-1.56-44.91-26,44.91-26,44.91,26Zm-2.69,1.56-44.9,26-44.9-26,44.9-26Zm-92.5-1.56-44.89-26,44.89-26,44.91,26Zm-2.69,1.56-44.9,26-44.9-26,44.9-26Zm-92.49-1.56-44.9-26,44.9-26,44.9,26Zm-2.7,1.56-44.89,26-44.91-26,44.91-26Zm-92.49-1.56-44.9-26,44.9-26,44.9,26Zm-2.69,1.56-44.91,26-44.89-26,44.89-26Zm-92.5-1.56-44.9-26,44.9-26,44.91,26Zm-2.69,1.56-44.9,26-44.91-26,44.91-26Zm-92.49-1.56-44.92-26,44.92-26,44.89,26Zm-2.7,1.56-44.9,26-44.91-26,44.91-26ZM808,134.61l-44.9-26,44.9-26,44.91,26Zm-2.68,1.56-44.92,26-44.89-26,44.89-26Zm-92.51-1.56-44.9-26,44.9-26,44.91,26Zm-2.68,1.56-44.91,26-44.9-26,44.9-26Zm-92.5-1.56-44.91-26,44.91-26,44.9,26Zm-2.7,1.56-44.9,26-44.9-26,44.9-26Zm-92.49-1.56L472.6,105.77l44.9-26,49.86,28.86Zm-2.68,1.56-44.92,26L425,133.32l44.88-26Zm-97.46-4.42-44.89-26,44.89-26,44.9,26Zm49.86,32-44.91,26-49.84-28.87,44.89-26Zm0,55.11-44.91,26-44.9-26,44.9-26Zm0,55.08-44.91,26-44.9-26,44.9-26Zm0,55.1-44.91,26-44.9-26,44.9-26Zm0,55.1L424,412l-44.9-26,48.2-27.91Zm-3.31,57-44.9,26-44.9-26,44.9-26Zm0,55.08-44.9,26-44.9-26,44.9-26Zm0,55.11-44.9,26-44.9-26,44.9-26Zm0,55.09-44.9,26-44.9-26,44.9-26Zm0,55.09-44.9,26-44.9-26,44.9-26Zm0,55.11-44.9,26-44.9-26,44.9-26Zm0,55.09-44.9,26-44.9-26,44.9-26Zm0,55.09-44.9,26-44.9-26,44.9-26Zm0,55.1-44.9,26-44.9-26,44.9-26Zm0,55.09L424,963l-44.9-26L424,911Zm0,55.1-44.9,26-44.9-26,44.9-26Zm3.31,57-44.91,26-48.2-27.89,44.9-26Zm0,55.09-44.91,26-44.9-26,44.9-26Zm0,55.09-44.91,26-44.9-26,44.9-26Zm2.68,1.56,44.92,26-44.92,26-44.88-26Zm2.7-1.56,44.9-26,44.91,26-44.91,26Zm92.49,1.56,44.9,26-44.9,26-44.9-26Zm2.69-1.56,44.91-26,44.9,26-44.9,26Zm92.5,1.56,44.91,26-44.91,26-44.9-26Zm2.69-1.56,44.9-26,44.91,26-44.91,26Zm92.49,1.56,44.92,26-44.92,26-44.89-26Zm2.7-1.56,44.9-26,44.91,26-44.91,26Zm92.5,1.56,44.9,26-44.9,26-44.91-26Zm2.68-1.56,44.92-26,44.89,26-44.89,26Zm92.51,1.56,44.9,26-44.9,26-44.91-26Zm2.69-1.56,44.9-26,44.91,26-44.91,26Zm92.49,1.56,44.91,26-44.91,26-44.89-26Zm2.7-1.56,44.9-26,44.9,26-44.9,26Zm92.5,1.56,44.89,26-44.89,26-44.91-26Zm2.69-1.56,44.9-26,44.9,26-44.9,26Zm92.49,1.56,44.9,26-44.9,26-44.9-26Zm2.7-1.56,44.89-26,44.91,26-44.91,26Zm92.49,1.56,44.9,26-44.9,26-44.9-26Zm2.68-1.56,44.91-26,44.91,26-44.91,26Zm92.5,1.56,44.91,26-44.91,26-44.89-26Zm2.69-1.56,44.91-26,44.91,26-44.91,26Zm92.5,1.56,44.91,26-44.91,26-44.91-26Zm-44.91-29.1,44.91-26,44.91,26-44.91,26Zm0-55.09,44.91-26,44.91,26-44.91,26Zm0-55.09,48.22-27.91,44.9,26-48.21,27.91Zm3.32-57,44.9-26,44.9,26-44.9,26Zm0-55.09,44.9-26,44.9,26-44.9,26Zm0-55.09,44.9-26,44.9,26-44.9,26Zm0-55.11,44.9-26,44.9,26-44.9,26Zm0-55.09,44.9-26,44.9,26-44.9,26Zm0-55.09,44.9-26,44.9,26-44.9,26Zm0-55.11,44.9-26,44.9,26-44.9,26Zm0-55.08,44.9-26,44.9,26-44.9,26Zm0-55.09,44.9-26,44.9,26-44.9,26Zm0-55.11,44.9-26,44.9,26-44.9,26Zm-3.32-57,44.91-26,48.21,27.91-44.9,26Zm0-55.09,44.91-26,44.91,26-44.91,26Zm0-55.1,44.91-26,44.91,26-44.91,26Zm0-55.08,44.91-26,44.91,26-44.91,26Zm0-55.11,44.91-26,44.91,26-44.91,26Zm0-55.1,49.87-28.85,44.9,26-49.86,28.86Zm5-58,44.91-26,44.9,26-44.9,26Zm-2.68-1.55-44.91-26,44.91-26,44.91,26Zm-2.7,1.55-49.86,28.86-44.89-26,49.86-28.87Zm-97.45,1.32-44.91-26,49.86-28.86,44.91,26Zm-2.69,1.56-44.9,26-44.9-26,44.9-26ZM1284,79.53l-44.89-26,44.89-26,44.91,26Zm-2.69,1.56-44.9,26-44.9-26,44.9-26Zm-92.49-1.56-44.9-26,44.9-26,44.9,26Zm-2.7,1.56-44.89,26-44.91-26,44.91-26Zm-92.49-1.56-44.9-26,44.9-26,44.9,26Zm-2.69,1.56-44.91,26-44.89-26,44.89-26Zm-92.5-1.56-44.9-26,44.9-26,44.91,26Zm-2.69,1.56-44.9,26-44.91-26,44.91-26Zm-92.49-1.56-44.92-26,44.92-26,44.89,26Zm-2.7,1.56-44.9,26-44.91-26,44.91-26ZM808,79.53l-44.9-26,44.9-26,44.91,26Zm-2.68,1.56-44.92,26-44.89-26,44.89-26Zm-92.51-1.56-44.9-26,44.9-26,44.91,26Zm-2.68,1.56-44.91,26-44.9-26,44.9-26Zm-92.5-1.56L567.77,50.66l44.92-26,49.85,28.86Zm-2.7,1.56-44.9,26L520.18,78.21l44.92-26ZM517.5,76.66l-44.9-26,44.9-26,44.9,26Zm-2.69,1.55-44.92,26L425,78.21l44.88-26Zm-92.5-1.55-44.89-26,44.89-26,44.9,26Zm-2.7,1.55-44.89,26-44.9-26,44.9-26Zm0,55.11-44.89,26-44.9-26,44.9-26Zm4.95,58-44.88,26L329.82,188.4l44.9-26Zm0,55.11-44.88,26-44.91-26,44.91-26Zm0,55.08-44.88,26-44.91-26,44.91-26Zm0,55.1-48.19,27.91-44.91-26,48.22-27.91Zm-3.3,57-44.89,26-44.91-26,44.91-26Zm0,55.09-44.89,26-44.91-26,44.91-26Zm0,55.11-44.89,26-44.91-26,44.91-26Zm0,55.09-44.91,26-44.91-26,44.91-26Zm0,55.08-44.91,26-44.91-26,44.91-26Zm0,55.11-44.91,26-44.91-26,44.91-26Zm0,55.09-44.91,26-44.91-26,44.91-26Zm0,55.09-44.91,26-44.91-26,44.91-26Zm0,55.11-44.91,26-44.91-26,44.91-26Zm0,55.09-44.91,26-44.91-26,44.91-26Zm0,55.09-44.91,26-44.91-26,44.91-26Zm0,55.1-44.91,26-44.91-26,44.91-26Zm3.28,57-44.88,26-48.22-27.9,44.91-26Zm0,55.09-44.88,26-44.91-26,44.91-26Zm0,55.11-44.88,26-44.91-26,44.91-26Zm0,55.08-49.84,28.85-44.9-26,49.86-28.84Zm-42.2-27.55,44.9-26,44.91,26-44.91,26Zm92.49,1.57,44.92,26-44.92,26-44.88-26Zm2.7-1.57,44.9-26,44.91,26-44.91,26Zm92.49,1.57,44.9,26-44.9,26-44.9-26Zm2.69-1.57,44.91-26,44.9,26-44.9,26Zm92.5,1.57,44.91,26-44.91,26-44.9-26Zm2.69-1.57,44.9-26,44.91,26-44.91,26Zm92.49,1.57,44.92,26-44.92,26-44.89-26Zm2.7-1.57,44.9-26,44.91,26-44.91,26Zm92.5,1.57,44.9,26-44.9,26-44.91-26Zm2.68-1.57,44.92-26,44.89,26-44.89,26Zm92.51,1.57,44.9,26-44.9,26-44.91-26Zm2.69-1.57,44.9-26,44.91,26-44.91,26Zm92.49,1.57,44.91,26-44.91,26-44.89-26Zm2.7-1.57,44.9-26,44.9,26-44.9,26Zm92.5,1.57,44.89,26-44.89,26-44.91-26Zm2.69-1.57,44.9-26,44.9,26-44.9,26Zm92.49,1.57,44.9,26-44.9,26-44.9-26Zm2.7-1.57,44.89-26,44.91,26-44.91,26Zm92.49,1.57,44.9,26-44.9,26-44.9-26Zm2.68-1.57,44.91-26,44.91,26-44.91,26Zm92.5,1.57,44.91,26-44.91,26-44.89-26Zm2.69-1.57,44.91-26,44.91,26-44.91,26Zm92.5,1.57,44.91,26-44.91,26-44.91-26Zm2.69-1.57,44.92-26,44.88,26-44.88,26Zm0-55.1,44.92-26,44.88,26-44.88,26Zm0-55.09,44.92-26,44.88,26-44.88,26Zm0-55.09,48.22-27.91,44.89,26-48.19,27.89Zm3.3-57,44.92-26,44.89,26-44.89,26Zm0-55.1,44.92-26,44.89,26-44.89,26Zm0-55.09,44.92-26,44.89,26-44.89,26Zm0-55.1,44.92-26,44.89,26-44.89,26Zm0-55.09,44.92-26,44.89,26-44.89,26Zm0-55.09,44.92-26,44.89,26-44.89,26Zm0-55.09,44.92-26,44.89,26-44.89,26Zm0-55.11,44.92-26,44.89,26-44.89,26Zm0-55.09,44.92-26,44.89,26-44.89,26Zm0-55.11,44.92-26,44.89,26-44.89,26Zm0-55.08,44.92-26,44.89,26-44.89,26Zm-3.3-57,44.92-26L1617.72,386l-44.89,26Zm0-55.1,44.92-26,44.88,26-44.88,26Zm0-55.1,44.92-26,44.88,26-44.88,26Zm0-55.08,44.92-26,44.88,26-44.88,26Zm0-55.11,49.86-28.86,44.9,26-49.84,28.87Zm5-57.95,44.9-26,44.9,26-44.9,26Zm0-55.11,44.9-26,44.9,26-44.9,26Zm0-55.08,44.9-26,44.9,26-44.9,26Zm42.21,27.53-44.9,26-44.91-26,44.91-26Zm-92.49-1.55-44.91-26,44.91-26,44.91,26Zm-2.7,1.55-44.89,26-44.92-26,44.92-26Zm-92.5-1.55-44.9-26,44.9-26,44.91,26Zm-2.67,1.55L1331.55,52l-44.9-26,49.86-28.85ZM1284,24.43l-44.89-26,49.86-28.84,44.89,26ZM1281.26,26l-44.9,26-44.9-26,44.9-26Zm-92.49-1.56-44.9-26,44.9-26,44.9,26Zm-2.7,1.56-44.89,26-44.91-26,44.91-26Zm-92.49-1.56-44.9-26,44.9-26,44.9,26ZM1090.89,26,1046,52l-44.89-26L1046,0Zm-92.5-1.56-44.9-26,44.9-26,44.91,26ZM995.7,26,950.8,52,905.89,26,950.8,0Zm-92.49-1.56-44.92-26,44.92-26,44.89,26ZM900.51,26l-44.9,26L810.7,26,855.61,0ZM808,24.43l-44.9-26,44.9-26,44.91,26ZM805.33,26,760.41,52,715.52,26,760.41,0Zm-92.51-1.56L663-4.42l44.88-26L757.73-1.57ZM710.14,26,665.23,52,615.37,23.11l44.91-26Zm-97.45-4.43-44.92-26,44.92-26,44.89,26ZM610,23.11l-44.89,26-44.92-26,44.92-26ZM517.5,21.56l-44.9-26,44.9-26,44.9,26Zm-2.69,1.55-44.92,26L425,23.11l44.88-26Zm-92.5-1.55-44.89-26,44.89-26,44.9,26Zm-2.7,1.55-44.89,26-44.9-26,44.9-26Zm-92.48-1.55-44.91-26,44.91-26L372-4.42ZM372,50.66l-44.89,26-44.91-26,44.91-26Zm0,55.11-44.89,26-44.91-26,44.91-26Zm0,55.08-44.89,26-44.91-26,44.91-26Zm5,58-44.89,26L282.22,216l44.91-26Zm0,55.08-44.89,26-44.92-26,44.92-26Zm0,55.1-48.2,27.91-44.92-26L332.09,303Zm-3.31,57-44.89,26-44.92-26,44.92-26Zm0,55.1-44.89,26-44.92-26,44.92-26Zm0,55.08-44.89,26-44.92-26,44.92-26Zm0,55.11-44.89,26-44.92-26,44.92-26Zm0,55.09-44.89,26-44.92-26,44.92-26Zm0,55.09-44.89,26-44.92-26,44.92-26Zm0,55.11-44.89,26-44.92-26,44.92-26Zm0,55.09-44.89,26-44.92-26,44.92-26Zm0,55.09-44.89,26-44.92-26,44.92-26Zm0,55.1-44.89,26-44.92-26,44.92-26Zm0,55.09-44.89,26-44.92-26,44.92-26Zm0,55.1-44.89,26-44.92-26,44.92-26Zm0,55.1-44.89,26-44.92-26,44.92-26Zm3.31,57-44.89,26-48.23-27.9,44.92-26Zm0,55.09-44.89,26-44.92-26,44.92-26Zm0,55.1-49.85,28.86-44.91-26,49.87-28.86Zm-5,58-44.89,26-44.91-26,44.91-26Zm2.7,1.56,44.89,26-44.89,26-44.9-26Zm2.7-1.56,49.84-28.85,44.91,26-49.86,28.86Zm97.43-1.3,44.92,26-49.88,28.86-44.88-26Zm2.7-1.56,44.9-26,44.91,26-44.91,26ZM570,1271l44.9,26L570,1323l-44.9-26Zm2.69-1.56,44.91-26,44.9,26-44.9,26Zm92.5,1.56,44.91,26-44.91,26-44.9-26Zm2.69-1.56,44.9-26,44.91,26-44.91,26Zm92.49,1.56,44.92,26-44.92,26-44.89-26Zm2.7-1.56,44.9-26,44.91,26-44.91,26Zm92.5,1.56,44.9,26-44.9,26-44.91-26Zm2.68-1.56,44.92-26,44.89,26-44.89,26ZM950.8,1271l44.9,26-44.9,26-44.91-26Zm2.69-1.56,44.9-26,44.91,26-44.91,26ZM1046,1271l44.91,26L1046,1323l-44.89-26Zm2.7-1.56,44.9-26,44.9,26-44.9,26Zm92.5,1.56,44.89,26-44.89,26-44.91-26Zm2.69-1.56,44.9-26,44.9,26-44.9,26Zm92.49,1.56,44.9,26-44.9,26-44.9-26Zm2.7-1.56,44.89-26,44.91,26-44.91,26Zm92.49,1.56,44.9,26-44.9,26-44.9-26Zm2.68-1.56,44.91-26,44.91,26-44.91,26Zm92.5,1.56,44.91,26-44.91,26-44.89-26Zm2.69-1.56,44.91-26,44.91,26-44.91,26Zm92.5,1.56,49.86,28.86-44.9,26L1477,1297Zm2.69-1.56,44.92-26,49.84,28.85-44.9,26Zm97.46,4.42,44.9,26-44.9,26-44.91-26Zm-49.87-32,44.91-26,49.86,28.84-44.9,26Zm0-55.08,44.91-26,44.91,26-44.91,26Zm0-55.11,44.91-26,44.91,26-44.91,26Zm0-55.09,48.22-27.91,44.9,26-48.21,27.9Zm3.32-57,44.9-26,44.9,26-44.9,26Zm0-55.1,44.9-26,44.9,26-44.9,26Zm0-55.09,44.9-26,44.9,26-44.9,26Zm0-55.09,44.9-26,44.9,26-44.9,26Zm0-55.11,44.9-26,44.9,26-44.9,26Zm0-55.09,44.9-26,44.9,26-44.9,26Zm0-55.09,44.9-26,44.9,26-44.9,26Zm0-55.11,44.9-26,44.9,26-44.9,26Zm0-55.08,44.9-26,44.9,26-44.9,26Zm0-55.09,44.9-26,44.9,26-44.9,26Zm0-55.11,44.9-26,44.9,26-44.9,26Zm0-55.09,44.9-26,44.9,26-44.9,26Zm-3.32-57,44.91-26,48.21,27.91-44.9,26Zm0-55.1,44.91-26,44.91,26-44.91,26Zm0-55.08,44.91-26,44.91,26-44.91,26Zm0-55.11,49.87-28.86,44.9,26-49.86,28.87Zm5-58,44.91-26,44.9,26-44.9,26Zm0-55.11,44.91-26,44.9,26-44.9,26Zm0-55.1,44.91-26,44.9,26-44.9,26Zm-2.69-56.64-44.9-26,44.9-26,44.9,26ZM1571.78-32l-44.9,26L1482-32l44.91-26Zm-92.49-1.56-44.91-26,44.91-26,44.91,26Zm-2.7,1.56L1431.7-6l-44.92-26,44.92-26Zm-92.5-1.56-44.9-26,44.9-26,44.91,26ZM1381.42-32,1336.51-6,1291.6-32l44.91-26Zm-92.5-1.56-44.9-26,44.9-26,44.89,26Zm-2.7,1.56L1236.36-3.11l-44.9-26L1241.32-58Zm-97.45,1.3-44.9-26,49.86-28.87,44.89,26Zm-2.7,1.56-44.89,26-44.91-26,44.91-26Zm-92.49-1.56-44.9-26,44.9-26,44.9,26Zm-2.69,1.56L1046-3.11l-44.89-26,44.89-26Zm-92.5-1.56-44.9-26,44.9-26,44.91,26Zm-2.69,1.56-44.9,26-44.91-26,44.91-26Zm-92.49-1.56-44.92-26,44.92-26,44.89,26Zm-2.7,1.56-44.9,26-44.91-26,44.91-26ZM808-30.67,758.15-59.52l44.9-26,49.87,28.87Zm-2.68,1.56-44.92,26L710.56-32l44.9-26Zm-97.47-4.42L663-59.52l44.88-26,44.93,26ZM705.19-32,660.28-6,615.37-32l44.91-26Zm-92.5-1.56-44.92-26,44.92-26,44.89,26ZM610-32,565.1-6,520.18-32,565.1-58ZM517.5-33.53l-44.9-26,44.9-26,44.9,26ZM514.81-32,469.89-6,425-32l44.88-26Zm-92.5-1.56-44.89-26,44.89-26,44.9,26ZM419.61-32,374.72-6l-44.9-26,44.9-26Zm-92.48-1.56-44.91-26,44.91-26,44.89,26ZM324.43-32,279.53-6,234.62-32l44.91-26Zm0,55.08-44.9,26-44.91-26,44.91-26Zm0,55.1-44.9,26-44.91-26,44.91-26Zm0,55.11-44.9,26-44.91-26,44.91-26Zm0,55.08-44.9,26-44.91-26,44.91-26Zm5,58-44.9,26L234.62,243.5l44.91-26Zm0,55.08-48.22,27.9-44.9-26,48.22-27.91Zm-3.31,57-44.91,26-44.9-26,44.9-26Zm0,55.09-44.91,26-44.9-26,44.9-26Zm0,55.09-44.91,26-44.9-26,44.9-26Zm0,55.11-44.91,26-44.9-26,44.9-26Zm0,55.09-44.91,26-44.9-26,44.9-26Zm0,55.08-44.91,26-44.9-26,44.9-26Zm0,55.11-44.91,26-44.9-26,44.9-26Zm0,55.09-44.91,26-44.9-26,44.9-26Zm0,55.09-44.91,26-44.9-26,44.9-26Zm0,55.11-44.91,26-44.9-26,44.9-26Zm0,55.09-44.91,26-44.9-26,44.9-26Zm0,55.09-44.91,26-44.9-26,44.9-26Zm0,55.1-44.91,26-44.9-26,44.9-26Zm0,55.09-44.91,26-44.9-26,44.9-26Zm3.31,57-44.9,26-48.22-27.9,44.9-26Zm0,55.11-49.86,28.84-44.91-26,49.87-28.86Zm-5,57.94-44.9,26-44.91-26,44.91-26Zm0,55.11-44.9,26-44.91-26,44.91-26Zm0,55.09-44.9,26-44.91-26,44.91-26Zm-42.21-27.55,44.91-26,44.89,26-44.89,26Zm92.5,1.57,44.89,26-44.89,26-44.9-26Zm2.7-1.57,44.89-26,44.9,26-44.9,26Zm92.47,1.57,44.92,26-44.92,26L425,1355Zm2.71-1.57,49.85-28.86,44.91,26-49.86,28.86Zm97.44-1.31,44.9,26L565.1,1381l-44.92-26Zm2.69-1.56,44.91-26,44.9,26-44.9,26Zm92.5,1.56,44.91,26-44.91,26-44.9-26Zm2.69-1.56,44.9-26,44.91,26-44.91,26Zm92.49,1.56,44.92,26-44.92,26-44.89-26Zm2.7-1.56,44.9-26,44.91,26-44.91,26Zm92.5,1.56,44.9,26-44.9,26-44.91-26Zm2.68-1.56,44.92-26,44.89,26-44.89,26Zm92.51,1.56,44.9,26-44.9,26-44.91-26Zm2.69-1.56,44.9-26,44.91,26-44.91,26Zm92.49,1.56,44.91,26-44.91,26-44.89-26Zm2.7-1.56,44.9-26,44.9,26-44.9,26Zm92.5,1.56,44.89,26-44.89,26-44.91-26Zm2.69-1.56,44.9-26,44.9,26-44.9,26Zm92.49,1.56,44.9,26-44.9,26-44.9-26Zm2.7-1.56,44.89-26,44.91,26-44.91,26Zm92.49,1.56,44.9,26-44.9,26-44.9-26Zm2.68-1.56,44.91-26,44.91,26-44.91,26Zm92.5,1.56,49.86,28.86-44.9,26-49.85-28.85Zm2.69-1.56,44.91-26,49.87,28.86-44.91,26Zm97.46,4.44,44.9,26-44.9,26L1482,1355Zm2.69-1.57,44.9-26,44.9,26-44.9,26Zm92.5,1.57,44.9,26-44.9,26-44.91-26Zm2.69-1.57,44.9-26,44.9,26-44.9,26Zm0-55.1,44.9-26,44.9,26-44.9,26Zm-5-58,44.9-26,49.86,28.86-44.9,26Zm0-55.1,44.9-26,44.9,26-44.9,26Zm0-55.09,48.2-27.9,44.91,26-48.21,27.9Zm3.3-57,44.9-26,44.91,26-44.91,26Zm0-55.1,44.9-26,44.91,26-44.91,26Zm0-55.1,44.9-26,44.91,26L1668,963Zm0-55.09,44.9-26,44.91,26-44.91,26Zm0-55.1,44.9-26,44.91,26-44.91,26Zm0-55.09,44.9-26,44.91,26-44.91,26Zm0-55.09,44.9-26,44.91,26-44.91,26Zm0-55.09,44.9-26,44.91,26-44.91,26Zm0-55.11,44.9-26,44.91,26-44.91,26Zm0-55.09,44.9-26,44.91,26-44.91,26Zm0-55.11,44.9-26,44.91,26-44.91,26Zm0-55.08,44.9-26,44.91,26-44.91,26Zm0-55.1,44.9-26,44.91,26L1668,412Zm-3.3-57,44.9-26,48.21,27.9-44.91,26Zm0-55.1,44.9-26,44.9,26-44.9,26Zm0-55.08L1669.66,190l44.9,26-49.86,28.86Zm5-58,44.9-26,44.9,26-44.9,26Zm0-55.08,44.9-26,44.9,26-44.9,26Zm0-55.11,44.9-26,44.9,26-44.9,26Zm0-55.08,44.9-26,44.9,26-44.9,26ZM1672.36-32l44.89-26,44.91,26L1717.25-6Zm0-55.11,44.89-26,44.91,26-44.91,26Zm-2.7-1.56-44.9-26,44.9-26,44.9,26ZM1667-87.08l-44.9,26-44.91-26,44.91-26Zm-92.5-1.56-44.9-26,44.9-26,44.9,26Zm-2.69,1.56-44.9,26-44.91-26,44.91-26Zm-92.49-1.56-44.91-26,44.91-26,44.91,26Zm-2.7,1.56-44.89,26-44.92-26,44.92-26Zm-92.5-1.56-44.9-26,44.9-26,44.91,26Zm-2.67,1.56-44.91,26-44.91-26,44.91-26Zm-92.5-1.56-44.9-26,44.9-26,44.89,26Zm-2.7,1.56-44.9,26-44.91-26,44.91-26Zm-92.49-1.56-44.9-26,44.9-26,44.89,26Zm-2.7,1.56-49.85,28.87-44.91-26,49.87-28.86Zm-97.45,1.32-44.9-26,49.86-28.86,44.9,26Zm-2.69,1.56-44.91,26-44.89-26,44.89-26Zm-92.5-1.56-44.9-26,44.9-26,44.91,26ZM995.7-84.2l-44.9,26-44.91-26,44.91-26Zm-92.49-1.56-49.87-28.87,44.91-26,49.85,28.86Zm-2.7,1.56-44.9,26L805.74-87.08l44.92-26Zm-97.46-4.44-44.9-26,44.9-26,44.91,26Zm-2.67,1.56-44.92,26-44.9-26,44.9-26Zm-92.52-1.56-44.88-26,44.88-26,44.93,26Zm-2.67,1.56-44.91,26-44.91-26,44.91-26Zm-92.5-1.56-44.92-26,44.92-26,44.89,26ZM610-87.08l-44.89,26-44.92-26,44.92-26ZM517.5-88.64l-44.9-26,44.9-26,44.9,26Zm-2.69,1.56-44.92,26L425-87.08l44.88-26Zm-92.5-1.56-44.89-26,44.89-26,44.9,26Zm-2.7,1.56-44.89,26-44.9-26,44.9-26Zm-92.48-1.56-44.91-26,44.91-26,44.89,26Zm-2.7,1.56-44.9,26-44.91-26,44.91-26Zm-92.5-1.56-44.9-26,44.9-26,44.91,26Zm44.91,29.12-44.91,26-44.9-26,44.9-26Zm0,55.1-44.91,26L187-4.42l44.9-26Zm0,55.08-44.91,26-44.9-26,44.9-26Zm0,55.11-44.91,26-44.9-26,44.9-26Zm0,55.08-44.91,26-44.9-26,44.9-26Zm0,55.1-44.91,26L187,216l44.9-26Zm5,58-48.21,27.91L183.73,273l48.2-27.89Zm-3.31,57-44.9,26-44.91-26,44.91-26Zm0,55.1-44.9,26-44.91-26,44.91-26Zm0,55.1-44.9,26-44.91-26,44.91-26Zm0,55.08-44.9,26-44.91-26,44.91-26Zm0,55.11-44.9,26-44.91-26,44.91-26Zm0,55.09-44.9,26-44.91-26,44.91-26Zm0,55.09-44.9,26-44.91-26,44.91-26Zm0,55.11-44.9,26-44.91-26,44.91-26Zm0,55.09-44.9,26-44.91-26,44.91-26Zm0,55.09-44.9,26-44.91-26,44.91-26Zm0,55.1-44.9,26-44.91-26,44.91-26Zm0,55.09-44.9,26-44.91-26,44.91-26Zm0,55.1-44.9,26-44.91-26,44.91-26Zm0,55.1-44.9,26-44.91-26,44.91-26Zm0,55.09-44.9,26-44.91-26,44.91-26Zm3.31,57-49.87,28.86-48.2-27.9,49.86-28.85Zm-5,58-44.91,26-44.9-26,44.9-26Zm0,55.09-44.91,26-44.9-26,44.9-26Zm0,55.1-44.91,26-44.9-26,44.9-26Zm0,55.1-44.91,26-44.9-26,44.9-26Zm2.69,1.55,44.9,26-44.9,26-44.91-26Zm2.69-1.55,44.91-26,44.89,26-44.89,26Zm92.5,1.55,44.89,26-44.89,26-44.9-26Zm2.7-1.55,44.89-26,44.9,26-44.9,26Zm92.47,1.55,44.92,26-44.92,26-44.88-26Zm2.71-1.55,44.9-26,44.9,26-44.9,26Zm92.5,1.55,44.89,26-44.89,26-44.92-26Zm2.67-1.55,49.86-28.86,44.91,26-49.85,28.85Zm97.46-1.31,44.91,26-49.86,28.85-44.91-26Zm2.69-1.56,44.9-26,44.91,26-44.91,26Zm92.49,1.56,44.92,26-44.92,26-44.89-26Zm2.7-1.56,44.9-26,44.91,26-44.91,26Zm92.5,1.56,44.9,26-44.9,26-44.91-26Zm2.68-1.56,44.92-26,44.89,26-44.89,26Zm92.51,1.56,44.9,26-44.9,26-44.91-26Zm2.69-1.56,44.9-26,44.91,26-44.91,26Zm92.49,1.56,44.91,26-44.91,26-44.89-26Zm2.7-1.56,44.9-26,44.9,26-44.9,26Zm92.5,1.56,44.89,26-44.89,26-44.91-26Zm2.69-1.56,44.9-26,44.9,26-44.9,26Zm92.49,1.56,44.9,26-44.9,26-44.9-26Zm2.7-1.56,44.89-26,44.91,26-44.91,26Zm92.49,1.56,49.87,28.85-44.91,26-49.86-28.85Zm2.68-1.56,44.91-26,49.86,28.86-44.91,26Zm97.46,4.42,44.9,26-44.9,26-44.91-26Zm2.69-1.55,44.91-26,44.91,26-44.91,26Zm92.5,1.55,44.9,26-44.9,26-44.91-26Zm2.69-1.55,44.9-26,44.9,26-44.9,26Zm92.5,1.55,44.9,26-44.9,26-44.91-26Zm2.69-1.55,44.9-26,44.9,26-44.9,26Zm92.49,1.55,44.91,26-44.91,26-44.89-26Zm-44.89-29.1,44.89-26,44.91,26-44.91,26Zm0-55.09,44.89-26,44.91,26-44.91,26Zm0-55.11,44.89-26,44.91,26-44.91,26Zm-5-57.94,44.9-26,49.86,28.86-44.91,26Zm0-55.11,48.19-27.9,44.91,26-48.2,27.9Zm3.29-57,44.9-26,44.91,26-44.91,26Zm0-55.09,44.9-26,44.91,26-44.91,26Zm0-55.1,44.9-26,44.91,26-44.91,26Zm0-55.09,44.9-26,44.91,26-44.91,26Zm0-55.09,44.9-26,44.91,26-44.91,26Zm0-55.11,44.9-26,44.91,26-44.91,26Zm0-55.09,44.9-26,44.91,26-44.91,26Zm0-55.09,44.9-26,44.91,26-44.91,26Zm0-55.11,44.9-26,44.91,26-44.91,26Zm0-55.08,44.9-26,44.91,26-44.91,26Zm0-55.09,44.9-26,44.91,26-44.91,26Zm0-55.11,44.9-26,44.91,26-44.91,26Zm0-55.09,44.9-26,44.91,26-44.91,26Zm0-55.09,44.9-26,44.91,26-44.91,26Zm-3.29-57,44.9-26,48.2,27.91-44.91,26Zm0-55.08,49.85-28.87,44.91,26-49.86,28.85Zm5-58,44.89-26,44.91,26-44.91,26Zm0-55.08,44.89-26,44.91,26-44.91,26Zm0-55.11,44.89-26,44.91,26-44.91,26Zm0-55.1,44.89-26,44.91,26-44.91,26ZM1720-4.42l44.9-26,44.9,26-44.9,26Zm0-55.1,44.9-26,44.9,26-44.9,26Zm0-55.11,44.9-26,44.9,26-44.9,26Zm0-55.08,44.9-26,44.9,26-44.9,26Zm42.21,27.55-44.91,26-44.89-26,44.89-26Zm-92.5-1.56-44.9-26,44.9-26,44.9,26Zm-2.69,1.56-44.9,26-44.91-26,44.91-26Zm-92.5-1.56-44.9-26,44.9-26,44.9,26Zm-2.69,1.56-44.9,26-44.91-26,44.91-26Zm-92.49-1.56-44.91-26,44.91-26,44.91,26Zm-2.7,1.56-44.89,26-44.92-26,44.92-26Zm-92.5-1.56-44.9-26,44.9-26,44.91,26Zm-2.67,1.56-44.91,26-44.91-26,44.91-26Zm-92.5-1.56-44.9-26,44.9-26,44.89,26Zm-2.7,1.56-44.9,26-44.91-26,44.91-26Zm-92.49-1.56-44.9-26,44.9-26,44.89,26Zm-2.7,1.56-44.89,26-44.92-26,44.92-26Zm-92.49-1.56-44.9-26,44.9-26,44.9,26Zm-2.69,1.56L1046-113.31l-44.89-26,49.84-28.86Zm-97.46,1.31-49.86-28.86,49.86-28.87,49.86,28.87Zm-2.69,1.56-44.9,26-49.87-28.85,44.91-26Zm-97.45-4.43-44.91-26,44.91-26,44.9,26Zm-2.7,1.56-44.89,26-44.92-26,44.92-26Zm-92.5-1.56-44.9-26,44.9-26,44.91,26Zm-2.67,1.56-44.92,26-44.9-26,44.9-26Zm-92.52-1.56-44.88-26,44.88-26,44.93,26Zm-2.67,1.56-44.91,26-44.91-26,44.91-26Zm-92.5-1.56-44.92-26,44.92-26,44.89,26Zm-2.7,1.56-44.89,26-44.92-26,44.92-26Zm-92.49-1.56-44.9-26,44.9-26,44.9,26Zm-2.69,1.56-44.92,26-44.88-26,44.88-26Zm-92.5-1.56-44.89-26,44.89-26,44.9,26Zm-2.7,1.56-44.89,26-44.9-26,44.9-26Zm-92.48-1.56-44.91-26,44.91-26,44.89,26Zm-2.7,1.56-44.9,26-44.91-26,44.91-26Zm-92.5-1.56-44.9-26,44.9-26,44.91,26Zm-2.68,1.56-44.91,26-44.9-26,44.9-26Zm0,55.08-44.91,26-44.9-26,44.9-26Zm0,55.11L184.34-6l-44.9-26,44.9-26Zm0,55.08-44.91,26-44.9-26,44.9-26Zm0,55.1-44.91,26-44.9-26,44.9-26Zm0,55.11-44.91,26-44.9-26,44.9-26Zm0,55.08-44.91,26-44.9-26,44.9-26Zm0,55.1L181,271.41l-44.89-26,48.2-27.9Zm1.65,59.88-44.92,26-49.84-28.85,44.89-26Zm0,55.1-44.92,26-44.88-26,44.88-26Zm0,55.09-44.92,26-44.88-26,44.88-26Zm0,55.09-44.92,26-44.88-26,44.88-26Zm0,55.11-44.92,26-44.88-26,44.88-26Zm0,55.09-44.92,26-44.88-26,44.88-26Zm0,55.08L186,660l-44.88-26L186,608Zm0,55.11L186,715l-44.88-26,44.88-26Zm0,55.09-44.92,26-44.88-26,44.88-26Zm0,55.09-44.92,26-44.88-26,44.88-26Zm0,55.11-44.92,26-44.88-26,44.88-26Zm0,55.09-44.92,26-44.88-26,44.88-26Zm0,55.09-44.92,26-44.88-26,44.88-26Zm0,55.1-44.92,26-44.88-26,44.88-26Zm0,55.09-44.92,26-44.88-26,44.88-26Zm0,55.1L181,1158.67l-44.89-26L186,1103.82Zm-1.65,59.87-44.91,26-48.2-27.9,44.89-26Zm0,55.09-44.91,26-44.9-26,44.9-26Zm0,55.11-44.91,26-44.9-26,44.9-26Zm0,55.09-44.91,26-44.9-26,44.9-26Zm0,55.09-44.91,26-44.9-26,44.9-26Zm0,55.1-44.91,26-44.9-26,44.9-26ZM187,1437.61l44.9-26,44.91,26-44.91,26Zm92.5,1.56,44.9,26-44.9,26-44.91-26Zm2.69-1.56,44.91-26,44.89,26-44.89,26Zm92.5,1.56,44.89,26-44.89,26-44.9-26Zm2.7-1.56,44.89-26,44.9,26-44.9,26Zm92.47,1.56,44.92,26-44.92,26-44.88-26Zm2.71-1.56,44.9-26,44.9,26-44.9,26Zm92.5,1.56,44.89,26-44.89,26-44.92-26Zm2.67-1.56,44.92-26,44.89,26-44.89,26Zm92.51,1.56,44.91,26-44.91,26-44.91-26Zm2.7-1.56,49.84-28.85,44.91,26-49.87,28.85Zm97.43-1.31,44.92,26-49.87,28.86-44.9-26Zm2.7-1.55,44.9-26,44.91,26-44.91,26Zm92.5,1.55,44.9,26-44.9,26-44.91-26Zm2.68-1.55,44.92-26,44.89,26-44.89,26Zm92.51,1.55,44.9,26-44.9,26-44.91-26Zm2.69-1.55,44.9-26,44.91,26-44.91,26Zm92.49,1.55,44.91,26-44.91,26-44.89-26Zm2.7-1.55,44.9-26,44.9,26-44.9,26Zm92.5,1.55,44.89,26-44.89,26-44.91-26Zm2.69-1.55,44.9-26,44.9,26-44.9,26Zm92.49,1.55,49.86,28.86-44.9,26-49.86-28.86Zm2.7-1.55,44.89-26,49.86,28.85-44.89,26Zm97.45,4.42,44.91,26-44.91,26-44.91-26Zm2.68-1.56,44.9-26,44.91,26-44.91,26Zm92.5,1.56,44.9,26-44.9,26-44.91-26Zm2.69-1.56,44.91-26,44.91,26-44.91,26Zm92.5,1.56,44.9,26-44.9,26-44.91-26Zm2.69-1.56,44.9-26,44.9,26-44.9,26Zm92.5,1.56,44.9,26-44.9,26-44.91-26Zm2.69-1.56,44.9-26,44.9,26-44.9,26Zm92.49,1.56,44.91,26-44.91,26-44.89-26Zm2.7-1.56,44.9-26,44.9,26-44.9,26Zm0-55.09,44.9-26,44.9,26-44.9,26Zm0-55.1,44.9-26,44.9,26-44.9,26Zm0-55.1,44.9-26,44.9,26-44.9,26Zm0-55.09,44.9-26,44.9,26-44.9,26Zm-5-58,48.21-27.89,49.86,28.85-48.21,27.9Zm3.3-57,44.91-26,44.9,26-44.9,26Zm0-55.09,44.91-26,44.9,26-44.9,26Zm0-55.1,44.91-26,44.9,26-44.9,26Zm0-55.1,44.91-26,44.9,26-44.9,26Zm0-55.09,44.91-26,44.9,26-44.9,26Zm0-55.1,44.91-26,44.9,26-44.9,26Zm0-55.09,44.91-26,44.9,26-44.9,26Zm0-55.09,44.91-26,44.9,26-44.9,26Zm0-55.09,44.91-26,44.9,26-44.9,26Zm0-55.11,44.91-26,44.9,26-44.9,26Zm0-55.09,44.91-26,44.9,26-44.9,26Zm0-55.11,44.91-26,44.9,26-44.9,26Zm0-55.08,44.91-26,44.9,26-44.9,26Zm0-55.1,44.91-26,44.9,26-44.9,26Zm0-55.1,44.91-26,44.9,26-44.9,26Zm-3.3-57,49.86-28.85L1813.06,273l-49.86,28.87Zm5-58,44.9-26,44.9,26-44.9,26Zm0-55.1,44.9-26,44.9,26-44.9,26Zm0-55.08,44.9-26,44.9,26-44.9,26Zm0-55.11,44.9-26,44.9,26-44.9,26Zm47.59-27.55,44.9-26,44.9,26-44.9,26Zm0-55.08,44.9-26,44.9,26-44.9,26Zm0-55.11,44.9-26,44.9,26-44.9,26Zm0-55.08,44.9-26,44.9,26-44.9,26Zm0-55.1,44.9-26,44.9,26-44.9,26Zm-2.69-1.56-44.9-26,44.9-26,44.9,26Zm-2.69,1.56-44.91,26-44.89-26,44.89-26Zm-92.5-1.56-44.9-26,44.9-26,44.9,26Zm-2.69,1.56-44.9,26-44.91-26,44.91-26Zm-92.5-1.56-44.9-26,44.9-26,44.9,26Zm-2.69,1.56-44.9,26-44.91-26,44.91-26Zm-92.49-1.56-44.91-26,44.91-26,44.91,26Zm-2.7,1.56-44.89,26-44.92-26,44.92-26Zm-92.5-1.56-44.9-26,44.9-26,44.91,26Zm-2.67,1.56-44.91,26-44.91-26,44.91-26Zm-92.5-1.56-44.9-26,44.9-26,44.89,26Zm-2.7,1.56-44.9,26-44.91-26,44.91-26Zm-92.49-1.56-44.9-26,44.9-26,44.89,26Zm-2.7,1.56-44.89,26-44.92-26,44.92-26Zm-92.49-1.56-49.86-28.86,44.9-26,49.86,28.84Zm-2.69,1.56-44.92,26-49.84-28.87,44.89-26Zm-97.46-4.44-44.9-26,44.9-26,44.91,26Zm-2.69,1.56-49.86,28.87-44.91-26,49.87-28.86Zm-97.45,1.32-44.91-26,49.87-28.84,44.89,26Zm-2.7,1.56-44.89,26-44.92-26,44.92-26Zm-92.5-1.56-44.9-26,44.9-26,44.91,26Zm-2.67,1.56-44.92,26-44.9-26,44.9-26Zm-92.52-1.56-44.88-26,44.88-26,44.93,26Zm-2.67,1.56-44.91,26-44.91-26,44.91-26Zm-92.5-1.56-44.92-26,44.92-26,44.89,26Zm-2.7,1.56-44.89,26-44.92-26,44.92-26Zm-92.49-1.56-44.9-26,44.9-26,44.9,26Zm-2.69,1.56-44.92,26-44.88-26,44.88-26Zm-92.5-1.56-44.89-26,44.89-26,44.9,26Zm-2.7,1.56-44.89,26-44.9-26,44.9-26Zm-92.48-1.56-44.91-26,44.91-26,44.89,26Zm-2.7,1.56-44.9,26-44.91-26,44.91-26Zm-92.5-1.56-44.9-26,44.9-26,44.91,26Zm-2.68,1.56-44.91,26-44.9-26,44.9-26Zm-92.5-1.56-44.91-26,44.91-26,44.9,26Zm44.9,29.11-44.9,26-44.91-26,44.91-26Zm0,55.08-44.9,26-44.91-26,44.91-26Zm0,55.11-44.9,26-44.91-26,44.91-26Zm0,55.1-44.9,26-44.91-26,44.91-26Zm0,55.08-44.9,26-44.91-26,44.91-26Zm0,55.11-44.9,26-44.91-26,44.91-26Zm0,55.08-44.9,26-44.91-26,44.91-26Zm0,55.1-48.21,27.9-44.89-26L136.75,190Zm-3.31,57-44.9,26L88.55,273l44.89-26Zm5,58-44.9,26L88.55,328.06l44.89-26Zm0,55.1-44.9,26L93.51,386l44.89-26Zm0,55.1-44.9,26-44.89-26,44.89-26Zm0,55.08-44.9,26-44.89-26,44.89-26Zm0,55.11-44.9,26-44.89-26,44.89-26Zm0,55.09-44.9,26-44.89-26,44.89-26Zm0,55.09-44.9,26-44.89-26,44.89-26Zm0,55.11-44.9,26-44.89-26,44.89-26Zm0,55.09-44.9,26-44.89-26,44.89-26Zm0,55.09-44.9,26-44.89-26,44.89-26Zm0,55.1-44.9,26-44.89-26,44.89-26Zm0,55.09-44.9,26L93.51,937l44.89-26Zm0,55.1-44.9,26-44.89-26,44.89-26Zm0,55.1-44.9,26-44.89-26,44.89-26Zm0,55.09-49.86,28.86-44.89-26,49.85-28.87Zm-5,58-44.9,26-44.89-26,44.89-26Zm3.31,57-44.9,26-48.2-27.9,44.89-26Zm0,55.09-44.9,26-44.91-26,44.91-26Zm0,55.1-44.9,26-44.91-26,44.91-26Zm0,55.1-44.9,26-44.91-26,44.91-26Zm0,55.09-44.9,26-44.91-26,44.91-26Zm0,55.1-44.9,26-44.91-26,44.91-26Zm2.69,1.56,44.91,26-44.91,26-44.9-26Zm2.69-1.56,44.9-26,44.91,26-44.91,26Zm92.5,1.56,44.9,26-44.9,26-44.91-26Zm2.69-1.56,44.91-26,44.89,26-44.89,26Zm92.5,1.56,44.89,26-44.89,26-44.9-26Zm2.68-1.56,44.91-26,44.9,26-44.9,26Zm92.49,1.56,44.92,26-44.92,26-44.88-26Zm2.71-1.56,44.9-26,44.9,26-44.9,26Zm92.5,1.56,44.89,26-44.89,26-44.92-26Zm2.67-1.56,44.92-26,44.89,26-44.89,26Zm92.51,1.56,44.91,26-44.91,26-44.91-26Zm2.7-1.56,44.88-26,44.93,26-44.93,26Zm92.48,1.56,44.92,26-44.92,26-44.9-26Zm2.69-1.56L808,1463.85l44.91,26-49.87,28.86Zm97.46-1.31,44.9,26-49.86,28.85-44.91-26Zm2.68-1.56,44.92-26,44.89,26-44.89,26Zm92.51,1.56,44.9,26-44.9,26-44.91-26Zm2.69-1.56,44.9-26,44.91,26-44.91,26Zm92.49,1.56,44.91,26-44.91,26-44.89-26Zm2.7-1.56,44.9-26,44.9,26-44.9,26Zm92.5,1.56,49.85,28.86-44.89,26-49.87-28.85Zm2.69-1.56,44.9-26,49.85,28.86-44.89,26Zm97.45,4.43,44.9,26-44.9,26-44.91-26Zm2.7-1.56,44.9-26,44.89,26-44.89,26Zm92.49,1.56,44.91,26-44.91,26-44.91-26Zm2.68-1.56,44.9-26,44.91,26-44.91,26Zm92.5,1.56,44.9,26-44.9,26-44.91-26Zm2.69-1.56,44.91-26,44.91,26-44.91,26Zm92.5,1.56,44.9,26-44.9,26-44.91-26Zm2.69-1.56,44.9-26,44.9,26-44.9,26Zm92.5,1.56,44.9,26-44.9,26-44.91-26Zm2.69-1.56,44.9-26,44.9,26-44.9,26Zm92.49,1.56,44.91,26-44.91,26-44.89-26Zm2.7-1.56,44.9-26,44.9,26-44.9,26Zm92.49,1.56,44.9,26-44.9,26-44.9-26Zm-44.9-29.11,44.9-26,44.9,26-44.9,26Zm0-55.1,44.9-26,44.9,26-44.9,26Zm0-55.09,44.9-26,44.9,26-44.9,26Zm0-55.09,44.9-26,44.9,26-44.9,26Zm0-55.11,44.9-26,44.9,26-44.9,26Zm0-55.09,48.2-27.9,44.91,26-48.21,27.9Zm-1.66-59.87,44.9-26,49.87,28.86-44.91,26Zm0-55.1,44.9-26,44.91,26-44.91,26Zm0-55.09,44.9-26,44.91,26-44.91,26Zm0-55.1,44.9-26,44.91,26-44.91,26Zm0-55.09,44.9-26,44.91,26-44.91,26Zm0-55.09,44.9-26,44.91,26-44.91,26Zm0-55.11,44.9-26,44.91,26-44.91,26Zm0-55.09,44.9-26,44.91,26-44.91,26Zm0-55.09,44.9-26,44.91,26-44.91,26Zm0-55.11,44.9-26,44.91,26-44.91,26Zm0-55.08,44.9-26,44.91,26-44.91,26Zm0-55.09,44.9-26,44.91,26-44.91,26Zm0-55.11,44.9-26,44.91,26-44.91,26Zm0-55.09,44.9-26,44.91,26-44.91,26Zm0-55.09,44.9-26,44.91,26-44.91,26Zm0-55.1,49.86-28.87,44.91,26-49.87,28.85Zm1.66-59.88,44.9-26,48.21,27.9-44.91,26Zm0-55.1,44.9-26,44.9,26-44.9,26Zm0-55.08,44.9-26,44.9,26-44.9,26Zm0-55.11,44.9-26,44.9,26-44.9,26ZM1904.93-4.42l-44.89,26-44.9-26,44.9-26Zm0-55.1-44.9,26-44.9-26,44.9-26Zm0-55.11-44.9,26-44.9-26,44.9-26Zm0-55.08-44.9,26-44.9-26,44.9-26Zm0-55.11-44.9,26-44.9-26,44.9-26ZM1860-305.89l44.9,26-44.9,26-44.9-26Zm-2.7,53.52-44.9,26-44.9-26,44.9-26Zm-92.49-53.52,44.9,26-44.9,26-44.9-26Zm-2.69,53.52-44.91,26-44.89-26,44.89-26Zm-92.5-53.52,44.9,26-44.9,26-44.9-26ZM1667-252.37l-44.9,26-44.91-26,44.91-26Zm-92.5-53.52,44.9,26-44.9,26-44.9-26Zm-2.69,53.52-44.9,26-44.91-26,44.91-26Zm-92.49-53.52,44.91,26-44.91,26-44.91-26Zm-2.7,53.52-44.89,26-44.92-26,44.92-26Zm-92.5-53.52,44.91,26-44.91,26-44.9-26Zm-2.67,53.52-44.91,26-44.91-26,44.91-26Zm-92.5-53.52,44.89,26-44.89,26-44.9-26Zm-2.7,53.52-44.9,26-44.91-26,44.91-26Zm-97.45-56.4,49.85,28.87-44.89,26-49.86-28.84Zm2.26,56.4-44.89,26-49.87-28.86,44.91-26Zm-97.45-56.4,44.9,26-44.9,26-44.9-26Zm-2.69,53.55-44.91,26-44.89-26,44.89-26Zm-92.5-53.55,44.91,26-44.91,26-44.9-26Zm-2.69,53.55-44.9,26-44.91-26,44.91-26Zm-92.49-53.55,44.89,26-44.89,26-44.92-26Zm-2.7,53.55-49.85,28.86-44.92-26,49.87-28.84ZM808-308.77l44.91,26-49.87,28.84-44.9-26Zm-7.63,56.4-44.92,26-44.9-26,44.9-26Zm-92.52-53.52,44.93,26-44.93,26L663-279.9Zm-2.67,53.52-44.91,26-44.91-26,44.91-26Zm-92.5-53.52,44.89,26-44.89,26-44.92-26ZM610-252.37l-44.89,26-44.92-26,44.92-26ZM517.5-305.89l44.9,26-44.9,26-44.9-26Zm-2.69,53.52-44.92,26-44.88-26,44.88-26Zm-92.5-53.52,44.9,26-44.9,26-44.89-26Zm-2.7,53.52-44.89,26-44.9-26,44.9-26Zm-92.48-53.52,44.89,26-44.89,26-44.91-26Zm-2.7,53.52-44.9,26-44.91-26,44.91-26Zm-92.5-53.52,44.91,26-44.91,26-44.9-26Zm-2.68,53.52-44.91,26-44.9-26,44.9-26Zm-92.5-53.52,44.9,26-44.9,26-44.91-26Zm-92.5,53.52,44.9-26,44.9,26-44.9,26Zm0,55.11,44.9-26,44.9,26-44.9,26Zm0,55.1,44.9-26,44.9,26-44.9,26Zm0,55.08,44.9-26,44.9,26-44.9,26Zm0,55.11,44.9-26,44.9,26L89.15-6Zm0,55.08,44.9-26,44.9,26-44.9,26Zm0,55.1,44.9-26,44.9,26-44.9,26Zm0,55.11,44.9-26,44.9,26-44.9,26Zm-3.3,57,48.2-27.91,44.9,26-48.2,27.9Zm0,55.09,44.9-26,44.89,26-44.89,26Zm0,55.1,44.9-26,44.89,26-44.89,26Zm0,55.09,44.9-26,49.84,28.86-44.88,26Zm5,58,44.9-26,44.88,26-44.88,26Zm0,55.09,44.9-26,44.88,26-44.88,26Zm0,55.11,44.9-26,44.88,26-44.88,26Zm0,55.09,44.9-26,44.88,26-44.88,26Zm0,55.08,44.9-26,44.88,26L90.81,660Zm0,55.11,44.9-26,44.88,26L90.81,715Zm0,55.09,44.9-26,44.88,26-44.88,26Zm0,55.09,44.9-26,44.88,26-44.88,26Zm0,55.11,44.9-26,44.88,26-44.88,26Zm0,55.09,44.9-26,44.88,26-44.88,26Zm0,55.09,44.9-26,44.88,26-44.88,26Zm0,55.1,44.9-26,44.88,26-44.88,26Zm-5,58,49.86-28.86,44.88,26-49.84,28.86Zm0,55.1,44.9-26,44.89,26-44.89,26Zm0,55.09,44.9-26,44.89,26-44.89,26Zm0,55.1,44.9-26,48.2,27.89-44.9,26Zm3.3,57,44.9-26,44.9,26-44.9,26Zm0,55.09,44.9-26,44.9,26-44.9,26Zm0,55.09,44.9-26,44.9,26-44.9,26Zm0,55.1,44.9-26,44.9,26-44.9,26Zm0,55.1,44.9-26,44.9,26-44.9,26Zm44.9,81.08-44.9-26,44.9-26,44.9,26Zm2.69-53.54,44.91-26,44.9,26-44.9,26Zm92.5,53.54-44.9-26,44.9-26,44.91,26ZM187,1547.8l44.9-26,44.91,26-44.91,26Zm92.5,53.54-44.91-26,44.91-26,44.9,26Zm2.69-53.54,44.91-26,44.89,26-44.89,26Zm92.5,53.54-44.9-26,44.9-26,44.89,26Zm2.68-53.54,44.91-26,44.9,26-44.9,26Zm92.49,53.54-44.88-26,44.88-26,44.92,26Zm2.71-53.54,44.9-26,44.9,26-44.9,26Zm92.5,53.54-44.92-26,44.92-26,44.89,26Zm2.67-53.54,44.92-26,44.89,26-44.89,26Zm92.51,53.54-44.91-26,44.91-26,44.91,26Zm2.7-53.54,44.88-26,44.93,26-44.93,26Zm92.48,53.54-44.9-26,44.9-26,44.92,26Zm2.69-53.54,44.9-26,44.91,26-44.91,26Zm92.5,53.54-44.91-26,44.91-26,44.9,26Zm2.69-53.54L903.21,1519l44.89,26-49.85,28.85Zm92.5,53.54-44.91-26,49.87-28.85,44.9,26Zm7.65-56.4,44.9-26,44.91,26-44.91,26Zm97.44,56.4-49.84-28.85,44.89-26,49.87,28.85Zm-2.25-56.4,44.9-26,49.86,28.85-44.9,26Zm97.46,56.4-44.92-26,44.92-26,44.89,26Zm2.67-53.54,44.92-26,44.89,26-44.89,26Zm92.51,53.54-44.91-26,44.91-26,44.9,26Zm2.7-53.54,44.9-26,44.89,26-44.89,26Zm92.49,53.54-44.91-26,44.91-26,44.91,26Zm2.68-53.54,44.9-26,44.91,26-44.91,26Zm92.5,53.54-44.91-26,44.91-26,44.9,26Zm2.69-53.54,44.91-26,44.91,26-44.91,26Zm92.5,53.54-44.91-26,44.91-26,44.9,26Zm2.69-53.54,44.9-26,44.9,26-44.9,26Zm92.5,53.54-44.91-26,44.91-26,44.9,26Zm2.69-53.54,44.9-26,44.9,26-44.9,26Zm92.49,53.54-44.89-26,44.89-26,44.91,26Zm2.7-53.54,44.9-26,44.9,26-44.9,26Zm92.49,53.54-44.9-26,44.9-26,44.9,26Zm92.49-53.54-44.89,26-44.9-26,44.9-26Zm0-55.09-44.89,26-44.9-26,44.9-26Zm0-55.1-44.89,26-44.9-26,44.9-26Zm0-55.09-44.89,26-44.9-26,44.9-26Zm0-55.1-44.89,26-44.9-26,44.9-26Zm0-55.1-44.89,26-44.9-26,44.9-26Zm3.31-57-48.2,27.9-44.9-26,48.2-27.9Zm0-55.1-44.9,26-44.9-26,44.9-26Zm0-55.08-44.9,26-49.86-28.86,44.89-26Zm-4.94-58-44.93,26-44.89-26,44.89-26Zm0-55.1-44.93,26-44.89-26,44.89-26Zm0-55.1-44.93,26-44.89-26,44.89-26Zm0-55.09-44.93,26-44.89-26,44.89-26Zm0-55.1-44.93,26-44.89-26,44.89-26Zm0-55.09-44.93,26-44.89-26,44.89-26Zm0-55.09-44.93,26-44.89-26,44.89-26Zm0-55.09-44.93,26-44.89-26,44.89-26Zm0-55.11-44.93,26-44.89-26,44.89-26Zm0-55.09-44.93,26-44.89-26,44.89-26Zm0-55.11-44.93,26-44.89-26,44.89-26Zm0-55.08-44.93,26-44.89-26,44.89-26Zm0-55.1-44.93,26-44.89-26,44.89-26Zm4.94-58-49.87,28.86-44.89-26,49.86-28.86Zm0-55.11-44.9,26-44.9-26,44.9-26Zm0-55.08-44.9,26-48.2-27.9,44.9-26Zm-3.31-57-44.89,26-44.9-26,44.9-26ZM1860,131.75l-44.9-26,44.9-26,44.89,26Z"/></g></g><polygon class="cls-2" points="690.91 757.96 697.02 757.38 696.21 756.9 690.09 757.48 690.91 757.96"/><path class="cls-2" d="M690.09,757.48l6.12-.58a53,53,0,0,0-5.32-2.7l-5.24,1a47.26,47.26,0,0,1,4.44,2.25Z"/><path class="cls-2" d="M685.65,755.23l5.24-1c-13.13-5.79-30.38-7.69-46.52-4.93-72.84,12.43-135.14,33.59-184.67,62.19l6.06.58c48.48-28,111.52-48.52,181-60.93,13.49-2.3,27.92-.72,38.88,4.12Z"/><path class="cls-8" d="M351.09,924.77l0,12.83c0,7.88,5.34,15.58,15.22,21.31l0-12.83c-9.89-5.73-15.2-13.43-15.23-21.31Z"/><path class="cls-2" d="M465.76,812l-6.06-.58a322.51,322.51,0,0,0-58.91,43l7.4.09A307.82,307.82,0,0,1,465.76,812Z"/><path class="cls-2" d="M408.19,854.56l-7.4-.09c-19.93,18.58-36,39.09-47.8,61.33-5.67,10.71-.73,22.37,12.88,30.28l6.1-6.47c-11.37-6.61-15.5-16.35-10.76-25.31a248.77,248.77,0,0,1,47-59.74Z"/><polygon class="cls-8" points="366.32 946.08 366.35 958.91 367.5 959.57 367.46 946.75 366.32 946.08"/><polygon class="cls-2" points="371.97 939.61 365.87 946.08 367.02 946.75 373.12 940.28 371.97 939.61"/><path class="cls-9" d="M465.76,812C418.22,839.49,383,875.11,361.21,914.3c-4.74,9-.61,18.7,10.76,25.31l1.15.67c17.69,10.29,45.35,9.43,61.8-.06a30.78,30.78,0,0,0,9.56-8.23c22.11-31.22,53.19-56.87,91.62-79.06,39.2-22.63,84.63-40.82,139.93-53.57a54.61,54.61,0,0,0,14.55-5.59c16.44-9.5,18.08-25.51.33-35.81l-.82-.48c-11.3-6.56-27.91-9-43.32-6.37C577.28,763.52,514.24,784.05,465.76,812Z"/><path class="cls-8" d="M367.47,946.75l0,12.82c21.27,12.34,54.42,11.3,74.11-.05A36.81,36.81,0,0,0,453,949.7C475,920,505.27,894,543,872.23c38.45-22.16,84.6-39.86,137.38-52.49a65.66,65.66,0,0,0,17.38-6.67c10.15-5.85,15.59-13.77,15.57-21.77l0-12.83c0,8-5.42,15.92-15.57,21.77a65.18,65.18,0,0,1-17.38,6.67c-52.78,12.63-98.93,30.33-137.37,52.49-37.71,21.73-68,47.74-89.93,77.48a37,37,0,0,1-11.43,9.81c-19.7,11.35-52.85,12.39-74.11.06Z"/><path class="cls-2" d="M373.12,940.28l-6.1,6.47a61.13,61.13,0,0,0,13.66,5.73l3.83-7.42a50.24,50.24,0,0,1-11.39-4.78Z"/><path class="cls-2" d="M384.51,945.06l-3.83,7.42c19.38,5.61,42.94,3.48,58.77-4.93l-5.83-6.61c-13.24,7-32.93,8.81-49.11,4.12Z"/><path class="cls-2" d="M433.62,940.94l5.83,6.61,1.55-.86a36.84,36.84,0,0,0,11.41-9.81c21.88-29.74,52.13-55.75,89.77-77.48q6.55-3.79,13.41-7.4l-5.84-6.63q-6.94,3.69-13.65,7.56c-38.43,22.19-69.51,47.84-91.62,79.06a30.78,30.78,0,0,1-9.56,8.23c-.42.25-.86.49-1.3.72Z"/><path class="cls-2" d="M549.75,845.37l5.84,6.63c35.55-18.73,77-33.9,123.72-45.09a67.25,67.25,0,0,0,15.76-5.79l-5.82-6.61A56.43,56.43,0,0,1,676,799.36c-49,11.3-90.25,26.87-126.28,46Z"/><path class="cls-2" d="M689.25,794.51l5.82,6.61c.54-.29,1.07-.58,1.59-.88,19.65-11.34,21.63-30.51.37-42.86l-6.12.58c17.75,10.3,16.11,26.31-.33,35.81-.43.25-.87.5-1.33.74Z"/><polygon class="cls-9" points="442.9 849.29 427.19 840.13 466.37 618.01 482.08 627.16 442.9 849.29"/><polygon class="cls-10" points="482.08 627.16 466.37 618.01 577.98 553.87 593.68 563.03 482.08 627.16"/><polygon class="cls-8" points="593.68 563.03 554.5 785.15 442.9 849.29 482.08 627.16 593.68 563.03"/><path id="SVGID-4" data-name="SVGID" class="cls-2" d="M852.82,66.18,833.61,55.13c-2.93-1.7-7-1.46-11.49,1.13l19.21,11.05C845.82,64.72,849.89,64.48,852.82,66.18Z"/><g class="cls-11"><path class="cls-2" d="M852.82,66.18,833.61,55.13c-2.93-1.7-7-1.46-11.49,1.13l19.21,11.05c4.49-2.59,8.56-2.83,11.49-1.13Z"/></g><path class="cls-2" d="M138.68,938.17l-19.25-11.06c0,5.09,1.82,8.67,4.72,10.36l19.24,11c-2.9-1.68-4.7-5.26-4.71-10.35Z"/><polygon class="cls-2" points="137.41 492.29 118.17 481.24 119.43 927.11 138.68 938.17 137.41 492.29"/><polygon class="cls-9" points="841.33 67.31 822.12 56.26 134.25 453.4 153.47 464.45 841.33 67.31"/><path id="SVGID-5" data-name="SVGID" class="cls-2" d="M153.47,464.45,134.25,453.4c-8.91,5.15-16.11,17.62-16.09,27.84l19.22,11.05C137.35,482.07,144.55,469.6,153.47,464.45Z"/><g class="cls-12"><path class="cls-2" d="M153.47,464.45,134.25,453.4c-8.91,5.15-16.11,17.62-16.09,27.84l19.22,11.05c0-10.22,7.17-22.69,16.09-27.84Z"/></g><path class="cls-13" d="M153.47,464.45c-8.92,5.15-16.12,17.62-16.09,27.84l1.26,445.88c0,10.24,7.28,14.37,16.19,9.22L842.7,550.25c8.92-5.15,16.12-17.62,16.09-27.86L857.52,76.51c0-10.22-7.27-14.35-16.19-9.2Z"/><path class="cls-2" d="M150.59,492.25l1.22,435,0,6.64L836.08,538.8c4.81-2.75,9.51-10.87,9.49-16.36l-1.24-441.6-5.58,3.23L160.08,475.89C155.27,478.67,150.56,486.76,150.59,492.25Z"/><path class="cls-8" d="M150.22,492.25l1.22,435,678.7-391.85c4.78-2.77,9.48-10.89,9.46-16.39l-1.22-434.9L159.71,475.89C154.9,478.67,150.2,486.76,150.22,492.25Z"/><polygon class="cls-14" points="816.11 136.06 709.66 197.51 709.66 180.02 816.11 118.57 816.11 136.06"/><polygon class="cls-14" points="687.67 210.06 581.23 271.52 581.23 254.03 687.67 192.57 687.67 210.06"/><polygon class="cls-14" points="214.62 795.1 189.25 809.75 189.25 797.86 214.62 783.22 214.62 795.1"/><polygon class="cls-14" points="250.26 774.53 224.89 789.17 224.89 777.29 250.26 762.64 250.26 774.53"/><polygon class="cls-14" points="214.63 818.15 189.25 832.79 189.25 820.91 214.62 806.26 214.63 818.15"/><polygon class="cls-14" points="250.26 797.57 224.89 812.22 224.89 800.33 250.26 785.68 250.26 797.57"/><polygon class="cls-14" points="214.63 841.19 189.25 855.84 189.25 843.95 214.63 829.3 214.63 841.19"/><polygon class="cls-14" points="250.26 820.61 224.89 835.26 224.89 823.37 250.26 808.73 250.26 820.61"/><polygon class="cls-14" points="214.63 864.23 189.25 878.88 189.25 866.99 214.63 852.35 214.63 864.23"/><polygon class="cls-14" points="250.26 843.66 224.89 858.3 224.89 846.42 250.26 831.77 250.26 843.66"/><polygon class="cls-14" points="799.35 425.18 718.23 472.01 718.23 489.83 799.35 442.99 799.35 425.18"/><polygon class="cls-14" points="770.34 485.5 749.69 497.42 749.69 487.74 770.34 475.82 770.34 485.5"/><polygon class="cls-14" points="799.35 468.75 778.7 480.67 778.7 470.99 799.35 459.07 799.35 468.75"/><polygon class="cls-14" points="770.34 504.25 749.69 516.18 749.69 506.5 770.34 494.57 770.34 504.25"/><polygon class="cls-14" points="799.35 487.5 778.7 499.43 778.7 489.75 799.35 477.83 799.35 487.5"/><polygon class="cls-14" points="770.34 523.01 749.69 534.93 749.69 525.26 770.34 513.33 770.34 523.01"/><polygon class="cls-14" points="799.35 506.26 778.7 518.18 778.7 508.51 799.35 496.58 799.35 506.26"/><polygon class="cls-14" points="770.34 541.77 749.69 553.69 749.69 544.01 770.34 532.09 770.34 541.77"/><polygon class="cls-14" points="799.35 525.02 778.7 536.94 778.7 527.26 799.35 515.34 799.35 525.02"/><text class="cls-15" transform="matrix(0.52, -0.3, 0, 0.58, 205.66, 666.26)">3</text><text class="cls-15" transform="matrix(0.9, -0.52, 0, 1, 259.56, 695.2)">64 = 4</text><ellipse class="cls-14" cx="177.01" cy="495.95" rx="13.77" ry="7.95" transform="matrix(0.51, -0.86, 0.86, 0.51, -340.4, 398.01)"/><ellipse class="cls-14" cx="209.58" cy="477.14" rx="13.77" ry="7.95" transform="translate(-308.06 416.82) rotate(-59.64)"/><ellipse class="cls-14" cx="242.16" cy="458.34" rx="13.77" ry="7.95" transform="translate(-275.72 435.62) rotate(-59.64)"/><g class="cls-16"><ellipse class="cls-17" cx="1339.22" cy="955.8" rx="92.24" ry="189.49" transform="translate(380.64 2293.03) rotate(-89.88)"/></g><path class="cls-18" d="M1475.33,856.45c0,.71-.08,1.41-.15,2.11s-.15,1.24-.23,1.85-.2,1.4-.33,2.1-.25,1.24-.39,1.86-.31,1.36-.5,2-.35,1.23-.54,1.85-.43,1.35-.67,2-.45,1.21-.69,1.81-.58,1.42-.89,2.13-.54,1.18-.83,1.77-.71,1.41-1.09,2.11-.8,1.5-1.25,2.24l-.3.51c-.65,1.07-1.35,2.14-2.08,3.19l-.42.6c-.74,1.05-1.52,2.1-2.35,3.14l-.48.58c-.73.9-1.49,1.8-2.28,2.68l-.65.73c-.94,1-1.91,2-2.93,3.05l-.57.54c-.77.75-1.58,1.49-2.4,2.23-.66.6-1.34,1.18-2,1.77s-1.27,1.08-1.93,1.61-1.45,1.15-2.2,1.72-1.38,1-2.09,1.57-1.57,1.11-2.37,1.66-1.48,1-2.24,1.52-1.69,1.08-2.55,1.61c-1.07.67-2.13,1.34-3.25,2-2.09,1.22-4.26,2.38-6.46,3.5l-1.9,1q-2.57,1.28-5.22,2.46c-.59.26-1.17.54-1.77.79-2.29,1-4.62,2-7,2.86-.41.16-.84.3-1.26.46-2,.74-4,1.46-6.1,2.14l-2.53.82c-1.14.36-2.28.7-3.43,1l-2.9.83-3.5.94-2.94.74c-1.19.29-2.39.56-3.59.83l-3,.65c-1.21.25-2.44.49-3.67.72l-2.83.53c-2.63.46-5.27.89-7.93,1.26-.38.06-.77.1-1.15.15q-3.46.46-7,.83c-.89.1-1.78.18-2.68.26-1.5.14-3,.27-4.51.38l-2.84.2c-1.57.09-3.15.17-4.72.23l-2.67.12c-1.36,0-2.73.06-4.09.07-1,0-1.92,0-2.88,0-1.46,0-2.91,0-4.37,0-.87,0-1.74,0-2.61,0-1.34,0-2.67-.1-4-.15l-2.81-.12c-1.45-.08-2.89-.19-4.33-.29-.83-.06-1.65-.11-2.47-.18-1.76-.14-3.51-.32-5.26-.51l-1.49-.14c-2.25-.25-4.48-.54-6.71-.85l-1.09-.17c-1.9-.28-3.8-.57-5.69-.9-.79-.13-1.58-.29-2.36-.44-1.46-.27-2.91-.53-4.35-.83-.75-.15-1.49-.32-2.24-.49-1.58-.34-3.16-.69-4.72-1.06-.88-.21-1.74-.44-2.61-.66-1.42-.36-2.84-.73-4.25-1.12l-2.4-.69c-2.24-.65-4.45-1.33-6.63-2.06l-1.17-.38c-2.52-.85-5-1.76-7.42-2.71-1-.39-2-.79-3-1.19-.78-.32-1.56-.63-2.32-1-1.11-.48-2.19-1-3.28-1.47l-2.12-1c-1.19-.56-2.35-1.15-3.51-1.74l-1.72-.86c-1.71-.9-3.4-1.82-5.06-2.78-17.29-10-29.18-21.92-35.64-34.58a50.67,50.67,0,0,1-5.79-23.3l-.1,72.76c-.06,20.94,13.76,41.91,41.43,57.88,1.65,1,3.34,1.88,5.06,2.78.57.3,1.16.58,1.73.87,1.16.59,2.32,1.17,3.5,1.74.7.33,1.42.65,2.13,1,1.08.49,2.16,1,3.26,1.46.77.33,1.56.65,2.34,1s1.48.63,2.23.92c.23.1.48.17.71.26q3.66,1.43,7.42,2.72l1.18.37c2.18.73,4.4,1.41,6.63,2.07.37.1.73.23,1.1.34l1.29.34c1.42.39,2.84.76,4.27,1.13l2.59.65c1.57.38,3.14.73,4.73,1.07.59.12,1.17.27,1.76.4.16,0,.32,0,.48.09,1.44.29,2.88.56,4.33.82.79.15,1.58.31,2.38.45,1.89.32,3.79.61,5.69.89l1,.17h0q3.33.48,6.71.85c.49.06,1,.1,1.5.15,1.74.18,3.49.36,5.25.51h.13c.78.07,1.57.1,2.36.16,1.43.11,2.87.22,4.31.29.94.06,1.88.08,2.81.12,1.34.06,2.68.12,4,.16h.32c.75,0,1.5,0,2.25,0,1.47,0,2.94,0,4.4,0,1,0,1.91,0,2.87,0,1.37,0,2.73,0,4.1-.08l.76,0,1.9-.09c1.58-.07,3.15-.14,4.73-.24l2.84-.2c1.5-.11,3-.23,4.51-.37l1.58-.13c.37,0,.73-.1,1.1-.13,2.34-.25,4.66-.52,7-.84l1.14-.14c2.67-.38,5.31-.8,7.94-1.27.25,0,.5-.07.74-.12.7-.12,1.39-.27,2.09-.41,1.23-.23,2.45-.47,3.67-.72l3-.65c1.19-.27,2.39-.54,3.57-.83l3-.74q1.76-.45,3.48-.93c1-.27,2-.55,2.92-.84,1.14-.34,2.28-.68,3.41-1,.49-.15,1-.29,1.49-.45l1.06-.37c2.05-.68,4.07-1.39,6.08-2.13l1.27-.47c2.38-.9,4.71-1.86,7-2.85l1.78-.8q2.64-1.18,5.2-2.45c.64-.32,1.28-.63,1.91-1,2.2-1.12,4.36-2.28,6.46-3.5.58-.33,1.15-.67,1.72-1s1-.65,1.53-1c.86-.54,1.72-1.07,2.55-1.62s1.5-1,2.24-1.51,1.6-1.11,2.37-1.67,1.4-1,2.09-1.57,1.48-1.14,2.2-1.72,1.3-1.07,1.93-1.61,1.37-1.17,2-1.76c.27-.25.56-.49.83-.73.54-.5,1-1,1.57-1.5l.57-.55c1-1,2-2,2.93-3.05l.65-.73c.79-.88,1.55-1.78,2.28-2.68.16-.19.33-.38.48-.58l.22-.27c.75-.95,1.45-1.91,2.13-2.87l.42-.59c.73-1.06,1.43-2.12,2.08-3.19.1-.18.2-.35.31-.52.24-.41.48-.81.71-1.22s.35-.68.53-1c.38-.7.74-1.4,1.09-2.1s.56-1.18.82-1.78.62-1.41.9-2.12c.13-.32.28-.64.4-1s.18-.57.29-.85c.24-.68.46-1.36.67-2s.37-1.23.54-1.85.35-1.37.5-2c.08-.37.19-.74.27-1.11s.07-.49.12-.74c.13-.7.23-1.41.33-2.11s.17-1.23.23-1.84.11-1.41.15-2.12c0-.41.08-.83.09-1.24s0-.82,0-1.23l.1-72.76C1475.44,854.8,1475.38,855.63,1475.33,856.45Z"/><ellipse class="cls-8" cx="1335.09" cy="853.58" rx="81.29" ry="140.35" transform="translate(477.73 2186.24) rotate(-89.84)"/><path class="cls-18" d="M1454.35,800.08c0,.6-.07,1.2-.13,1.8s-.12,1-.2,1.57-.17,1.19-.28,1.78-.21,1.06-.33,1.58-.27,1.16-.42,1.74-.3,1.05-.46,1.58-.37,1.15-.57,1.72-.38,1-.59,1.55-.49,1.2-.76,1.8-.46,1-.7,1.51-.6,1.2-.92,1.79-.69,1.27-1.07,1.9l-.25.44c-.56.91-1.15,1.82-1.77,2.71l-.36.51c-.63.9-1.29,1.79-2,2.67-.14.16-.28.33-.41.5-.62.76-1.27,1.52-1.94,2.27-.19.21-.37.42-.56.62-.79.87-1.62,1.74-2.49,2.59-.15.16-.32.31-.48.47-.66.63-1.35,1.26-2,1.89s-1.14,1-1.72,1.5-1.09.92-1.65,1.37-1.23,1-1.87,1.47-1.17.89-1.77,1.33l-2,1.41c-.62.44-1.25.87-1.9,1.29s-1.44.92-2.17,1.37c-.91.57-1.81,1.14-2.76,1.69-1.78,1-3.63,2-5.49,3l-1.62.81c-1.46.72-2.93,1.41-4.43,2.09l-1.51.67q-2.92,1.28-6,2.43c-.35.14-.72.26-1.07.39q-2.57.95-5.19,1.82l-2.15.7-2.91.88L1387,860c-1,.27-2,.54-3,.79-.84.22-1.67.43-2.51.63-1,.25-2,.48-3,.71l-2.52.55c-1,.22-2.08.42-3.12.62l-2.4.44q-3.36.6-6.75,1.08c-.32.05-.65.08-1,.12-2,.27-4,.5-5.94.71l-2.28.23c-1.27.11-2.55.22-3.83.31l-2.42.17c-1.33.08-2.67.15-4,.2l-2.27.1-3.48.07-2.44,0c-1.24,0-2.48,0-3.72,0l-2.21,0c-1.14,0-2.28-.08-3.42-.13l-2.38-.1c-1.23-.07-2.46-.16-3.69-.25-.7-.05-1.4-.09-2.09-.15-1.5-.12-3-.27-4.48-.43l-1.26-.13q-2.87-.32-5.71-.72l-.92-.14c-1.62-.24-3.24-.49-4.84-.76l-2-.38c-1.23-.23-2.47-.45-3.69-.7-.64-.13-1.27-.28-1.91-.42-1.34-.29-2.68-.59-4-.91-.75-.17-1.48-.36-2.22-.55-1.21-.31-2.42-.63-3.61-1l-2-.58q-2.85-.84-5.64-1.75c-.33-.11-.67-.21-1-.33q-3.2-1.08-6.3-2.3c-.85-.33-1.68-.67-2.52-1l-2-.82c-.94-.4-1.86-.83-2.78-1.25l-1.81-.82c-1-.48-2-1-3-1.48-.48-.25-1-.48-1.45-.73-1.46-.77-2.9-1.55-4.31-2.37-14.7-8.48-24.8-18.63-30.29-29.39a43,43,0,0,1-4.92-19.81l-.09,38.58c0,17.8,11.7,35.63,35.22,49.21,1.4.81,2.84,1.59,4.3,2.36l1.47.74c1,.49,2,1,3,1.47l1.82.83c.92.42,1.83.84,2.77,1.24.65.28,1.32.55,2,.82s1.25.54,1.89.79l.61.22q3.1,1.22,6.31,2.31l1,.32c1.86.61,3.74,1.2,5.64,1.75l.94.29,1.1.29c1.2.33,2.41.65,3.62,1,.74.19,1.47.38,2.21.55,1.33.32,2.67.62,4,.91.51.11,1,.24,1.5.34l.41.08c1.22.25,2.45.47,3.68.7l2,.38c1.61.27,3.22.52,4.84.76l.88.14h0q2.83.4,5.7.73l1.27.12c1.49.16,3,.31,4.47.43h.11c.67.06,1.34.09,2,.14,1.23.09,2.45.18,3.67.25l2.39.1c1.14,0,2.28.1,3.41.13h.28c.64,0,1.28,0,1.91,0,1.25,0,2.5,0,3.75,0l2.43,0,3.49-.07h.64l1.62-.09c1.34,0,2.68-.12,4-.2l2.41-.17c1.28-.09,2.56-.2,3.84-.31.45-.05.9-.07,1.34-.12l.94-.11c2-.2,4-.44,5.93-.7l1-.13c2.27-.32,4.51-.68,6.75-1.07l.63-.11c.6-.1,1.18-.23,1.77-.34,1-.2,2.09-.4,3.12-.62l2.53-.55,3-.7,2.52-.64c1-.25,2-.52,3-.79l2.48-.71,2.9-.88c.42-.13.85-.25,1.27-.39l.89-.31c1.74-.58,3.47-1.18,5.17-1.82.36-.13.73-.25,1.09-.39q3-1.15,5.94-2.43l1.51-.67c1.5-.68,3-1.37,4.43-2.09.54-.27,1.09-.53,1.62-.81,1.87-1,3.71-1.94,5.49-3l1.46-.86c.45-.27.87-.55,1.31-.82.73-.46,1.46-.91,2.16-1.38s1.28-.85,1.91-1.28,1.36-.94,2-1.42,1.19-.89,1.78-1.33,1.26-1,1.87-1.47,1.1-.9,1.64-1.36,1.16-1,1.72-1.51l.71-.61c.46-.43.89-.86,1.33-1.28l.49-.47c.86-.85,1.69-1.71,2.49-2.59l.55-.62c.67-.75,1.32-1.51,1.94-2.28.14-.16.28-.32.41-.49l.19-.23c.63-.81,1.23-1.62,1.81-2.44l.35-.51c.63-.89,1.22-1.8,1.77-2.71.09-.14.17-.29.26-.44.21-.34.42-.68.61-1s.29-.58.45-.87c.32-.59.63-1.19.92-1.79s.48-1,.71-1.5.52-1.21.76-1.81c.11-.27.24-.54.34-.81s.15-.49.24-.73c.2-.58.39-1.15.57-1.73s.32-1.05.46-1.58.3-1.16.43-1.74c.07-.31.16-.62.23-.94s.06-.42.1-.63c.11-.6.19-1.2.28-1.79s.14-1,.19-1.57.1-1.2.13-1.8c0-.35.07-.7.08-1s0-.7,0-1.05l.09-38.58C1454.44,798.68,1454.39,799.38,1454.35,800.08Z"/><ellipse class="cls-8" cx="1335.13" cy="797.64" rx="69.11" ry="119.31" transform="translate(533.71 2130.5) rotate(-89.84)"/><path class="cls-19" d="M1330.09,500.54c-202.69,0-308.87,44.48-308.87,44.48l279,273.13h73L1624.87,544.4S1532.77,500.54,1330.09,500.54Z"/><ellipse class="cls-9" cx="1335.13" cy="797.64" rx="28.22" ry="48.72" transform="translate(533.71 2130.51) rotate(-89.84)"/><line class="cls-20" x1="1323.66" y1="25.65" x2="1323.66" y2="181.8"/><polygon class="cls-8" points="1625.25 279.99 1325.72 454.06 1024.23 279.99 1323.76 105.92 1625.25 279.99"/><polygon class="cls-21" points="1625.63 280.12 1624.87 544.4 1325.34 718.47 1326.1 453.92 1326.33 454.05 1625.63 280.12"/><polygon class="cls-18" points="1326.1 453.92 1325.34 718.47 1023.85 544.4 1024.84 279.99 1326.1 453.92"/><g class="cls-22"><polygon class="cls-8" points="1667.38 1.02 1667.14 1.16 1667.14 0.89 1667.38 1.02"/></g><polygon class="cls-23" points="1625.25 199.72 1325.72 373.79 1024.23 199.72 1323.76 25.65 1625.25 199.72"/><g class="cls-24"><polygon class="cls-4" points="1625.75 198.4 1624.75 544.4 1325.22 718.47 1326.22 372.47 1625.75 198.4"/></g><g class="cls-24"><polygon class="cls-4" points="1326.22 372.47 1325.22 718.47 1023.73 544.4 1024.72 198.41 1326.22 372.47"/></g><polygon class="cls-20" points="1024.72 198.41 1326.22 372.47 1625.75 198.4 1323.76 24.34 1024.72 198.41"/><polygon class="cls-20" points="1326.22 372.47 1325.22 718.47 1624.75 544.4 1625.75 198.4 1326.22 372.47"/><polygon class="cls-20" points="1023.73 544.4 1325.22 718.47 1326.22 372.47 1024.72 198.41 1023.73 544.4"/><path class="cls-9" d="M1746.69,215.73V526.08a2.57,2.57,0,0,1-2.79,2.56,2.68,2.68,0,0,1-2.33-2.74V215.73Z"/><polygon class="cls-9" points="1743.81 200.01 1729.72 236.12 1743.81 227.9 1757.89 236.12 1743.81 200.01"/><polygon class="cls-9" points="1743.81 541.59 1729.72 505.48 1743.81 513.7 1757.89 505.48 1743.81 541.59"/><path class="cls-9" d="M1754,199.11H1645.84a2.57,2.57,0,1,1,0-5.14H1754a2.57,2.57,0,0,1,0,5.14Z"/><path class="cls-9" d="M1752.55,546.08H1643.44a2.57,2.57,0,0,1,0-5.14h109.11a2.57,2.57,0,0,1,0,5.14Z"/><text class="cls-25" transform="translate(1763.35 401.57) scale(1.03 1)">64</text><polygon class="cls-26" points="1012.55 770.02 1012.55 772.17 982.7 755.12 982.69 752.97 1012.55 770.02"/><polygon class="cls-27" points="982.69 752.97 982.7 755.12 947.07 776.04 947.07 773.89 982.69 752.97"/><g class="cls-3"><g class="cls-28"><g class="cls-3"><path class="cls-29" d="M960.18,783.83V786a1.1,1.1,0,0,0-.65-.89,2.23,2.23,0,0,0-.31-.15v-2.15a1.77,1.77,0,0,1,.31.15,1.09,1.09,0,0,1,.65.89Z"/><path class="cls-30" d="M959.22,782.79v2.15l-.27-.09V782.7l.27.09Z"/><path class="cls-31" d="M959,782.7v2.15l-.22-.05v-2.15l.23.05Z"/><path class="cls-32" d="M958.72,782.65v2.15l-.22,0v-2.15l.22,0Z"/><path class="cls-33" d="M958.5,782.61v2.15l-.22,0v-2.15l.21,0Z"/><path class="cls-34" d="M958.29,782.59v2.15h-.21v-2.16l.21,0Z"/><path class="cls-35" d="M958.08,782.57v2.16h-.22v-2.15Z"/><path class="cls-36" d="M957.85,782.58v2.15l-.24,0V782.6l.24,0Z"/><path class="cls-37" d="M957.61,782.6v2.15l-.28,0v-2.14a1.45,1.45,0,0,1,.28,0Z"/><path class="cls-38" d="M957.33,782.64v2.14l-.41.11v-2.15a2.6,2.6,0,0,1,.4-.1Z"/><path class="cls-39" d="M956.93,782.74v2.15a3.48,3.48,0,0,0-.48.21l0,0V783h0a2.32,2.32,0,0,1,.48-.21Z"/><path class="cls-38" d="M956.43,783v2.16a1.55,1.55,0,0,0-.28.2v-2.15a2.27,2.27,0,0,1,.28-.21Z"/><path class="cls-37" d="M956.15,783.17v2.15l-.13.15v-2.16l.13-.14Z"/><path class="cls-36" d="M956,783.31v2.16l-.09.13v-2.15a.55.55,0,0,1,.09-.14Z"/><path class="cls-35" d="M955.93,783.45v2.15a.61.61,0,0,0,0,.12v-2.15l.06-.12Z"/><path class="cls-34" d="M955.87,783.57v2.15a.56.56,0,0,0,0,.12v-2.15a.53.53,0,0,1,0-.12Z"/><path class="cls-33" d="M955.84,783.69v2.15a.62.62,0,0,0,0,.13v-2.15s0-.09,0-.13Z"/><path class="cls-32" d="M955.82,783.82v0Z"/></g></g></g><g class="cls-3"><g class="cls-40"><g class="cls-3"><path class="cls-41" d="M960.18,783.83v0Z"/><path class="cls-42" d="M960.18,783.85V786a.53.53,0,0,1,0,.13V784a.51.51,0,0,0,0-.13Z"/><path class="cls-43" d="M960.16,784v2.15a.56.56,0,0,1,0,.12V784.1l0-.12Z"/><path class="cls-44" d="M960.13,784.1v2.15a.27.27,0,0,1-.06.12v-2.15l.06-.12Z"/><path class="cls-45" d="M960.07,784.22v2.15a1,1,0,0,1-.08.14v-2.16a.38.38,0,0,0,.09-.13Z"/><path class="cls-46" d="M960,784.35v2.16l-.14.14V784.5a.87.87,0,0,0,.13-.15Z"/><path class="cls-47" d="M959.85,784.5v2.15a2.12,2.12,0,0,1-.27.21v-2.15l.27-.21Z"/><path class="cls-48" d="M959.58,784.71v2.15h0a2.26,2.26,0,0,1-.47.22v-2.16a2.32,2.32,0,0,0,.48-.21Z"/><path class="cls-47" d="M959.07,784.93v2.16l-.42.1V785a2.75,2.75,0,0,0,.41-.11Z"/><path class="cls-46" d="M958.66,785v2.15l-.27,0v-2.15l.28,0Z"/><path class="cls-45" d="M958.38,785.08v2.15l-.24,0v-2.16Z"/><path class="cls-44" d="M958.14,785.09v2.16h-.23V785.1Z"/><path class="cls-43" d="M957.92,785.1v2.15h-.21v-2.15Z"/><path class="cls-42" d="M957.71,785.09v2.15l-.21,0v-2.15l.21,0Z"/><path class="cls-41" d="M957.5,785.06v2.15l-.22,0V785l.22,0Z"/><path class="cls-49" d="M957.28,785v2.15l-.22,0V785l.23.06Z"/><path class="cls-50" d="M957.05,785v2.16l-.27-.09v-2.16l.27.09Z"/><path class="cls-51" d="M956.78,784.88V787l-.31-.15a1.1,1.1,0,0,1-.65-.9v-2.15a1.13,1.13,0,0,0,.65.9l.31.14Z"/></g></g></g><polygon class="cls-52" points="976.92 790.94 976.93 793.09 947.07 776.04 947.07 773.89 976.92 790.94"/><path class="cls-53" d="M959.53,782.94a.94.94,0,0,1,0,1.78,3.38,3.38,0,0,1-3.08,0,1,1,0,0,1,0-1.79A3.41,3.41,0,0,1,959.53,782.94Z"/><polygon class="cls-54" points="1012.55 770.02 1012.55 772.17 976.93 793.09 976.92 790.94 1012.55 770.02"/><polygon class="cls-18" points="1012.55 770.02 976.92 790.94 947.07 773.89 982.69 752.97 1012.55 770.02"/><polygon class="cls-55" points="1004.12 769.68 977.69 785.2 955.55 772.55 981.97 757.03 1004.12 769.68"/><polygon class="cls-56" points="987.31 764.32 979.81 768.73 973.52 765.14 981.02 760.73 987.31 764.32"/><path class="cls-55" d="M1016.68,770.12h0a1,1,0,0,1-.1.21l0,0a1.41,1.41,0,0,1-.17.18l-.16.12-.12.09-41.93,24.63v2.15l41.92-24.63h0a.7.7,0,0,0,.1-.08.83.83,0,0,0,.15-.11h0l.13-.14,0,0,0,0,0-.06.06-.12v0a.31.31,0,0,0,0-.08.49.49,0,0,0,0-.12V769.9A.89.89,0,0,1,1016.68,770.12Z"/><path class="cls-56" d="M1016.08,769a.91.91,0,0,1,0,1.73l-41.93,24.63a3.35,3.35,0,0,1-3,0l-31.35-17.91a.91.91,0,0,1,0-1.73l41.93-24.63a3.28,3.28,0,0,1,3,0Zm-39.16,21.91L1012.55,770l-29.86-17-35.62,20.92,29.85,17.05Zm-20.45-6.2a3.38,3.38,0,0,0,3.08,0,.94.94,0,0,0,0-1.78,3.41,3.41,0,0,0-3.08,0,1,1,0,0,0,0,1.79Z"/><path class="cls-18" d="M974.17,795.39a2.54,2.54,0,0,1-.41.18l-.16,0-.21,0-.26.05h-.06l-.36,0h-.06l-.35,0h0l-.34-.05-.06,0-.29-.08-.06,0a3.13,3.13,0,0,1-.32-.15l-31.35-17.91a1.05,1.05,0,0,1-.63-.87c0,.72,0,1.44,0,2.15a1,1,0,0,0,.63.87l31.35,17.91a2.09,2.09,0,0,0,.3.14h0l0,0,.19.06.1,0,.07,0H972l.21,0h.63l.23,0h.09l.18,0,.08,0,.21-.05a.35.35,0,0,0,.11,0l0,0a2.65,2.65,0,0,0,.42-.18Z"/><polygon class="cls-56" points="998.33 771.07 997.19 771.74 987.06 766 988.23 765.31 998.33 771.07"/><polygon class="cls-56" points="995.22 772.86 994.08 773.52 983.95 767.78 985.13 767.09 995.22 772.86"/><polygon class="cls-56" points="992.45 774.72 991.31 775.39 981.18 769.64 982.35 768.96 992.45 774.72"/><path class="cls-18" d="M959.53,783.16a.94.94,0,0,1,0,1.78,3.38,3.38,0,0,1-3.08,0,1,1,0,0,1,0-1.79A3.41,3.41,0,0,1,959.53,783.16Z"/><path class="cls-57" d="M971.85,797.8l2.33-11,9.22-5s2.93,3.3-3,5.45l.76,3.34,6.13-.77,8.13-4.77s3.78,2.35-3,9.89-18.27,11.38-18.27,11.38Z"/><g class="cls-16"><path class="cls-17" d="M854.69,974.33c-31.63,18.26-31.79,47.86-.37,66.13s82.55,18.26,114.19,0,31.8-47.87.37-66.13S886.32,956.05,854.69,974.33Z"/></g><path d="M873.24,997.09s.82-1.91,2.18-4.4c2.7-4.9,7.49-12,12.23-11.05,7.13,1.49,8.32,9.06,7.57,13.82s-4.75,8.61-6.24,12-8.61,15.44-14.7,13.36-7.58-8-4.9-15.59S873.24,997.09,873.24,997.09Z"/><path d="M872.05,989.07s8.62-5.35,10.4-6.83,8.3-2.77,9.94,2,2.24,9.77-.88,14.23-7.92,15-9.75,16.48-5.86,4.74-10.3,2.76c-3.86-1.72-2.85-3.2-3.36-7.36S872.05,989.07,872.05,989.07Z"/><path class="cls-18" d="M869.67,807.56s-5.94,15.15-6.23,29.41.29,67.43,0,74-5.65,39.51-2.68,49,7.3,42.49,7.3,42.49,9.74,6.53,13.7,0,1.88-28.23,4.25-36.54,2.38-21.69,2.38-27V927.28s7.72-28.82,10.4-55.26S902.35,798.05,869.67,807.56Z"/><path d="M897.6,1014.36s-4.13,13.71,0,16.34c10.69,6.84,22.51-1,28.15.45s22,1.93,25.62-1.64,7-9.69,4.34-15.21c-1.33-2.75-17.71,1.85-21.27.06s-17.83-5.71-17.83-5.71Z"/><path d="M897.6,1011.05s-4.13,13.7,0,16.34c10.69,6.83,22.51-1,28.15.45s22,1.93,25.62-1.64,6.24-11.29,3.56-12.77-16.93-.6-20.49-2.38-17.83-5.71-17.83-5.71Z"/><path class="cls-18" d="M879.12,821.82S874.55,846,885.84,854c6.12,4.32,16.81,63.5,16.81,70s-9.8,31.49-8.91,46.34,1.67,42.78,1.67,42.78a15.39,15.39,0,0,0,16.15,2.08c9.21-4.16,9.21-9.87,9.21-9.87s-2.08-9.14-2.08-13.9,11.29-42.18,11.59-51.09,3-15.15,3-22.88,8-55.55,6.24-72.78-13.08-36.84-13.08-36.84L886,810.29Z"/><path class="cls-58" d="M864,711.94s-6-5.58-8.3-4.79c-17.12,5.92-27,54.9-22.87,70.23S864,806.32,864,806.32a32,32,0,0,0,8.93-16.59c1.78-10.1-13.07-18.68-13.07-18.68h-1.48l-.92-2.46-.54-4.68S870.86,726.46,864,711.94Z"/><path class="cls-9" d="M855.71,707.15c-8,8.26-.27,40,2.7,52.49S864.54,777.25,864,785s-2.11,18.41-2.11,18.41-8.18,68.82.23,78.73c3.1,3.65,19.5,25.74,35.85,23.56s37.66-8.44,39.78-15.71,4.08-66.17,4.08-69-10.69-37.82-10.69-37.82,8.21-38,2.37-48.72c-4.8-8.81-16.5-17.45-22.19-20.74-1.49-.86-17.41-1.23-21.39-2.43-3.09-.93-3.28-6.78-3.28-6.78s-20.37-3.5-24.08-1.36C855.71,707.15,857.09,705.71,855.71,707.15Z"/><path class="cls-57" d="M887.5,695.56l-.6,10.89s7.25,6.3,14.62,7.36S914,715.4,914,715.4V697.34Z"/><path class="cls-58" d="M915.42,766.26s12.39,36,16.64,40.06c11.58,11,41.89,3.51,44,0s4.45-10.35-4.46-14.51-19.85-2.14-19.85-2.14-6.89-50.44-18.18-57.27S909.78,737.74,915.42,766.26Z"/><path class="cls-14" d="M884.72,704.21s2-4.67,2.63-4.23,2.1,4,7.72,5.5,18,1.91,19.59,4.14,3.29,7.51,3.29,7.51-22.83-2-27.14-6.32A81.49,81.49,0,0,1,884.72,704.21Z"/><path class="cls-58" d="M875.32,702.53l11.58-1.33s-1.18,3.2,6.54,5.87,14.43,3.34,20.58,5.42,13.7,14.74,13.7,14.74-9-8.8-17.35-7.31-14.2-.61-19.55-3.09C878.05,710.9,875.32,702.53,875.32,702.53Z"/><path d="M920.18,684.87c0-.45,2.43-9,1.93-11.59a27.22,27.22,0,0,1-.3-5.79s-.44-12.27-12.18-15.13c-10.1-2.46-19.46-1.66-27.78,10.37-6.6,9.56-2.8,20-2.08,22.14,1.87,5.45,4.91,11.88,7.13,12.77s16.79,4,19.76,3,6.68-3.12,7.36-4S920.18,684.87,920.18,684.87Z"/><path class="cls-57" d="M921.81,667.49a9,9,0,0,1,1.19,5.79,19.06,19.06,0,0,0-.53,5.05c-.07,2.08,1,.89-.07,4.16a54.89,54.89,0,0,0-2.22,10.4c-.15,2.37-6.09,6.4-7.58,7.06s-5.94.66-5.94.66l5.84-3.37s-1.58-.64-.79-3.76,1.61-5.5,3.18-5.64,1.57,1.93,1.57,1.93,3.87-8.47,4.31-10.25S921.81,667.49,921.81,667.49Z"/></g></g></svg>