<svg id="Layer_1" data-name="Layer 1" xmlns="http://www.w3.org/2000/svg" xmlns:xlink="http://www.w3.org/1999/xlink" viewBox="0 0 4500 2500"><defs><style>.cls-1{fill:none;}.cls-2{fill:#edf5fc;}.cls-3{clip-path:url(#clip-path);}.cls-4{fill:#d0e5f7;}.cls-10,.cls-11,.cls-12,.cls-13,.cls-14,.cls-16,.cls-17,.cls-23,.cls-24,.cls-25,.cls-28,.cls-31,.cls-32,.cls-33,.cls-34,.cls-35,.cls-36,.cls-37,.cls-38,.cls-39,.cls-4,.cls-40,.cls-41,.cls-42,.cls-43,.cls-44,.cls-45,.cls-46,.cls-47,.cls-48,.cls-49,.cls-50,.cls-51,.cls-52,.cls-53,.cls-54,.cls-55,.cls-56,.cls-58,.cls-59,.cls-60,.cls-61,.cls-62,.cls-63,.cls-64,.cls-65,.cls-66,.cls-67,.cls-68,.cls-69,.cls-70,.cls-71,.cls-72,.cls-73,.cls-75,.cls-76,.cls-8,.cls-9{fill-rule:evenodd;}.cls-30,.cls-5,.cls-6{fill:#5ea2d7;}.cls-5{fill-opacity:0.45;}.cls-6,.cls-69,.cls-71{fill-opacity:0.55;}.cls-7{fill:#cadbe7;}.cls-18,.cls-8{fill:#4067b1;}.cls-9{fill:#33528d;}.cls-10,.cls-15{fill:#2d4584;}.cls-11{fill:#e8f6ff;}.cls-12{fill:#9ad8ff;}.cls-13{fill:#edf8ff;}.cls-14,.cls-26,.cls-34,.cls-67,.cls-68,.cls-70{fill:#fff;}.cls-14{fill-opacity:0.5;}.cls-16{fill-opacity:0.17;}.cls-17{fill:#bee6ff;}.cls-19{fill:#3fa092;}.cls-20{fill:#0e847c;}.cls-21{fill:url(#linear-gradient);}.cls-22{fill:url(#linear-gradient-2);}.cls-23{fill:#e3bf28;}.cls-24{fill-opacity:0.21;}.cls-25{fill-opacity:0.16;}.cls-27{fill:#977f1b;}.cls-28{fill:#234f4c;}.cls-29{fill:#91c4eb;}.cls-31{fill:url(#linear-gradient-3);}.cls-32{fill:#49bfeb;}.cls-33{fill:#30a5d1;}.cls-35{fill:#dad9d9;}.cls-36{fill:#eaeaea;}.cls-37{fill:#fdcda1;}.cls-38{fill:url(#linear-gradient-4);}.cls-39{fill:#73ceef;}.cls-40{fill:gray;}.cls-41{fill:#92d8f2;}.cls-42{fill:url(#linear-gradient-5);}.cls-43{fill:#ec6198;}.cls-44{fill:url(#linear-gradient-6);}.cls-45{fill:url(#linear-gradient-7);}.cls-46{fill:url(#linear-gradient-8);}.cls-47{fill:url(#linear-gradient-9);}.cls-48{fill:url(#linear-gradient-10);}.cls-49{fill:url(#linear-gradient-11);}.cls-50{fill:#a8e0f5;}.cls-51{fill:url(#linear-gradient-12);}.cls-52{fill:url(#linear-gradient-13);}.cls-53{fill:#18232e;}.cls-54{fill:#0d1319;}.cls-55{fill:url(#linear-gradient-14);}.cls-56{fill:url(#linear-gradient-15);}.cls-57{fill:url(#linear-gradient-16);}.cls-58{fill-opacity:0.1;}.cls-59{fill:#fafdff;}.cls-60{fill:#bbe3f8;}.cls-61{fill:#bae4ff;}.cls-62{fill:url(#linear-gradient-17);}.cls-63{fill:url(#linear-gradient-18);}.cls-64{fill:url(#linear-gradient-19);}.cls-65{fill:url(#linear-gradient-20);}.cls-66{fill:url(#linear-gradient-21);}.cls-67{fill-opacity:0.33;}.cls-68{fill-opacity:0.29;}.cls-70{fill-opacity:0.87;}.cls-71{fill:#4fa1df;}.cls-72{fill:url(#linear-gradient-22);}.cls-73{fill:url(#linear-gradient-23);}.cls-74,.cls-75{fill:#daf5ff;}.cls-76{fill:#9ce4ff;}</style><clipPath id="clip-path"><rect class="cls-1" width="4500" height="2500"/></clipPath><linearGradient id="linear-gradient" x1="1288.38" y1="1792.85" x2="1289.56" y2="1792.85" gradientTransform="matrix(415.23, -193.23, -193.23, -415.23, -188340.08, 995063.73)" gradientUnits="userSpaceOnUse"><stop offset="0" stop-opacity="0"/><stop offset="1"/></linearGradient><linearGradient id="linear-gradient-2" x1="1287.38" y1="1793.4" x2="1288.56" y2="1793.4" gradientTransform="matrix(341.25, -108.08, -108.08, -341.25, -245169, 752749.39)" gradientUnits="userSpaceOnUse"><stop offset="0" stop-opacity="0"/><stop offset="0.44" stop-opacity="0.3"/><stop offset="1"/></linearGradient><linearGradient id="linear-gradient-3" x1="1290.35" y1="1790.88" x2="1291.54" y2="1790.88" gradientTransform="matrix(-435.41, -2066.35, -2066.35, 435.41, 4264862.9, 1889008.11)" xlink:href="#linear-gradient"/><linearGradient id="linear-gradient-4" x1="1291.29" y1="1785.12" x2="1292.48" y2="1785.08" gradientTransform="matrix(99.13, -244.59, 240.82, 87.23, -556055.47, 161167.14)" gradientUnits="userSpaceOnUse"><stop offset="0" stop-color="#ed8d34" stop-opacity="0"/><stop offset="1" stop-color="#ed8d34"/></linearGradient><linearGradient id="linear-gradient-5" x1="1292.54" y1="1793.49" x2="1293.72" y2="1793.54" gradientTransform="matrix(-310, 96.46, -81.98, -304.83, 550045.11, 423563.38)" gradientUnits="userSpaceOnUse"><stop offset="0" stop-color="#00a7e5" stop-opacity="0"/><stop offset="1" stop-color="#00a7e5"/></linearGradient><linearGradient id="linear-gradient-6" x1="1291.1" y1="1790.75" x2="1292.29" y2="1790.81" gradientTransform="matrix(-905.81, 87.55, -44.47, -900.04, 1251522.09, 1500572.96)" gradientUnits="userSpaceOnUse"><stop offset="0" stop-color="#c90050" stop-opacity="0"/><stop offset="1" stop-color="#c90050"/></linearGradient><linearGradient id="linear-gradient-7" x1="1291.11" y1="1786.4" x2="1292.29" y2="1786.35" gradientTransform="matrix(107.42, -335.05, 331.25, 91.16, -728667.5, 271103.79)" xlink:href="#linear-gradient-6"/><linearGradient id="linear-gradient-8" x1="1299.33" y1="1794.67" x2="1300.51" y2="1794.73" gradientTransform="matrix(-123.32, -8.17, 14.11, -123.5, 136989.54, 233961.78)" xlink:href="#linear-gradient-6"/><linearGradient id="linear-gradient-9" x1="1291.67" y1="1790.6" x2="1292.85" y2="1790.66" gradientTransform="matrix(-728.15, -141.78, 177.27, -733.68, 624798.39, 1499208.07)" xlink:href="#linear-gradient-5"/><linearGradient id="linear-gradient-10" x1="1293.57" y1="1787.59" x2="1294.75" y2="1787.56" gradientTransform="matrix(-105.04, -261.22, 267.32, -117.39, -340234.45, 549885.9)" xlink:href="#linear-gradient-5"/><linearGradient id="linear-gradient-11" x1="1284.12" y1="1786.5" x2="1285.3" y2="1786.55" gradientTransform="matrix(207.97, 6.07, -16.07, 207.9, -236842.97, -377989.65)" xlink:href="#linear-gradient-5"/><linearGradient id="linear-gradient-12" x1="1293.8" y1="1790.96" x2="1294.98" y2="1791.01" gradientTransform="matrix(-327.36, -115.47, 131.64, -332.33, 189494.7, 746014.38)" xlink:href="#linear-gradient-5"/><linearGradient id="linear-gradient-13" x1="1286.54" y1="1792.7" x2="1287.73" y2="1792.65" gradientTransform="matrix(96.83, 292.88, -298.71, 110.71, 412345.41, -573799.64)" xlink:href="#linear-gradient-5"/><linearGradient id="linear-gradient-14" x1="1292.63" y1="1787.86" x2="1293.81" y2="1787.8" gradientTransform="matrix(-416.36, 11.3, -8.62, 415.1, 555727.45, -756052.2)" xlink:href="#linear-gradient-4"/><linearGradient id="linear-gradient-15" x1="1294.44" y1="1783.72" x2="1295.62" y2="1783.66" gradientTransform="matrix(-176.12, 54.81, 46.49, 175.13, 147239.29, -382659.55)" xlink:href="#linear-gradient-4"/><linearGradient id="linear-gradient-16" x1="1290.59" y1="1790.38" x2="1291.77" y2="1790.11" gradientTransform="matrix(-1017.1, -1245.66, -1685.92, 751.5, 4333540.36, 264905.97)" gradientUnits="userSpaceOnUse"><stop offset="0" stop-color="#fff" stop-opacity="0"/><stop offset="1" stop-color="#fff"/></linearGradient><linearGradient id="linear-gradient-17" x1="1290.36" y1="1790.67" x2="1291.55" y2="1790.67" gradientTransform="matrix(-55.8, -1539.83, -1539.83, 55.8, 2831208.82, 1889662.89)" gradientUnits="userSpaceOnUse"><stop offset="0" stop-color="#9a9a9a" stop-opacity="0"/><stop offset="1" stop-color="#9a9a9a"/></linearGradient><linearGradient id="linear-gradient-18" x1="1290.45" y1="1790.83" x2="1291.63" y2="1790.83" gradientTransform="matrix(-213.47, -1408.78, -1408.78, 213.47, 2800267.92, 1438567.63)" xlink:href="#linear-gradient-17"/><linearGradient id="linear-gradient-19" x1="1287.4" y1="1787.77" x2="1288.58" y2="1787.77" gradientTransform="matrix(119.88, 369.1, 369.1, -119.88, -812265.6, -259415.37)" gradientUnits="userSpaceOnUse"><stop offset="0" stop-color="#fe8407" stop-opacity="0"/><stop offset="1" stop-color="#fe8407"/></linearGradient><linearGradient id="linear-gradient-20" x1="1289.97" y1="1788.75" x2="1291.16" y2="1788.75" gradientTransform="matrix(-521.96, 929.63, 929.63, 521.96, -987973.27, -2131286.1)" xlink:href="#linear-gradient-5"/><linearGradient id="linear-gradient-21" x1="1285.32" y1="1791.36" x2="1286.5" y2="1791.36" gradientTransform="matrix(266.13, 34.43, 34.43, -266.13, -402315.94, 434367.54)" xlink:href="#linear-gradient-5"/><linearGradient id="linear-gradient-22" x1="1292.6" y1="1793.84" x2="1293.79" y2="1793.84" gradientTransform="matrix(-5.46, -277.48, -277.48, 5.46, 507115.59, 350334.45)" gradientUnits="userSpaceOnUse"><stop offset="0" stop-color="#1e719e" stop-opacity="0"/><stop offset="1" stop-color="#1e719e"/></linearGradient><linearGradient id="linear-gradient-23" x1="1292.32" y1="1792.15" x2="1293.51" y2="1792.15" gradientTransform="matrix(-157.67, -359.35, -359.35, 157.67, 850335, 184233.86)" gradientUnits="userSpaceOnUse"><stop offset="0" stop-color="#606060" stop-opacity="0"/><stop offset="1" stop-color="#606060"/></linearGradient></defs><g id="d123"><rect id="d121" class="cls-2" width="4500" height="2500"/><g class="cls-3"><path class="cls-4" d="M4747.27-34.31H-279.22V204.84C75.07,489.2,793.53,550,1169,465.38c322.2-72.65,667.49-260.79,981.38-299.12,170-20.73,345-33.74,505.13,42.33,205.83,97.79,339.68,285,496.15,443.8,293.56,298,813.45,584.39,1241.95,546.79,179.54-15.76,306.61-99.85,389.72-219.58V22.33Q4766.42-6.72,4747.27-34.31Z"/><rect class="cls-5" x="4353.15" y="-386.24" width="16.45" height="2538.98"/><rect class="cls-5" x="4200.51" y="-386.24" width="16.45" height="2538.98"/><rect class="cls-5" x="4047.86" y="-386.24" width="16.45" height="2538.98"/><rect class="cls-5" x="3895.22" y="-386.24" width="16.45" height="2538.98"/><rect class="cls-5" x="3742.57" y="-386.24" width="16.45" height="2538.98"/><rect class="cls-5" x="3589.93" y="-386.24" width="16.45" height="2538.98"/><rect class="cls-5" x="3437.28" y="-386.24" width="16.45" height="2538.98"/><rect class="cls-5" x="3265.36" y="-386.24" width="16.45" height="2538.98"/><rect class="cls-6" x="3261.34" y="113.41" width="1275.61" height="14.09"/><rect class="cls-6" x="3261.34" y="279.16" width="1275.61" height="14.09"/><rect class="cls-6" x="3261.34" y="444.91" width="1275.61" height="14.09"/><rect class="cls-6" x="3261.34" y="610.67" width="1275.61" height="14.09"/><rect class="cls-6" x="3261.34" y="776.42" width="1275.61" height="14.09"/><rect class="cls-6" x="3261.34" y="942.17" width="1275.61" height="14.09"/><rect class="cls-6" x="3261.34" y="1107.93" width="1275.61" height="14.09"/><rect class="cls-6" x="3261.34" y="1273.68" width="1275.61" height="14.09"/><rect class="cls-6" x="3261.34" y="1439.43" width="1275.61" height="14.09"/><rect class="cls-6" x="3261.34" y="1605.18" width="1275.61" height="14.09"/><rect class="cls-6" x="3261.34" y="1770.94" width="1275.61" height="14.09"/><rect class="cls-6" x="3261.34" y="1936.69" width="1275.61" height="14.09"/><rect class="cls-7" x="-51.88" y="1441.83" width="4670.99" height="197.14"/><path class="cls-8" d="M1627.6,1620.17H1268.15l-14.87-12.36a23.41,23.41,0,0,1-5-30.2l67.8-110.53,311.74,4.71s-40.34,69.67-58.14,100.39a14.71,14.71,0,0,0,6.83,20.85l45.75,20Z"/><path class="cls-9" d="M1602,1516.43l-351.72,67.94a40.79,40.79,0,0,1,6-19.77l59.81-97.52,311.74,4.71Z"/><path class="cls-10" d="M1326.5,1473.24l-63.17,107.24a9,9,0,0,1-.86,1.26,35.51,35.51,0,0,0-5.17,10.49c-.85,2.93-1.43,6.33,0,9.52,1.78,3.91,6.14,6.92,13.59,9.44l345.74.14a12.12,12.12,0,0,1,0,24.23l-347.6-.14a12,12,0,0,1-3.56-.53c-17.66-5.45-26.13-14.33-30.12-23.05s-3.61-18.27-1.27-26.36a62.12,62.12,0,0,1,8.75-17.85l62.86-106.72a12.09,12.09,0,1,1,20.8,12.33Z"/><path class="cls-10" d="M743.56,735.64c-2.12-17,26.94-48.44,44.08-48.44l1149.57,18.5c17.14,0,41.55,21.46,43.66,38.45l93.94,727.95c2.12,17-29.89,40.76-47,40.76L893,1519.6a67.14,67.14,0,0,1-30.52-6.51c-13.62-6.44-23-16.53-24.17-26.09Z"/><path class="cls-11" d="M766,714.79c-2.1-16.88,10.1-30.58,27.23-30.58H1949c17.14,0,32.76,13.7,34.86,30.58l92.37,741.34c2.11,16.89-10.1,30.59-27.24,30.59H893.19c-17.14,0-32.75-13.7-34.86-30.59Z"/><path class="cls-12" d="M1871,858.07c-1.62-13.09-13.53-23.77-26.57-23.84l-836.55-4.58c-13-.07-22.31,10.5-20.69,23.59l54.68,442.83c1.62,13.09,13.52,23.78,26.56,23.85l836.55,4.57c13,.08,22.32-10.49,20.7-23.58Z"/><path class="cls-13" d="M1624.68,1207.23l-186.58-1,11.25,91.09,186.58,1Zm-389.16-2.13-186.59-1,11.25,91.09,186.59,1Zm194.58,1.07-186.58-1,11.25,91.09,186.58,1Zm461.19,2.52-258.61-1.41,11.25,91.08,258.61,1.42Zm-279-101.85-186.58-1,11.25,91.09,186.58,1Zm-389.16-2.13-186.58-1,11.25,91.09,186.58,1Zm194.58,1.07-186.58-1,11.25,91.09,186.58,1Zm461.2,2.52-258.62-1.41,11.25,91.09,258.62,1.41Zm-279-101.85-186.58-1,11.25,91.09,186.58,1Zm-389.16-2.13-186.58-1,11.25,91.09,186.58,1Zm194.58,1.07-186.58-1,11.25,91.09,186.58,1Zm461.2,2.52-258.62-1.41,11.25,91.09,258.62,1.41Zm-668.18-104-186.58-1L1023,994l186.58,1Zm389.16,2.13-186.57-1,11.25,91.09,186.57,1ZM1392.9,905l-186.58-1,11.25,91.09,186.58,1Zm461.2,2.52-258.61-1.41,11.25,91.09,258.61,1.41Z"/><path class="cls-13" d="M1849.84,870.57a11.49,11.49,0,0,0-11-9.86l-822.42-4.5a8.42,8.42,0,0,0-8.56,9.75l2.43,19.61a11.46,11.46,0,0,0,11,9.86l822.43,4.5a8.44,8.44,0,0,0,8.56-9.75Z"/><path class="cls-14" d="M1111.47,684.21H793.19c-17.13,0-29.32,13.83-27.2,30.86l9.67,77.59q42,35,83.51,70.4c241.29,205.93,469.23,423.81,723,614.94q10.35,7.8,20.89,16h446.88c17.14,0,29.32-13.83,27.2-30.86l-5.71-45.81c-69.5-53.9-133.9-108.81-159.93-129.5C1650,1079.94,1389.13,870,1111.47,684.21Zm199.29,0c66.51,38.37,130.06,82,195.75,121.65,180.09,108.79,358.4,221.69,531.31,341.69l-21.58-173.18q-4.82-3.79-9.64-7.58c-60.9-47.73-123.27-93.62-185.66-139.34-46.58-34.13-94.59-66.78-141.82-100-20.87-14.71-41.94-29-63.11-43.2Z"/><path class="cls-8" d="M841.44,1368l11.64,93.38c2.12,17,17.83,30.87,35,30.87H2049.34c17.21,0,29.47-13.83,27.34-30.87L2065.05,1368Z"/><ellipse class="cls-15" cx="973.62" cy="1423.77" rx="26.45" ry="31.04" transform="translate(-569.94 654.04) rotate(-29.13)"/><path class="cls-16" d="M2113.11,1600.7l750.21-4.55c5.46,0,6.68-10,3.79-12L2726.51,1490c-2.86-1.92-9.57-3.47-15-3.47l-747.68.62c-5.41,0-5.21,10.47-2.35,12.39L2098,1597.2C2100.89,1599.14,2107.66,1600.7,2113.11,1600.7Z"/><path class="cls-10" d="M2127.42,1592.93l750.21-4.55c5.46,0,6.69-10,3.8-12l-140.6-94.25c-2.87-1.91-9.57-3.47-15-3.47l-747.67.62c-5.41,0-5.22,10.48-2.35,12.4l136.48,97.71C2115.2,1591.37,2122,1592.93,2127.42,1592.93Z"/><path class="cls-17" d="M2129.3,1580.56l747.48-.61c5.46,0,7.54-1.58,4.65-3.52l-140.6-94.25c-2.87-1.91-9.57-3.47-15-3.47l-747.67.62c-5.41,0-7.47,1.57-4.6,3.48l140.6,94.25C2117.07,1579,2123.84,1580.56,2129.3,1580.56Z"/><path class="cls-18" d="M2700.86,1498.86l28.27,0c2.76,0,3.8-.8,2.35-1.78l-8.64-5.79c-1.46-1-4.87-1.76-7.62-1.76l-28.27,0c-2.75,0-3.8.8-2.34,1.78l8.63,5.78c1.46,1,4.88,1.77,7.62,1.77"/><path class="cls-18" d="M2651,1498.91l28.27,0c2.75,0,3.8-.79,2.34-1.77l-8.63-5.79c-1.46-1-4.88-1.77-7.62-1.76l-28.27,0c-2.76,0-3.8.8-2.34,1.77l8.63,5.79c1.46,1,4.87,1.77,7.62,1.77"/><path class="cls-18" d="M2601.17,1498.94l28.27,0c2.75,0,3.8-.8,2.35-1.77l-8.65-5.79c-1.45-1-4.86-1.77-7.61-1.77l-28.27,0c-2.75,0-3.8.79-2.35,1.77l8.64,5.79c1.46,1,4.87,1.77,7.62,1.76"/><path class="cls-18" d="M2551.32,1499l28.27,0c2.76,0,3.8-.8,2.35-1.77l-8.64-5.79c-1.46-1-4.87-1.77-7.62-1.77l-28.27,0c-2.75,0-3.8.79-2.34,1.77l8.63,5.79c1.46,1,4.88,1.76,7.62,1.76"/><path class="cls-18" d="M2501.47,1499l28.27,0c2.76,0,3.8-.8,2.35-1.78l-8.64-5.79c-1.46-1-4.87-1.76-7.62-1.76l-28.27,0c-2.75,0-3.8.8-2.34,1.77l8.64,5.79c1.45,1,4.87,1.77,7.61,1.77"/><path class="cls-18" d="M2451.63,1499.07l28.27,0c2.76,0,3.8-.79,2.34-1.77l-8.63-5.79c-1.46-1-4.87-1.77-7.62-1.76l-28.27,0c-2.75,0-3.8.8-2.34,1.77l8.64,5.79c1.45,1,4.86,1.77,7.61,1.77"/><path class="cls-18" d="M2401.79,1499.11l28.27,0c2.75,0,3.79-.8,2.34-1.77l-8.64-5.79c-1.46-1-4.87-1.77-7.62-1.77l-28.27,0c-2.75,0-3.8.79-2.34,1.77l8.64,5.79c1.45,1,4.86,1.77,7.62,1.76"/><path class="cls-18" d="M2351.94,1499.15l28.27,0c2.75,0,3.79-.8,2.34-1.77l-8.64-5.79c-1.46-1-4.87-1.77-7.62-1.77l-28.27,0c-2.75,0-3.8.8-2.34,1.78l8.64,5.79c1.46,1,4.87,1.76,7.62,1.76"/><path class="cls-18" d="M2302.1,1499.19l28.27,0c2.75,0,3.79-.8,2.34-1.78l-8.64-5.79c-1.46-1-4.87-1.76-7.62-1.76l-28.27,0c-2.75,0-3.8.8-2.34,1.77l8.64,5.79c1.45,1,4.87,1.77,7.62,1.77"/><path class="cls-18" d="M2252.25,1499.24l28.27,0c2.75,0,3.8-.79,2.34-1.77l-8.64-5.79c-1.46-1-4.87-1.77-7.62-1.76l-28.27,0c-2.75,0-3.8.8-2.34,1.77l8.64,5.79c1.46,1,4.87,1.77,7.62,1.77"/><path class="cls-18" d="M2202.4,1499.27l28.27,0c2.75,0,3.8-.8,2.34-1.77l-8.64-5.79c-1.46-1-4.87-1.77-7.62-1.77l-28.27,0c-2.75,0-3.8.79-2.34,1.77l8.64,5.79c1.46,1,4.87,1.77,7.62,1.76"/><path class="cls-18" d="M2152.55,1499.31l28.27,0c2.75,0,3.8-.8,2.34-1.78l-8.64-5.78c-1.45-1-4.86-1.77-7.62-1.77l-28.27,0c-2.74,0-3.79.8-2.34,1.78l8.64,5.79c1.46,1,4.87,1.76,7.62,1.76"/><path class="cls-18" d="M2091.28,1499.36l39.7,0c2.75,0,3.8-.79,2.34-1.77l-8.64-5.79c-1.45-1-4.87-1.76-7.61-1.76l-39.71,0c-2.75,0-3.8.8-2.34,1.77l8.64,5.79c1.46,1,4.87,1.77,7.62,1.77"/><path class="cls-18" d="M2029.77,1499.41l39.93,0c2.75,0,3.8-.79,2.34-1.77l-8.64-5.79c-1.45-1-4.86-1.77-7.61-1.76l-39.94,0c-2.74,0-3.79.79-2.33,1.77l8.63,5.79c1.46,1,4.87,1.77,7.62,1.76"/><path class="cls-18" d="M2810.74,1572.51l28.27,0c2.76,0,3.8-.8,2.35-1.78L2820,1556.42c-1.45-1-4.87-1.77-7.62-1.76l-28.27,0c-2.75,0-3.79.8-2.34,1.77l21.33,14.29c1.45,1,4.86,1.77,7.61,1.77"/><path class="cls-18" d="M2760.9,1572.56l28.27,0c2.75,0,3.8-.79,2.34-1.77l-21.32-14.29c-1.46-1-4.87-1.77-7.62-1.77l-28.27,0c-2.75,0-3.8.79-2.34,1.77l21.32,14.29c1.46,1,4.87,1.77,7.62,1.77"/><path class="cls-18" d="M2711.05,1572.59l28.27,0c2.75,0,3.8-.8,2.34-1.77l-21.32-14.29c-1.46-1-4.87-1.77-7.62-1.77l-28.27,0c-2.75,0-3.8.8-2.34,1.78l21.32,14.29c1.46,1,4.87,1.77,7.62,1.76"/><path class="cls-18" d="M2661.21,1572.63l28.27,0c2.75,0,3.8-.8,2.34-1.78l-21.33-14.29c-1.45-1-4.86-1.76-7.61-1.76l-28.28,0c-2.74,0-3.79.8-2.33,1.77l21.32,14.3c1.45,1,4.87,1.76,7.62,1.76"/><path class="cls-18" d="M2461.82,1572.8l177.8-.15c2.76,0,3.8-.79,2.35-1.77l-21.33-14.29c-1.45-1-4.86-1.77-7.61-1.76l-177.81.14c-2.75,0-3.8.8-2.34,1.77l21.32,14.3c1.46,1,4.87,1.76,7.62,1.76"/><path class="cls-18" d="M2412,1572.84l28.27,0c2.75,0,3.8-.8,2.34-1.78l-21.32-14.29c-1.46-1-4.87-1.77-7.62-1.76l-28.27,0c-2.75,0-3.8.8-2.34,1.77l21.32,14.29c1.46,1,4.87,1.77,7.62,1.77"/><path class="cls-18" d="M2362.13,1572.88l28.27,0c2.75,0,3.8-.8,2.34-1.77l-21.32-14.29c-1.46-1-4.87-1.77-7.62-1.77l-28.27,0c-2.75,0-3.8.8-2.34,1.78l21.32,14.29c1.46,1,4.87,1.77,7.62,1.76"/><path class="cls-18" d="M2312.28,1572.92l28.27,0c2.75,0,3.8-.8,2.34-1.77l-21.32-14.29c-1.46-1-4.87-1.77-7.62-1.77l-28.27,0c-2.75,0-3.79.8-2.34,1.78l21.32,14.29c1.46,1,4.87,1.76,7.62,1.76"/><path class="cls-18" d="M2198.45,1573l32.09,0c2.75,0,3.8-.8,2.34-1.78l-5-3.31c-1.46-1-4.87-1.77-7.62-1.77l-32.09,0c-2.75,0-3.8.79-2.34,1.77l4.95,3.32c1.46,1,4.87,1.77,7.62,1.76"/><path class="cls-18" d="M2143.62,1573.06l32.1,0c2.74,0,3.79-.79,2.33-1.77l-5-3.32c-1.45-1-4.87-1.76-7.61-1.76l-32.09,0c-2.75,0-3.8.8-2.34,1.78l5,3.32c1.45,1,4.87,1.76,7.61,1.76"/><path class="cls-18" d="M2253.28,1573l32.09,0c2.75,0,3.79-.8,2.34-1.77l-4.95-3.32c-1.46-1-4.87-1.77-7.62-1.77l-32.09,0c-2.75,0-3.8.8-2.35,1.77l5,3.32c1.46,1,4.87,1.77,7.62,1.77"/><path class="cls-18" d="M2182.08,1562l32.09,0c2.75,0,3.79-.8,2.34-1.77l-5-3.32c-1.46-1-4.87-1.77-7.62-1.77l-32.09,0c-2.75,0-3.8.8-2.34,1.77l4.95,3.32c1.45,1,4.87,1.77,7.62,1.76"/><path class="cls-18" d="M2726.75,1516.21l28.27,0c2.75,0,3.8-.8,2.34-1.77l-15-10c-1.46-1-4.87-1.77-7.62-1.77l-28.27,0c-2.75,0-3.8.8-2.34,1.78l15,10c1.46,1,4.87,1.76,7.62,1.76"/><path class="cls-18" d="M2676.9,1516.25l28.27,0c2.75,0,3.8-.8,2.34-1.78l-15-10c-1.45-1-4.86-1.76-7.62-1.76l-28.27,0c-2.75,0-3.79.8-2.34,1.77l15,10c1.46,1,4.87,1.77,7.62,1.77"/><path class="cls-18" d="M2627.05,1516.3l28.27,0c2.75,0,3.8-.79,2.35-1.77l-15-10c-1.46-1-4.87-1.77-7.62-1.76l-28.28,0c-2.74,0-3.79.79-2.33,1.77l15,10c1.45,1,4.86,1.77,7.61,1.77"/><path class="cls-18" d="M2577.21,1516.33l28.27,0c2.75,0,3.8-.8,2.34-1.77l-15-10c-1.45-1-4.86-1.77-7.62-1.77l-28.27,0c-2.75,0-3.8.79-2.34,1.77l15,10c1.46,1,4.87,1.77,7.62,1.76"/><path class="cls-18" d="M2527.36,1516.37l28.27,0c2.76,0,3.8-.8,2.35-1.77l-15-10c-1.45-1-4.86-1.77-7.61-1.77l-28.27,0c-2.76,0-3.8.8-2.35,1.78l15,10c1.45,1,4.86,1.76,7.61,1.76"/><path class="cls-18" d="M2477.51,1516.42l28.27,0c2.76,0,3.8-.8,2.35-1.78l-15-10c-1.45-1-4.86-1.76-7.61-1.76l-28.27,0c-2.75,0-3.8.8-2.34,1.77l15,10c1.45,1,4.86,1.77,7.61,1.77"/><path class="cls-18" d="M2427.67,1516.46l28.27,0c2.75,0,3.79-.79,2.34-1.77l-15-10c-1.46-1-4.87-1.77-7.62-1.76l-28.27,0c-2.75,0-3.8.79-2.34,1.77l15,10c1.45,1,4.87,1.77,7.62,1.77"/><path class="cls-18" d="M2377.83,1516.5l28.27,0c2.74,0,3.79-.8,2.33-1.77l-15-10c-1.45-1-4.86-1.77-7.61-1.77l-28.27,0c-2.75,0-3.8.79-2.34,1.77l15,10c1.46,1,4.87,1.77,7.63,1.76"/><path class="cls-18" d="M2328,1516.54l28.27,0c2.74,0,3.79-.8,2.34-1.77l-15-10c-1.46-1-4.87-1.76-7.62-1.76l-28.27,0c-2.75,0-3.8.8-2.34,1.78l15,10c1.45,1,4.87,1.76,7.62,1.76"/><path class="cls-18" d="M2278.14,1516.58l28.27,0c2.74,0,3.79-.8,2.34-1.78l-15-10c-1.46-1-4.87-1.76-7.62-1.76l-28.27,0c-2.75,0-3.8.8-2.34,1.77l15,10c1.45,1,4.87,1.77,7.62,1.77"/><path class="cls-18" d="M2228.29,1516.63l28.27,0c2.75,0,3.8-.79,2.34-1.77l-15-10c-1.46-1-4.87-1.77-7.62-1.77l-28.27,0c-2.75,0-3.8.79-2.34,1.77l15,10c1.46,1,4.87,1.77,7.62,1.77"/><path class="cls-18" d="M2178.44,1516.66l28.27,0c2.75,0,3.8-.8,2.34-1.77l-15-10c-1.46-1-4.87-1.77-7.62-1.77l-28.27,0c-2.75,0-3.8.79-2.34,1.77l15,10c1.45,1,4.87,1.77,7.62,1.76"/><path class="cls-18" d="M2117.16,1516.7l39.7,0c2.75,0,3.8-.8,2.34-1.78l-15-10c-1.46-1-4.87-1.76-7.62-1.76l-39.7,0c-2.75,0-3.8.8-2.34,1.78l15,10c1.46,1,4.87,1.76,7.62,1.76"/><path class="cls-18" d="M2055.65,1516.77l39.93,0c2.75,0,3.8-.79,2.34-1.77l-15-10c-1.45-1-4.87-1.77-7.62-1.76l-39.93,0c-2.75,0-3.79.79-2.34,1.77l15,10c1.46,1,4.87,1.77,7.62,1.77"/><path class="cls-18" d="M2728.37,1533.6l52.53-.06c2.75,0,3.8-.8,2.34-1.77l-15-10c-1.46-1-4.86-1.77-7.62-1.77l-52.53.07c-2.75,0-3.8.79-2.34,1.77l15,10c1.45,1,4.86,1.77,7.62,1.76"/><path class="cls-18" d="M2652.94,1533.65l52.59,0c2.75,0,3.8-.79,2.34-1.77l-15-10c-1.45-1-4.87-1.76-7.62-1.76l-52.59,0c-2.75,0-3.8.8-2.34,1.77l15,10c1.46,1,4.87,1.77,7.62,1.77"/><path class="cls-18" d="M2603.09,1533.69l28.27,0c2.75,0,3.8-.79,2.34-1.77l-15-10c-1.45-1-4.87-1.77-7.62-1.77l-28.27,0c-2.75,0-3.8.79-2.34,1.77l15,10c1.46,1,4.87,1.77,7.62,1.77"/><path class="cls-18" d="M2553.25,1533.72l28.27,0c2.75,0,3.8-.8,2.34-1.77l-15-10c-1.46-1-4.87-1.77-7.62-1.77l-28.27,0c-2.75,0-3.79.79-2.34,1.77l15,10c1.46,1,4.87,1.77,7.62,1.76"/><path class="cls-18" d="M2503.4,1533.77l28.27,0c2.75,0,3.8-.8,2.34-1.78l-15-10c-1.46-1-4.87-1.76-7.63-1.76l-28.27,0c-2.74,0-3.79.8-2.34,1.77l15,10c1.46,1,4.87,1.76,7.62,1.76"/><path class="cls-18" d="M2453.55,1533.81l28.27,0c2.75,0,3.8-.79,2.35-1.77l-15-10c-1.46-1-4.87-1.76-7.62-1.76l-28.28,0c-2.74,0-3.79.8-2.33,1.77l15,10c1.46,1,4.87,1.77,7.62,1.77"/><path class="cls-18" d="M2403.7,1533.85l28.28,0c2.75,0,3.79-.79,2.34-1.77l-15-10c-1.46-1-4.87-1.77-7.62-1.77l-28.27,0c-2.75,0-3.8.79-2.34,1.77l15,10c1.45,1,4.87,1.77,7.61,1.77"/><path class="cls-18" d="M2353.86,1533.89l28.28,0c2.75,0,3.8-.8,2.34-1.77l-15-10c-1.46-1-4.87-1.77-7.62-1.77l-28.27,0c-2.75,0-3.8.8-2.34,1.78l15,10c1.46,1,4.88,1.76,7.62,1.76"/><path class="cls-18" d="M2304,1533.93l28.27,0c2.75,0,3.8-.8,2.35-1.78l-15-10c-1.46-1-4.87-1.76-7.63-1.76l-28.26,0c-2.75,0-3.8.8-2.35,1.77l15,10.05c1.46,1,4.87,1.76,7.62,1.76"/><path class="cls-18" d="M2254.17,1534l28.27,0c2.74,0,3.79-.79,2.34-1.77l-15-10c-1.45-1-4.86-1.77-7.61-1.76l-28.27,0c-2.75,0-3.8.8-2.34,1.77l15,10c1.46,1,4.87,1.77,7.63,1.77"/><path class="cls-18" d="M2204.33,1534l28.27,0c2.74,0,3.79-.79,2.34-1.77l-15-10c-1.46-1-4.87-1.77-7.62-1.77l-28.27,0c-2.75,0-3.8.79-2.34,1.77l15,10c1.45,1,4.87,1.77,7.62,1.76"/><path class="cls-18" d="M2155.5,1534l28.28,0c2.75,0,3.79-.79,2.34-1.77l-15-10c-1.46-1-4.87-1.77-7.62-1.77l-28.27,0c-2.75,0-3.8.79-2.34,1.77l15,10c1.45,1,4.87,1.77,7.61,1.76"/><path class="cls-18" d="M2081.54,1534.11l51.67-.08c2.75,0,3.8-.8,2.34-1.77l-15-10c-1.46-1-4.87-1.77-7.62-1.77l-51.67.08c-2.75,0-3.8.8-2.34,1.78l15,10c1.46,1,4.87,1.76,7.62,1.76"/><path class="cls-18" d="M2728.67,1551l78.12-.07c2.75,0,3.79-.79,2.34-1.77l-15-10c-1.46-1-4.87-1.77-7.62-1.76l-78.12.06c-2.75,0-3.79.8-2.34,1.77l15,10c1.46,1,4.87,1.77,7.62,1.77"/><path class="cls-18" d="M2678.82,1551l28.27,0c2.75,0,3.8-.8,2.34-1.78l-15-10c-1.46-1-4.87-1.76-7.62-1.76l-28.27,0c-2.75,0-3.79.8-2.34,1.78l15,10c1.46,1,4.87,1.76,7.62,1.76"/><path class="cls-18" d="M2629,1551l28.27,0c2.75,0,3.8-.79,2.34-1.77l-15-10c-1.46-1-4.87-1.77-7.62-1.76l-28.27,0c-2.75,0-3.79.8-2.34,1.77l15,10c1.46,1,4.87,1.77,7.62,1.77"/><path class="cls-18" d="M2579.13,1551.08l28.27,0c2.75,0,3.8-.79,2.34-1.77l-15-10c-1.45-1-4.87-1.77-7.62-1.77l-28.27,0c-2.75,0-3.79.79-2.34,1.77l15,10c1.46,1,4.87,1.77,7.62,1.77"/><path class="cls-18" d="M2529.29,1551.11l28.27,0c2.75,0,3.8-.8,2.34-1.77l-15-10c-1.46-1-4.87-1.77-7.62-1.77l-28.27,0c-2.75,0-3.8.8-2.34,1.78l15,10c1.46,1,4.87,1.76,7.62,1.76"/><path class="cls-18" d="M2479.44,1551.16l28.27,0c2.75,0,3.8-.8,2.34-1.78l-15-10c-1.45-1-4.87-1.76-7.62-1.76l-28.27,0c-2.75,0-3.8.8-2.34,1.78l15,10c1.46,1,4.87,1.76,7.62,1.76"/><path class="cls-18" d="M2429.59,1551.2l28.27,0c2.75,0,3.8-.79,2.34-1.77l-15-10c-1.46-1-4.87-1.77-7.62-1.76l-28.26,0c-2.76,0-3.8.8-2.35,1.77l15,10c1.46,1,4.87,1.77,7.62,1.77"/><path class="cls-18" d="M2379.74,1551.24l28.28,0c2.75,0,3.79-.79,2.33-1.77l-15-10c-1.45-1-4.86-1.77-7.62-1.77l-28.26,0c-2.76,0-3.8.79-2.34,1.77l15,10c1.46,1,4.88,1.77,7.62,1.77"/><path class="cls-18" d="M2329.9,1551.28l28.28,0c2.74,0,3.79-.8,2.33-1.77l-15-10c-1.45-1-4.86-1.77-7.62-1.77l-28.26,0c-2.76,0-3.8.8-2.35,1.78l15,10c1.46,1,4.87,1.76,7.62,1.76"/><path class="cls-18" d="M2280.05,1551.32l28.28,0c2.74,0,3.79-.8,2.34-1.78l-15-10c-1.46-1-4.87-1.76-7.62-1.76l-28.27,0c-2.75,0-3.8.8-2.34,1.78l15,10c1.45,1,4.87,1.76,7.61,1.76"/><path class="cls-18" d="M2230.2,1551.36l28.27,0c2.75,0,3.8-.79,2.34-1.77l-15-10c-1.45-1-4.86-1.77-7.62-1.76l-28.26,0c-2.76,0-3.8.8-2.35,1.77l15,10c1.46,1,4.87,1.77,7.62,1.77"/><path class="cls-18" d="M2107.43,1551.47l101.2-.09c2.75,0,3.8-.79,2.34-1.77l-15-10c-1.45-1-4.87-1.77-7.62-1.77l-101.2.09c-2.75,0-3.8.79-2.34,1.77l15,10c1.46,1,4.87,1.77,7.63,1.77"/><path class="cls-19" d="M335.46,985.49s35.38,54.5-26.71,83-173-29.84-241.73,48.46c17.19-108.83,57.82-154.83,120.34-177.81C263,911.29,358.69,938,335.46,985.49"/><path class="cls-20" d="M283.63,977.9c-44.26,9.86-65,57.35-62.38,97.63,8.76.53,17.39,1,25.76,1.31-3.72-35.48,7-79.09,36.62-98.94"/><path class="cls-20" d="M182.86,990c-38.67,14.55-43.47,50.71-52.12,88.84a170.87,170.87,0,0,1,23.2-3.84c-3.12-32.92,9.53-60.68,28.92-85"/><path class="cls-20" d="M221.74,977.9c-8-20.13-22.3-27.74-38-37.43A181.7,181.7,0,0,0,152.49,956c23.25.15,47.52,11,69.25,21.9"/><path class="cls-20" d="M469.39,1257.48c4.12-24.54,3.85-50.63,1.05-75.85a303.55,303.55,0,0,0-17.93-74.25,283.62,283.62,0,0,0-36.35-67,142.67,142.67,0,0,0-27.54-25.93,165.3,165.3,0,0,0-33.08-18.79c-23.34-10.25-48.66-15.93-74.16-17.78a242.28,242.28,0,0,0-76.28,6.53c-24.87,6.21-48.8,16.83-69.45,32.21a164.52,164.52,0,0,0-27.85,26.65,161.5,161.5,0,0,0-20.15,33,161.86,161.86,0,0,1,19.65-33.38,165.36,165.36,0,0,1,27.57-27.26c20.55-15.86,44.54-27,69.58-33.7A245.94,245.94,0,0,1,281.62,974c25.93,1.44,51.82,6.78,75.95,16.89A171,171,0,0,1,392,1009.68a148.87,148.87,0,0,1,29.16,26.58,289.25,289.25,0,0,1,38.56,68.29,311.26,311.26,0,0,1,19.68,76c3.28,26.11,4.13,52.29.13,78.94Z"/><path class="cls-19" d="M527.63,1014.6s-16.14,63,51.76,70,154.36-83.78,244.48-31.67c-51-97.59-104.15-128.14-170.72-129.85C572.62,921,490.47,977,527.63,1014.6"/><path class="cls-20" d="M732.33,998.6c14.41-14.46,28.83-16.28,45-16.08A211.59,211.59,0,0,0,759,963.84c-14.37,6.47-26.63,16.92-26.63,34.76"/><path class="cls-20" d="M557,1003.77c8.63,30.28,24.41,53.34,29.38,81.24a96.15,96.15,0,0,0,17.27-1.55c2.72-34.3-31.62-54.57-46.65-79.69"/><path class="cls-20" d="M630.07,993.42c7.5-38.76,48.34-57.95,85.45-57.61-17.92-7.64-36.76-11.42-56.79-12.45-29.53,9.87-51.47,36.81-59.54,71.27,17.78,22.45,35.32,48.74,39.41,78.87,10-3.67,20.2-7.89,30.64-12.13-4.27-27.07-19.76-50.53-39.17-67.95"/><path class="cls-20" d="M649.81,991.27c31.38,7.87,44.83,32.87,47.22,59.28,8.93-3.22,18-6.14,27.15-8.45-11.84-30.27-24.62-60.75-74.37-50.83"/><path class="cls-20" d="M409.13,1247.12a397.78,397.78,0,0,1,6.9-73.33c4.54-24.09,11.3-47.88,21.43-70.35s23.85-43.58,42.31-60.19a149.56,149.56,0,0,1,30.35-21,225.64,225.64,0,0,1,33.64-14.55,341.59,341.59,0,0,1,71.07-16,391.42,391.42,0,0,1,72.67-2.1c24.17,1.61,48.33,5.5,71.29,13.42a139.75,139.75,0,0,1,32.64,15.84c10,6.79,18.94,15.55,24.49,26.38-5.74-10.73-14.79-19.27-24.85-25.84a139,139,0,0,0-32.69-15.16c-22.93-7.45-47-10.88-71-12a387.11,387.11,0,0,0-72,3.36c-23.8,3.35-47.36,8.75-69.84,17s-44.12,19.34-61.36,35.5-30.23,36.71-39.6,58.57-15.6,45.2-19.62,68.8a389,389,0,0,0-5.47,71.39Z"/><path class="cls-19" d="M407.44,893s6.79,46.15-64.61,41.7c-106.1-6.6-74-146.89-97.53-215.45s-84.16-81.49-84.16-81.49S346.27,657.12,414.23,749s44.82,157.78-6.79,144"/><path class="cls-20" d="M350.85,695.59q-9.39-5.36-19.19-10.12c-6.38,10.88-11.82,35.57.29,66.35-5.73-33.86,9.72-49.86,18.9-56.23"/><path class="cls-20" d="M258.7,817.37c1.05,10.57,2.34,21,4.13,31.16C282.09,841,331.23,828,394.4,858c4.21-53,22.31-84.7,29.44-95.31-3-4.53-6.15-9.1-9.61-13.77a153.41,153.41,0,0,0-11.73-13.87c-11.39,12.18-35.89,43.16-29.9,79.19-36.25-11.39-91.11-10.49-113.9,3.1"/><path class="cls-20" d="M423,1257.43c5.09-26.08,8.26-53,10.5-79.72s3.1-53.72,2.82-80.62c-.53-53.8-6.47-107.61-18.74-160a582.75,582.75,0,0,0-24.45-76.86,458,458,0,0,0-36.62-71.83l-11.06-16.89L333.3,755.35c-3.9-5.5-8.44-10.48-12.85-15.57s-8.6-10.39-13.55-15l-14.32-14.26c-4.87-4.65-10.16-8.84-15.22-13.29l-7.67-6.59c-2.64-2.09-5.41-4-8.1-6l-16.3-12,16.49,11.72c2.73,2,5.53,3.86,8.21,5.92l7.79,6.47c5.13,4.37,10.5,8.5,15.45,13.08l14.59,14.07c5,4.53,9.22,9.88,13.83,14.81s9.15,10,13.16,15.44l12.46,16,11.4,16.8a461.32,461.32,0,0,1,38,71.75,586.62,586.62,0,0,1,25.89,77.1c13.21,52.65,20.07,106.84,21.47,161.12q1.06,40.71-1.56,81.43c-1.85,27.15-4.57,54.07-9.4,81.13Z"/><path class="cls-19" d="M492.11,959.18s-6.79,46.15,64.62,41.71c106.1-6.61,74-146.9,97.53-215.46s84.15-81.49,84.15-81.49-185.13,19.4-253.09,111.24-44.82,157.79,6.79,144"/><path class="cls-20" d="M647.58,814.69a167.13,167.13,0,0,1,6.68-29.26c.38-1.1.79-2.14,1.19-3.21-20.67-4.81-45.19-2.4-67.36,8.72,4.26-25.67,20.68-47,39-62.67a447.88,447.88,0,0,0-59.07,23.3c-14.75,23.65-11.38,57.54-19.62,86.45,32.4-23.22,63-30.55,99.13-23.33"/><path class="cls-20" d="M495.09,936.51q64.28,7.17,115.3,40.9c10.38-11.31,17.15-25.93,21.75-42.36-46.66-6-89.68-17.55-137,1.46"/><path class="cls-20" d="M520.87,879.6c41.85,0,83.67-4.11,118,21.61,1.1-8.18,2-16.51,2.72-24.85-38.61-15.75-85.31-23.38-120.68,3.24"/><path class="cls-20" d="M519.78,780.92c-13.2,10.13-25,21.47-34.46,34.26-.62.84-1.18,1.67-1.79,2.51.66,28.92,11.37,56.55,32.19,77.43,0-38.07,0-76.13,4.06-114.2"/><path class="cls-20" d="M438.36,1273c-.58-26.58.41-52.8,2.15-79.11s4.5-52.48,8.23-78.53,8.48-52,14.34-77.62a768.9,768.9,0,0,1,21.8-75.85,537.82,537.82,0,0,1,30.93-72.55c5.82-11.82,12.73-23,19.47-34.31l11-16.34c3.6-5.51,7.93-10.48,11.86-15.75,16.42-20.46,34.72-39.6,55.75-55.34a294.79,294.79,0,0,1,68.41-38.09,294.26,294.26,0,0,0-67.62,39.12c-20.68,16-38.55,35.33-54.51,55.9-3.81,5.3-8,10.3-11.51,15.82L538,856.79c-6.51,11.31-13.17,22.53-18.75,34.34a532.19,532.19,0,0,0-29.49,72.46,762.3,762.3,0,0,0-20.4,75.6q-8.1,38.32-13,77.25c-6.41,51.77-9.43,104.27-7.73,156.15Z"/><path class="cls-19" d="M371.73,1176.81s22.35,68.85-64.46,59.79-183.19-69.87-264.41-15.54c109.59-116.42,163.81-148,261.4-135.8,90.25,11.29,82.72,75.72,67.47,91.55"/><path class="cls-20" d="M256.15,1083.15a180.19,180.19,0,0,0-60.1,13.35c34-2.06,76.64,5.06,99.19,31.45,0-24.4-20.22-35-39.09-44.8"/><path class="cls-20" d="M206.26,1121.81c-17.67,0-40.48-2.43-58.15,1.91-30.77,22-64.1,53.61-105.26,97.34,27.78-18.58,57.33-23.67,87.66-22,8.38-37.45,46.34-60.4,75.75-77.26"/><path class="cls-20" d="M160.41,1202.65c14.71,2.58,29.52,6.2,44.33,10.16,16.2-46.81,67.3-65.46,109.84-79.69-60.14-12.93-127.4,17.24-154.17,69.53"/><path class="cls-20" d="M422.22,1274.23A261.22,261.22,0,0,0,389.38,1205c-14.33-21.3-31.93-40.69-53.2-55.24a177.22,177.22,0,0,0-34-18.22,187.5,187.5,0,0,0-37.4-9.86c-25.67-3.46-52-1.69-77.46,3.93,25.25-6.45,51.63-9.14,77.79-6.5a190.52,190.52,0,0,1,38.42,8.8A181.19,181.19,0,0,1,339,1145.45c22.38,14.25,41.2,33.64,56.68,55.12a268.93,268.93,0,0,1,36.42,70.84Z"/><ellipse class="cls-21" cx="314.58" cy="1614.81" rx="252.73" ry="64.58" transform="translate(-274.82 78.85) rotate(-9.97)"/><ellipse class="cls-22" cx="430.68" cy="1573.2" rx="127.82" ry="47.13" transform="translate(-206.68 71.79) rotate(-7.69)"/><path class="cls-23" d="M280.28,1267.5l61,298s89.28,58.77,218.18-4.73l33.3-290.08S374.65,1321.94,280.28,1267.5Z"/><path class="cls-24" d="M391.4,1292.27a396.46,396.46,0,0,1-41.21-3.37c-1.16,2.9-2.42,5.68-3.79,8.31L311.48,1287c8.3,42.59,20.5,100.54,60.21,125,5.52,3.4,13.62,16.3,19.82,17.08,2.05.26-1.18-4-1.56-6-.81-4.47-1.67-9-2.37-13.47-1.93-12.29-3-24.47-3.67-36.9C382.31,1345.09,384.25,1318.29,391.4,1292.27Zm185.51,116.41,15.85-138a972.12,972.12,0,0,1-109.41,17.7c2.66.08,5.3.23,8,.46.74.06-1.38,4.11-1.5,4.72a52.29,52.29,0,0,0-.26,12.87c.68,8,8,16.53,13.28,21.94C535.85,1362,557.7,1370.05,576.91,1408.68Z"/><path class="cls-25" d="M563.1,1529.1l-3.64,31.69c-128.9,63.5-218.18,4.73-218.18,4.73l-61-298c11.29,6.5,24.33,11.5,38.54,15.25,10.41,25.38,25.59,49.84,37.58,73.65,31.34,62.16,72.49,138.31,142.57,162.34C520,1525.94,541.47,1528.68,563.1,1529.1Z"/><ellipse class="cls-26" cx="444.01" cy="1262.65" rx="162.87" ry="58.31"/><ellipse class="cls-27" cx="444.44" cy="1261.11" rx="149.41" ry="48.66"/><path class="cls-28" d="M305.62,1279.12c21.57-18.24,75.91-31.2,139.48-31.2,62.94,0,116.84,12.71,138.83,30.66-21.56,18.23-75.92,31.19-139.49,31.19C381.51,1309.77,327.62,1297.08,305.62,1279.12Z"/><path class="cls-19" d="M550.82,1126.09s-72.92,52.18-18.77,132.38,107.72,102.86,94.77,199.87c68.12-148,85.47-237.26,55.52-295.47s-104.87-80.76-131.52-36.78"/><path class="cls-20" d="M577.61,1133.12c-25.77,5.74-48.32,22.67-62.43,44.53-4.26,15.08-4.8,33.08,2.67,53.47,6.21-38.64,26.12-76.91,59.76-98"/><path class="cls-20" d="M666.93,1140.14c-21-7.58-43.94-7-68.69,8.51,32.83,0,65.63,3.33,88.07,22.92-1.22-3-2.52-5.88-4-8.7a116,116,0,0,0-15.41-22.73"/><path class="cls-20" d="M639.49,1303.86c0,24.67-9.78,46.06-24.14,66.79a126.2,126.2,0,0,1,11.23,34.12c8.08-32.8,15.25-65.79,12.91-100.91"/><path class="cls-20" d="M618.86,1190c-4.5,40.64-20.8,85.23-55.75,109.68,12.1,14.77,23.41,27.78,33.17,40.75,24.62-29.32,45.29-66.59,32.9-103.87,29.28,8.39,48.38,33.8,57.3,62.42a367.68,367.68,0,0,0,7.66-39.21c-14.23-33.15-38-62.3-75.28-69.77"/><path class="cls-20" d="M638.91,1273.52a355.27,355.27,0,0,0-10.35-58.26c-5.1-19.1-12-37.85-22.14-55.13a108,108,0,0,0-18.68-23.67c-7.43-6.84-16.74-12.71-27.54-13.77-1.33-.11-2.67-.27-4-.34l-4,.3c-2.72,0-5.24,1-7.86,1.59a72.56,72.56,0,0,0-7.31,3.11c-2.2,1.4-4.59,2.61-6.63,4.21s-4.17,3.21-6,4.92l-5.41,5.15c-3.68,3.35-7.1,7-10.48,10.64a253.87,253.87,0,0,0-35.32,48.19c-6.51,11.66-18.4,46.46-22.95,59.09H460.7c3.9-10.91,14.94-44.49,20.39-54.71a245.83,245.83,0,0,1,33.15-47.35c3.2-3.63,6.44-7.21,9.94-10.55l5.15-5.12c1.71-1.7,3.53-3,5.29-4.55,7.19-5.75,16-9,24.93-8.14,8.93.62,17.31,5.48,24.32,11.67a102.52,102.52,0,0,1,18.15,22,199.88,199.88,0,0,1,13.2,25.88,272,272,0,0,1,9.62,27.59,354.52,354.52,0,0,1,11.51,57.51c4.67,38.93,4.1,78.49-.59,117.51,5.54-38.91,7-78.53,3.15-117.8"/><path class="cls-19" d="M443.19,1082.82s-30.62-54-90.79-23-39.78,209.54,28.67,311.3c19.46-74.16,51.83-151.27,111.72-193.34s8.53-107.35-49.6-95"/><path class="cls-20" d="M332.13,1260.52a436.47,436.47,0,0,0,20.26,57.59c4.56-43,17.8-81.29,34.39-122.9-25.83,13-48,36.75-54.65,65.31"/><path class="cls-20" d="M379.36,1259.77c-10.55,28.2-13.91,56.72-14.88,83.39a308.37,308.37,0,0,0,16.59,28c4-15.13,8.57-30.35,13.75-45.39-6.33-21.77-16-43.43-15.46-66"/><path class="cls-20" d="M422.88,1107.25c-18.76-28.23-67.31-26.45-99.23-6.45-6.84,23.11-8.4,53.18-5.33,85.89,17.93-29.43,49.63-50.53,78.78-43.22,26.27,8.78,34,51.11,45.16,85.87a237.48,237.48,0,0,1,23.58-28.41c-6.11-35.38-20.4-67.28-43-93.68"/><path class="cls-20" d="M455.77,1080.13a46.82,46.82,0,0,0-15.83,5.65A68.52,68.52,0,0,0,426,1096.13c-8.5,8-15.15,17.93-20.47,28.46l-3.8,8-3.12,8.34-1.56,4.17-1.23,4.3-2.46,8.58c-1.46,5.78-2.51,11.67-3.78,17.5l-2.89,17.74a709.79,709.79,0,0,0-6.9,71.62c-1,24-1,48.05,1.26,72-2.7-23.89-3.11-48-2.54-72a712.57,712.57,0,0,1,5.62-71.93l2.59-17.87c1.18-5.93,2.14-11.9,3.51-17.79l2.34-8.78,1.18-4.39,1.52-4.29,3-8.58,3.76-8.32c5.29-11,12-21.39,20.82-30s19.39-15.68,32.42-17.89Z"/><rect class="cls-29" x="-51.88" y="1638.94" width="4670.98" height="42.18"/><rect class="cls-30" x="-51.88" y="1681.08" width="4670.98" height="466.41"/><path class="cls-31" d="M4619.1,1955.89-56.7,1788.37l4.82-107.32h4671Z"/><rect class="cls-29" x="583.04" y="1681.08" width="52.22" height="466.41"/><rect class="cls-29" x="2898.32" y="1681.08" width="52.22" height="466.41"/><rect class="cls-29" x="3880.28" y="1681.08" width="52.22" height="466.41"/><path class="cls-1" d="M1281.77,885.76c41.71,158.18-592,215.37-641.83,723.78S1462,2625,2418.22,2435.39,3695,2102.87,3689.22,1785c-4.62-254.31-280.28-679.63-857.8-965.53-144.4-71.49-397-678.79-579.58-728-223.09-60.1-607.42-138.79-736.38-40.71-170,129.3-57,460.71-140.7,504.23C1262.07,613.57,1240.09,727.77,1281.77,885.76Z"/><path class="cls-32" d="M2368.13,1813.73c-16.6-10.84-77.82-24-94.77-20.58-5.68,1.11-15.74-1.22-20.82,1.33-17.11,8.6,7.73,107.12-5.35,120.24-7.84,7.87-19,13.24-22.84,24.92-6.14,18.44-.16,43.93-4,63.35-2,10.09-1.51,20.91-4,31-.86,3.42-3.19,10.49-1.35,14.16,2.49,5,18.17,12.14,23.52,15.51,18.3,11.47,38.36,20.58,57.06,32.32,7.57,4.75,11.27,13.86,18.82,18.2,22.3,12.77,39.33,15.43,63.79,19.52,2.89.49,26.87,5.35,26.87,3.39"/><path class="cls-33" d="M2362.29,1820c18.75-3.29,41.67,98,55.73,178.55,4.77,27.33,2.67,48.39,2.37,69.63-.53,41.36-5.37,72.42-17.76,74.6-18.75,3.29-55.7-49.3-69.75-129.83-6-34.13-10.88-70.28-9.27-96.37C2325.78,1881.06,2351.46,1821.9,2362.29,1820Z"/><path class="cls-34" d="M2369.17,1732.67c-1.76-.49-2.55-2.44-4.52-3.3-7.17-3.14-17.93,1.17-25,1.71-2.14.16-6.43-2.16-8.21-.89-2,1.41-3.63,7.36-4.66,10.1-7,18.36.3,31.4,10.52,45.81,2.81,4,3.37,9,6.77,12.53,4.63,4.89,23.87,11.28,24.44,18.78.27,3.45-34.2,67.19-35.55,95.1-1,21.49,25.87,67.17,27.44,72.33s2.69,12.33,6.6,16.46c22.05,23.26,60.68,31.51,92,29.08,11.17-.88,22.37-11.22,32.64-15.26,18.32-7.18,39.24-6.55,57.46-13,12.25-4.34,25.71-7.47,38.31-10.81,16-4.28,32.46-16,45.73-25.42,7.38-5.27,15-8.47,21.28-15.21,16.7-17.77,20.75-41.2,24.69-64.6,3.37-20,5.5-43.73,2.38-63.92-6.65-42.79-41.29-74.24-82.57-83.76-24.46-5.63-48.66-4.73-73.14-7.94-15.64-2-30.8-6.62-46.38-8.85-21.29-3-44-2.94-65.56-3.18"/><path class="cls-35" d="M2511.52,1728c-1,0-2.06,0-3.1,0-9.43-.15-18.69-2.62-28.15-2.79-16.12-.29-34.89,1.57-50.93,3.74-13.53,1.86-25.19,9.24-38.8,10.76l-4.3-7.33c5.55,12.49,7.84,33.26,7.5,47-.15,6-3.34,16-1.67,21.5,8,26.24,25.69,38.4,26.65,70.33.4,13.62-6.18,25.16-12.63,34-4.45,6.1-11,11.84-7.32,20,1.79,4,12.09,3.92,15.67,3.65,5.14-.4,10.42.36,15.76.19,8.93-.27,18.38-6.07,27.34-1.31,8.65,4.63,11.16,18.34,15.3,26.36,3.22,6.26,12.28,11.87,18.12,15.44,17.35,10.61,35.19,9.81,54.59,6.78,15.52-2.44,31.31-1.47,46.78-5.45,7.68-2,13.68-6.81,20.9-9.82,14.38-6,32-11.42,42-24,18.55-23.26,12.23-59.15,10.66-86.78-1.33-23.71-1.45-47.74-10.87-70.13-2.41-5.74-7.64-10-11.33-14.79-2.34-3-4-6.73-6-10.12a116.2,116.2,0,0,0-38.77-16.77c-24.46-5.63-48.66-4.73-73.14-7.94C2521,1729.81,2516.24,1729,2511.52,1728Z"/><path class="cls-34" d="M2618.88,1709.52c-11.15-6-56-1.12-69-3.85s-94.57-12.26-101.92-10.78-74.29,27.87-88.76,31.08,30.37,31.61,59.34,23.7,68.92-2,74.06.2-37.69,24.88-41.51,30-18.28,54.38-16.07,62.07,26.32,12.52,26.32,12.52-14.43,18.13-19.89,23.55,23.77,28.34,39.77,18.1,41.14-10.36,41.14-10.36-19,16.29-23.41,21.67-4.93,11.35-1.17,16.25,61.24,11.88,66.68,9.56,54.83,11.19,66.22,7.23,31.86-12.61,36.67-17.9,23.13-47.68,18.82-55.29,4.12-33.59,3.47-48.28-18.11-23.34-22.56-31,6.28-22.67,1.46-35.39-19.09-19-25-23.16S2630,1715.55,2618.88,1709.52Z"/><path class="cls-36" d="M2521.29,1886.71c8.37-1.53,17.21-2.26,25.49-4.38,12.32-3.16,23.77-9.47,36-12.46,13.55-3.29,27.2-7.52,40.68-8.59,1.85-.13,12.91-3.59,14-2s-1.71,4.11-2.15,4.94c-2.52,4.72-4.89,5.44-5.89,11.38-.08.51-.72,4.28-.36,4.78.59.84,3.25,3.47,2.85,4-3.84,5.26-15.34-3.48-21.43-3.63-5.84-.14-12.21,1.53-18,2.26-13.25,1.66-26.89.92-39.93,4.29-4.35,1.1-8.13,4-12.72,4.91-8.79,1.7-23,3.21-32.5,6.9C2512.68,1894.19,2518.82,1888.85,2521.29,1886.71Zm-62.49-32.81a16.67,16.67,0,0,0,1.84-1.64c8.15-8.69,14.06-19.21,22.34-28,14.84-15.8,32.1-21.65,53.2-28.11,11.34-3.47,21.91-6.52,33-9.88,1.18-.37,9.91-4.15,10.77-1.28,1,3.39-6.3,5.64-8.23,7-9.25,6.63-19.43,12.06-29.74,17.08-19.29,9.41-38.09,18.85-55.48,31.27-5,3.55-17.77,5.22-21,9.69a65.82,65.82,0,0,1-6.75,7.85c1.66-2,2.7-3.36,2.7-3.36S2460.38,1854.28,2458.8,1853.9ZM2382,1746.06c1.45-.44,2.86-.89,4.24-1.43,2.82-1.11,4.19-4,7.37-4.5a472.66,472.66,0,0,1,84.2-5.62c7.29.19,13.46,3.91,20.14,6.06,5.73,1.82,12.48,2.11,18.42,3.12,7.28,1.23,14.5-1.62,21.87-1.61,10.25,0,19.77,1,30.05-.65,6-.92,14.07-.84,19.36-2.47,1.35-.4,5.69,2,4.85,2.61-1.31.93-7.47.41-9.34.61-11.63,1.31-23.67.56-35.15,2-16.58,2.08-33.32,7.06-49.88,8.35-2.42.2-4.83.39-7.26.62,2-1.68,2.76-2.87,1.76-3.28-5.14-2.17-45.1-8.11-74.06-.2C2407.29,1752.74,2393.63,1750.34,2382,1746.06Z"/><path class="cls-37" d="M1810.36,696.13c-3.43,82.82-21.37,155.09-48,200.42l207.3,314.91,84.61-27.4-37.64-132.21L2014,918.37Z"/><path class="cls-38" d="M2016.31,1038,2014,918.37,1810.36,696.13a614.75,614.75,0,0,1-11.42,96.8c8.47,50.14,17.69,94.62,44.73,140.67,6.34,10.79,35.07,60.69,50.68,62.47,1.85.21.09-3.75.12-5.63.06-4-.14-8-.3-12-.61-14.55-7.82-42.68-2.44-55.92,1.1-2.67,3.61,4.23,5.37,6.36,3.52,4.26,7,8.61,10.78,12.61,12.38,13.08,26.09,24.2,36.49,39.11C1959.83,1002.74,1980.57,1070.74,2016.31,1038Z"/><path class="cls-39" d="M2267.87,1871.86c-.25,102.23-33.4,218.88-33.14,320.85.13,58.21,18,195.67,18,195.67s49.84,284.45,40.58,371.13c-5.69,53.31-67.25-27.65-82.73,24.41-6.14,20.63-60.18,15.85-73.21,12.4-51-13.48-124.65-56-141.74-109.14-9.13-28.34,12.22-146.72,16.73-185.34,5.7-48.89,11.38-97.6,14.82-146.61,3-42.46,4.77-85,9.37-127.44,3.61-33.11,8.69-66.17,13.33-99.2,7.92-56.54,50.27-291.62,125.1-313.35,25.67-7.44,50.36,1.5,73.15,11.88"/><path class="cls-40" d="M2177.64,2205.77c-8.1,137.09-21.6,275.27-39.44,411.91-3.88,29.72-5.54,136.12-23.95,162.07-20.77,29.27-96.27,8.37-122.42,5-108.19-14-218.82-35.46-320.09-73.55-19.94-7.49-82.5-17.5-93.59-39.48-18-35.63,22.44-273.35,29.74-327.11,3.7-27.33,15.12-196,36.38-213,23-18.41,75.52-7.87,101.72-5.2,88.59,9,183.42,21.34,269.88,41.38,31.18,7.21,88.24,47.35,119.19,27.81"/><path class="cls-41" d="M2040.91,991.12c28.2,18.85,75.84,58.11,99.42,82.06,42.07,42.75,92.8,83.52,121.7,137.53,16.7,31.23,19.19,70.65,27.57,104.86,12.84,52.31,26.5,104.66,33.26,158.56,7.14,57.13,10.08,115,16,172.29,3.74,36.48,9.68,79.81,3.3,117-3.59,20.94-16.49,40.59-23.76,60.52-9.52,26.19-13.9,53.72-18.61,80.84-4.35,25.16-17.48,109.75-23.1,134.72-1.41,6.28-1.77,20.08-7.24,25-9,8.08-34.75-24.08-38.95-30-28.75-40.47-45.94-150.53-51.23-201.38-4.59-44.33-8.31-88.31-9.33-133.11-1.91-84.81-11.91-167.09-19.17-251.14-4.59-52.92-21.86-105.39-34.86-156.32-18.13-71.06-36.31-141.65-55.88-212.18C2053.86,1058.06,2048.19,1013.47,2040.91,991.12Z"/><path class="cls-42" d="M2058.65,1074.43c.37,2,.84,3.94,1.36,5.89q6.15,22.08,12.09,44.21l40.38,87.43c.63,16.74-1.79,33.28-4.45,49.77q3.93,15.38,7.86,30.77c13,50.93,30.27,103.4,34.86,156.32,7.26,84,17.26,166.33,19.17,251.14.79,34.67,3.2,68.85,6.38,103.06,7.86,20.25,1.76,65.78,12.61,84.83,5.23,9.16,25.34,178.63,73.05,172.22,2.83-.37,10.37-165,10.67-172.18.8-19.12,14.82-182.52,6.86-194.06-13.59-19.75-36.95,20.25-43.56,24.85-.52.37,0-1.27.05-1.91,1.32-7.67,3.11-15.3,4.67-22.94,3.65-17.78,6.77-35.65,9.18-53.61,5.77-42.9,20.25-131.26,16.5-168.76-4.52-45-64.91-124.23-87.1-164.35-27.38-49.51-53.48-100-79.53-150.29C2086.05,1130.44,2075.21,1100,2058.65,1074.43Z"/><path class="cls-43" d="M2064.08,1084.68c58,120.87,129.11,210.32,159,342.35,7.51,33.19,20.59,66,20.12,100.75-1.42,103.88-55.16,206.51-55.79,310.12-.49,77.25-6.51,155.06-5.93,232.22.28,38,11.1,94.62-.91,131.64-9.41,29-103,41.21-126.86,42.34-120.91,5.66-243-18.24-350.17-67.88-9.6-4.45-26.94-8.58-34.77-16.25-18.49-18.18-5-106.23-4.48-131.79,2.47-115.3-2.1-231.21-8-346-5.09-98.9-8.21-198.36-20.79-296.48-8.46-65.94-20.75-132-27.18-198.2-4.17-43.11-9.5-86-14.36-129-7.23-63.93,24.33-84.07,85.28-110.84,20.2-8.88,50.73-37.36,74-34.89,34.86,3.71,43.77,41.7,63.11,64.74,34.7,41.34,97.86,80.7,126,118.48,14.56,19.53,40.93,92.31,61.68,94.22,31.43,2.91,3.25-125.2,41.08-125.56"/><path class="cls-44" d="M2242,1551.81c-34.45,14.14-76.2-22.45-99.36-13.48-13.74,5.34-18.72,28.39-32.42,36.73-52.72,32.08-123.14,41.25-181.77,47.62-32.71,3.54-174.23,7.24-191,55.46-45.93,132.13,5.75,272.25-3.7,404.09-1.36,19.12-10.1,68.29-10.12,102.92,102.2,43.56,216.68,64.24,330.09,58.95,23.81-1.13,117.45-13.35,126.86-42.34,9-27.72,5.19-66.43,2.59-100.07-4.29,1.81-8.36,3.58-12,4.8-59.7,20.1-132.35,9.67-194.41,15.24-28.49,2.57-104.56-2.23-105.37-7.69-7.15-47.72,111.48-32.19,173.58-25.84,3.19.33,64.12,2.65,63.07-1.32-7.11-27.33-97.84-24-119.54-39.16-22.22-15.51,13.51-55.64-.69-72.84-10.21-12.38-30.45-15.65-44.5-22.13-19.8-9.13-28.12-15-27.76-15.15,43-26.91,158.09,48,188,29.14,7.42-4.66,6-13.93,4.19-20.6-16.1-60.56-59.6-68.8-7.53-139.67,14.83-20.21,38.09-32.92,55.73-50.57,19.52-19.53,32.23-45.54,48.87-67.26,4.12-5.42,8.52-10.92,13.1-16.5C2228.47,1632.12,2238.57,1592,2242,1551.81Z"/><path class="cls-45" d="M1732.15,917c-2.61,1.1-5.23,2.37-7.86,3.76l-21.14,123c12.92,21.34,17.15,49.46,25.86,72.9,17.06,45.76,36.53,90.67,59.14,133.76,8.39,16,16.44,32,25.47,47.68a95.9,95.9,0,0,0,5.65,8.61c.18.23,3.69,4.69,3.73,4.65,8.8-6.16,11.93-31.22,15-40.7,9.1-28.39,29.34-67.68,46.19-92.48,3.79-5.55,10.77-23.12,17.61-25.87,6.3-2.52,12.6,7.36,16.27,10.89,14.21,13.72,31.1,25.88,46,39,1.72,1.51,17.21,18.7,19.21,15.65,5.26-8,2.17-19.69.41-28-2.24-10.6-5-21.37-8.4-31.94-12.66-22.68-24.69-50.84-33-61.9-19.42-26.1-55.57-53-87.53-80.71-18.19-11.63-35.68-24.55-52.65-37.73C1778,958.88,1758.94,932.17,1732.15,917Z"/><path class="cls-46" d="M1971.9,1151.7c2,19.87,10.3,40.64,15,58,25.71,94.08,49.6,185.54,69.46,281.65,11.26,54.4-19.37,100.78-21.74,152.7-1.42,31.17,12,59.54,14,90,3.66,53.4-4.44,112.47-6.87,166.12-3.57,78.59-24.58,122.22-17.19,206.13,1.44,16.46,5,38.36,0,54.9-2.75,9.06-10.47,10.87-13.85,19-5.69,13.66-13.75,41.49-16.75,64.29q20.79.69,41.59.21a201,201,0,0,0,3.84-38.36c-.49-19.07,11.83-31.7,12.57-50.69,1-25.44-8.43-54.22-8.43-81,0-70.18,10.19-140.63,11.92-210.86.61-25.55,11.51-49,12.89-73.13,2.24-39.09-9.55-77.83-8.57-116.91.91-35.26,14.56-73.34,18.52-108.93,12-107.6-30-271.28-59.46-390.69-3.78,10.45-8.48,16.75-14.86,16.17C1994,1189.34,1982.6,1171.79,1971.9,1151.7Z"/><path class="cls-41" d="M1696.31,920.15c13.93,42.45,28.82,89.79,40.1,133.09,19.91,76.35,32.31,151.07,47.35,228.7,28.08,144.79,20.74,296.34,11,444.28-15.94,242.41-29.92,485.08-36.12,727.44-1.19,46.53-5.87,276.89-19.82,304.26-16,31.56-87.93,24.74-114,25-99.21.84-196.56-21.26-294.08-33.82-19.42-2.51-80.25-.86-91.86-20.9-15.89-27.46,35.42-150.67,45.59-179.65,35.86-102.05,73.47-201.4,114.93-301.56,15.1-36.48,34-71.23,48.24-108.07,4.07-10.52.12-23.11,3.92-32,4.61-10.77,18.51-26.4,20.44-36.77,3.56-19.34-29.69-51.92-36.16-70.31-14-39.9-30.81-183.89-56.8-210.91-23.89-24.83-72.11,12.22-88.57-24.78-41.94-94.16-29.31-309.72-31.53-413.7-1-47-4-219.89,30.24-257.74,24.64-27.2,75.56-42.58,108-57.42C1495,990.42,1598.9,964.71,1696.31,920.15Z"/><path class="cls-47" d="M1583.38,2181.79v-.09c-13.72-1.31-27.39-3-40.87-5.29-14.25-2.41-28.65-4.52-42.36-8.93-3.82-1.23-12.89-3.28-14.5-7.68-.44-1.2,2.62-.3,3.92-.31,2,0,4,.11,6,.18,5.69.2,11.39.62,17.07,1,18,1.12,36,1.71,54.07,2.64,5.67.29,11.33.68,17,1.12.34-22.7,1-46.25,10.39-64,6.85-13,52.17-50.95,47.72-62.49-2.47-6.44-65.5-2.9-82-17.63-33.1-29.44-22.8-121.67-22.8-162.46l-94.89-78.57c-18.38,10.2-33.53,26.1-46.23,45,16.88,53.35,29.24,145,40,175.53,6.47,18.39,39.72,51,36.16,70.31-1.93,10.37-15.83,26-20.44,36.77-3.8,8.92.15,21.51-3.92,32-14.27,36.84-33.14,71.59-48.24,108.07-41.46,100.16-79.07,199.51-114.93,301.56-10.17,29-61.48,152.19-45.59,179.65,11.61,20,72.44,18.39,91.86,20.9,33.75,4.35,67.47,9.83,101.27,15.13,3.42-53.81-10.61-112.21,2.3-162.3,35-135.64,125.35-259.92,147.27-398.72.2-1.27.38-2.57.52-3.88,28.21,1,57-1.19,85.23-3,12-.77,24.18-.16,36.1-2.45.92-.17,10.45-2,10.2-4.37a14.21,14.21,0,0,0-2.76-.29c-3-.13-5.88-.24-8.84-.21-13.38.06-26.56,1.86-39.92.85-20.35-1.55-40.78-3.42-61.06-5.58C1595.28,2183.67,1589.34,2182.4,1583.38,2181.79Z"/><path class="cls-48" d="M1799.3,1651.83c-51.55,30.25-102.69,61.2-154.65,90.68-53.09,30.11-103.06,63.76-155.22,95.33-32,19.37-58.13,34.12-78.21,48.18,9.51,45.41,17.44,93.29,24.65,113.75,6.47,18.39,39.72,51,36.16,70.31-1.76,9.52-13.63,23.46-19.13,34,87.23-40.81,252.92-214.23,292-243.9,13.67-10.38,28.45-19.35,43.09-28.43q3.32-52.82,6.8-105.55C1796.41,1701.51,1798,1676.7,1799.3,1651.83Z"/><path class="cls-49" d="M1563,972l-62.81,91.68,146,109.66L1552,1248.69l133.64,228.37,17.49-287.63Z"/><path class="cls-50" d="M1770.18,2147.82c6.78-140.56,15.37-281.13,24.6-421.6,9.72-147.94,17.06-299.49-11-444.28-15-77.63-27.44-152.35-47.35-228.7-11.28-43.3-28-95.91-42-138.37-40.8,18.67-82.75,34-124.91,48.87-9.66,7.57-17.48,20.32-26.73,28.43-25.59,22.44-37.77,43.18-37.77,43.18s25,21.78,29.55,25.41c8.09,6.45,16.34,12.71,24.44,19.11,14,11.1,28.39,21.91,42.81,32.47,11.76,8.63,23.83,17.28,36,25.38.46.31,9.59,5.12,9.53,6-.21,4.17-13.14,10.85-16,12.85-16.71,11.58-34.16,22.24-51.37,33-2.66,1.65-22.55,14.3-22.55,14.3l128.45,264.82s54.57,139.09,59.53,336.26C1748.57,1930.73,1759.66,2059.29,1770.18,2147.82Z"/><path class="cls-51" d="M1596.28,1560.28c-13.23-56.55-18.56-113.47-36.6-169-11.14-34.24-18.71-70-28.52-104.78-8.25-29.24-15.27-58.8-23.31-88.08-2.75-10-5.43-20.1-7.52-30.31-1.5-7.3-5.62-17.95-4.52-16.21,10.85,17.16,15.79,38.6,24.18,57.12,21.37,47.19,47.27,91.31,69.94,137.54,5.53,11.31,27.55,34.52,27.7,47.46.11,11.67-9.13,13.78-14.83,21.45-1.91,2.59,14.32,15.86,15.85,17.75,9,11.3,10.07,24.08,11.69,38.59,2.68,24.21,14.4,89.67-10.1,109.58"/><path class="cls-43" d="M1986,1211.59l-12.35-99.19L1939.16,1059,1763.41,862.77l-53.69,30.3-15.21,24.06,126.59,356.94s38.53-92.18,44.11-106.28,55.18-81.73,55.18-81.73l28.14,38.75,14.22,31.1Z"/><path class="cls-43" d="M1989.86,1176.71l27-205.73L2046,990.41l33.61,118.7Z"/><path class="cls-52" d="M1564.81,1498.66c-11.43,4.22-42.94,10.42-53.75,16.14-32.44,17.14-63.79,39.27-92.89,61.75q-19.5,15-38.41,30.9c-4.63,3.86-9.4,7.53-14,11.49-1.32,1.15-2.54,2.4-3.79,3.6-.72.67-1.64,2.69-2.18,2-2-2.75,2.42-11.93,3.62-14.45,7.23-15.2,17-29.88,26-44.12,7.55-11.9,15.29-23.35,24-34.45,11.5-14.69,24.48-29.78,41.09-38.84C1484.62,1476.22,1532.87,1497.83,1564.81,1498.66Z"/><path class="cls-53" d="M1716.57,489.67c-31.69,15.49-45.36,39.22-84.43,32.42C1475.45,494.83,1467,348.2,1555.6,234.93c19.05-24.34,49.55-34.56,73.69-51.07,16.47-11.27,22.13-33.4,38.25-43.14,73.42-44.37,136.78-15,170.51,57.89,16.88,36.46,8.9,72.86,12.51,107.56"/><path class="cls-54" d="M1535.12,264.48c-65.62,107.81-46.34,232.67,97,257.61,36.95,6.43,51.18-14.47,79.45-29.86,8-30.86,10.55-63.39,10.44-91.45-.06-15.19,6.61-40,2-54.65-.2-.65-30.36,7.43-32.21,7.84-21.27,4.71-45.34,4.82-66.58,2.4C1577.78,351,1537.42,311.71,1535.12,264.48Z"/><path class="cls-53" d="M2120.58,776.36c-2.85-14.08,58.41-71.39,70-81.49,129.08-112.48,84.16-358.57,38.29-419-132.24-174.36-381.61-110.62-443.13-13.45-9.4,14.84-74.57,67.68-101.83,173.18-35.37,137-12.16,207.4,91.09,286.25,5.29,4,51.78,17.11,56.76,13.14"/><path class="cls-54" d="M1972.69,755.15c89.67-49,171.88-137.25,187.81-232.8l36.4-140.27c-74.76,29.76-126.82,94.67-213.94,60-39-15.54,2.2-74.78,5.35-107.57,1.1-11.39,4.08-33.31-8.37-39.7-23.3-12-51.48,4.34-72.4,16.08-37.88,21.23-78.83,44.51-120.76,55.34-24.24,6.25-54.37,7.93-70.62-11.81a345.87,345.87,0,0,0-32.25,81.15c-35.37,137-12.15,207.4,91.09,286.25,5.29,4,51.78,17.11,56.74,13.14Z"/><path class="cls-53" d="M2268.21,459.39c11.18,12,5.17,73.47,5.62,90.57,2.39,90.43-11.63,184.81-90,245.82-26.86,20.92-61.27,32.33-94.19,34.32-1.69.11-30.46,5.53-30.63,3.87-2.3-22.06,22-19,36.81-26.4,31.09-15.54,67.73-12.54,90.35-41.45,16.19-20.69,41.57-43.1,50.44-67,29.5-79.64,31.29-116.75,22.21-203.94"/><path class="cls-37" d="M1822.4,537s1.29,22.38,6.57,34.52c4.72,10.88,12.19-27.11,14.69-35.45,6.91-23.06,23.63-70,23.63-70s71,71.22,170.92,31.39c106.13-42.29,180.19-142,180.19-142l26.75,81.76s8.78,53.06,5.86,78.95-12.35,41.4-32,88.42-5.41,61.62-33.73,123.78S2090,870.26,2068.35,896.83s-49.57,38.12-73.64,37.06-67.55-20.12-114.91-64.38c-28.74-26.86-58.78-60.36-69.9-103-5-19.21-5.56-53.49-5.44-72.59-28.41-15-87.6-151.87-56.15-192.06C1773.42,469.75,1817.48,505.7,1822.4,537Z"/><path class="cls-55" d="M1827.25,566.27a35.59,35.59,0,0,0,1.72,5.2c4.72,10.88,12.19-27.11,14.69-35.45,6.91-23.06,23.63-70,23.63-70s71,71.22,170.92,31.39c35.09-14,66.68-34.24,93.25-55.1-22.48,24-50.42,45.5-74.21,60.75-28.11,18-142.56,57.63-151.08,88-12.48,44.4,25.84,74.84,19.94,116.46-13.21,93.14-34.46,210.81,80.08,226a73,73,0,0,1-11.48.43c-24.08-1.07-67.55-20.12-114.91-64.38-28.74-26.86-58.78-60.36-69.9-103-5-19.21-5.56-53.49-5.44-72.59-28.41-15-87.6-151.87-56.15-192.06a32.92,32.92,0,0,1,12.27-10,12.43,12.43,0,0,1,4,1.92c19,14.54,23.11,34.2,30,56,1.26,4,.41,8.94.82,12.91.53,5.08.92,12-.87,16.82-4.54,12.24-19-14.48-21.82-18.08-2-2.53-10.54-9.28-12.35-2.82-6.16,21.88,14.13,36.19,24.25,51.61,4,6,19.19,8,25,3,11.46-10,12.61-26.47,16.25-40.53C1826.29,570.5,1826.8,568.38,1827.25,566.27Z"/><path class="cls-56" d="M2127.11,617.27a303,303,0,0,0,2.12,87.67,126.71,126.71,0,0,0,8.25,26.81c.92,2.22,4.28,8.09,3.28,10.81-2,5.48-10.38,7.9-14.85,10.62-6.13,3.74-18.09,10.41-25.46,9.69-5.87-.56-10.74-2.22-17-2.53-2.38-.11-11.24,2.19-13,.87s-1.9-8.52-1.82-10.66c.16-4.22.43-9.95,1.82-13.77.82-2.22,4.95-5.15,6.51-7.18,5.66-7.32,13.72-12.82,17.71-21.63s5.75-18.64,8.69-27.93c6.55-20.67,14.3-41,18.91-62.28"/><rect class="cls-29" x="-24.71" y="2052.07" width="4634.42" height="650.04"/><rect class="cls-57" x="-39.61" y="2052.07" width="4657.58" height="650.04"/><path class="cls-58" d="M3251.66,2166l189.56,20.88,270.31,194-648.05,216-350.29-251.44Z"/><path class="cls-59" d="M3251.45,2162.28,3441,2183.17l270.31,194-648,216L2713,2341.76Z"/><path class="cls-34" d="M3239.46,2485.92c4.42-1.44,5.36-4.53,2.11-6.89l-243.2-176.51c-3.25-2.36-9.47-3.1-13.88-1.66s-5.36,4.53-2.12,6.88l243.2,176.51C3228.82,2486.61,3235.05,2487.36,3239.46,2485.92Z"/><path class="cls-34" d="M3137.13,2520c4.41-1.44,5.36-4.53,2.11-6.89L2896,2336.63c-3.25-2.36-9.47-3.1-13.88-1.66s-5.36,4.52-2.12,6.88l243.2,176.51C3126.49,2520.72,3132.71,2521.47,3137.13,2520Z"/><polygon class="cls-60" points="3268.43 2216.96 3303.97 2242.75 3084.81 2314.3 3049.26 2288.5 3268.43 2216.96"/><polygon class="cls-60" points="3252.85 2276.52 3288.39 2302.32 3136.58 2351.88 3101.04 2326.08 3252.85 2276.52"/><polygon class="cls-60" points="3249.51 2332.09 3285.05 2357.88 3188.35 2389.45 3152.81 2363.65 3249.51 2332.09"/><polygon class="cls-60" points="3363.96 2349.2 3399.5 2375 3240.13 2427.03 3204.58 2401.23 3363.96 2349.2"/><polygon class="cls-60" points="3485.97 2363.84 3521.52 2389.64 3291.9 2464.6 3256.35 2438.8 3485.97 2363.84"/><ellipse class="cls-26" cx="2961.07" cy="2335.95" rx="15.99" ry="31.91" transform="translate(458.7 5157.79) rotate(-86.7)"/><ellipse class="cls-26" cx="2858.74" cy="2370.06" rx="15.99" ry="31.91" transform="translate(328.2 5087.77) rotate(-86.7)"/><ellipse class="cls-26" cx="3012.86" cy="2373.54" rx="15.99" ry="31.91" transform="translate(469.99 5244.92) rotate(-86.7)"/><ellipse class="cls-26" cx="2910.54" cy="2407.65" rx="15.99" ry="31.91" transform="translate(339.49 5174.92) rotate(-86.7)"/><ellipse class="cls-26" cx="3064.66" cy="2411.13" rx="15.99" ry="31.91" transform="translate(481.28 5332.07) rotate(-86.7)"/><ellipse class="cls-26" cx="2962.33" cy="2445.24" rx="15.99" ry="31.91" transform="translate(350.78 5262.05) rotate(-86.7)"/><ellipse class="cls-26" cx="3117.79" cy="2449.7" rx="15.99" ry="31.91" transform="translate(492.85 5421.46) rotate(-86.7)"/><ellipse class="cls-26" cx="3015.46" cy="2483.8" rx="15.99" ry="31.91" transform="translate(362.35 5351.44) rotate(-86.7)"/><ellipse class="cls-26" cx="3170.93" cy="2488.26" rx="15.99" ry="31.91" transform="translate(504.43 5510.85) rotate(-86.7)"/><polygon class="cls-34" points="3616.82 2368.57 3463.14 2258.26 3451.53 2262.13 3605.21 2372.44 3616.82 2368.57"/><polygon class="cls-34" points="3589.56 2377.65 3435.89 2267.35 3424.27 2271.22 3577.95 2381.52 3589.56 2377.65"/><path class="cls-61" d="M3441,2183.17,3322.7,2226,3247,2162.18Z"/><path class="cls-11" d="M3441,2183.17l-108.31,38.32L3247,2162.18Z"/><path class="cls-58" d="M3143,2131.91l196.74-9.53,325.52,142.48-593.93,305.68L2649.53,2385.9Z"/><path class="cls-59" d="M3141.81,2128.41l196.75-9.52,325.52,142.47-593.94,305.69-421.83-184.64Z"/><path class="cls-34" d="M3218.32,2437.8c4.06-2.05,4.17-5.13.25-6.87l-293.4-130c-3.92-1.73-10.4-1.48-14.45.58s-4.17,5.13-.25,6.87l293.4,130C3207.79,2440.11,3214.27,2439.86,3218.32,2437.8Z"/><path class="cls-34" d="M3124.54,2486.07c4.05-2.05,4.16-5.13.24-6.87l-293.4-130c-3.92-1.73-10.39-1.48-14.45.58s-4.16,5.13-.24,6.87l293.4,130C3114,2488.38,3120.48,2488.12,3124.54,2486.07Z"/><polygon class="cls-60" points="3173.89 2177.74 3216.77 2196.74 3015.5 2298.69 2972.61 2279.69 3173.89 2177.74"/><polygon class="cls-60" points="3174.49 2236.75 3217.38 2255.76 3077.95 2326.37 3035.07 2307.37 3174.49 2236.75"/><polygon class="cls-60" points="3186.34 2290.07 3229.22 2309.08 3140.41 2354.06 3097.53 2335.05 3186.34 2290.07"/><polygon class="cls-60" points="3306.36 2288.6 3349.24 2307.6 3202.87 2381.74 3159.99 2362.73 3306.36 2288.6"/><polygon class="cls-60" points="3298.99 2351.65 3341.87 2370.65 3265.33 2409.42 3222.45 2390.41 3298.99 2351.65"/><ellipse class="cls-26" cx="2896.73" cy="2338.44" rx="32.83" ry="15.54" transform="translate(-138.44 182.73) rotate(-3.53)"/><ellipse class="cls-26" cx="2802.93" cy="2386.71" rx="32.83" ry="15.54" transform="translate(-141.59 177.05) rotate(-3.53)"/><ellipse class="cls-26" cx="2959.2" cy="2366.13" rx="32.83" ry="15.54" transform="translate(-140.03 186.63) rotate(-3.53)"/><ellipse class="cls-26" cx="2865.43" cy="2414.41" rx="32.83" ry="15.54" transform="translate(-143.18 180.95) rotate(-3.53)"/><ellipse class="cls-26" cx="3021.7" cy="2393.83" rx="32.83" ry="15.54" transform="translate(-141.61 190.53) rotate(-3.53)"/><ellipse class="cls-26" cx="2927.91" cy="2442.1" rx="32.83" ry="15.54" transform="translate(-144.76 184.85) rotate(-3.53)"/><ellipse class="cls-26" cx="3085.8" cy="2422.24" rx="32.83" ry="15.54" transform="translate(-143.24 194.53) rotate(-3.53)"/><ellipse class="cls-26" cx="2992.01" cy="2470.51" rx="32.83" ry="15.54" transform="translate(-146.39 188.84) rotate(-3.53)"/><ellipse class="cls-26" cx="3149.9" cy="2450.65" rx="32.83" ry="15.54" transform="translate(-144.87 198.53) rotate(-3.53)"/><ellipse class="cls-26" cx="3056.11" cy="2498.92" rx="32.83" ry="15.54" transform="translate(-148.02 192.84) rotate(-3.53)"/><polygon class="cls-34" points="3566.48 2267.81 3381.42 2186.81 3370.78 2192.29 3555.83 2273.29 3566.48 2267.81"/><polygon class="cls-34" points="3541.49 2280.67 3356.44 2199.67 3345.79 2205.15 3530.85 2286.15 3541.49 2280.67"/><path class="cls-61" d="M3338.56,2118.89,3231.07,2178l-93.73-49Z"/><path class="cls-11" d="M3338.56,2118.89l-98.66,53.2L3137.34,2129Z"/><path class="cls-62" d="M2631.3,2052.07H1144.72c-34.16,56.82-62.41,134.27-48.71,143.43,34.09,22.78,82.72,25.82,114.56,51.36,42.28,33.93,65.58,86.43,117,117.37,39.76,23.94,90,11.61,131.61,24.46,78.66,24.27,159.16,68.47,231.55,107.58,105.78,57.14,288.67,149,409.47,124.71,68.8-13.8,13.57-122.73-2.43-151.61-23.9-43.15-36.49-89.76-68.25-129.6-37.47-47-125.21-90.74-141.35-139.36-5.52-16.54,7.3-22.51,7.3-36.69,0-7.95-2.68-29.1,2.43-34.22,3.33-3.34,37,9.76,46.3,9.76,54.93,0,107.72-7.32,163.33-7.32,44.92,0,96.28-26.71,141.37-34.25,76.47-12.78,321.32,20,358.3-17.11C2618.38,2069.38,2626.41,2060.24,2631.3,2052.07Z"/><path class="cls-63" d="M2296.9,2052.07H1304.5l-17.46,7.41a.64.64,0,0,0-.24.11l.24-.11c7.81-2.58-7.65,73-8.81,81.68-8.14,61.34-15.08,108.66,55.77,122.87,62.33,12.5,121.74-13.56,180.46-29.61,68.9-18.85,141.07-23.84,211-49.39,56.33-20.55,105.8-53.28,162.94-72.4,10.52-3.5,24-.81,35-2.2,47-5.88,93.85-11.12,141.07-19.74,59.82-10.9,121.29,2,180.44-9.87,11.43-2.31,46.54-6.75,52.49-18.66C2298.77,2059.5,2298.39,2056,2296.9,2052.07Z"/><path class="cls-37" d="M2112.58,1442.46c-4.59.68-14,14.2-17.22,17.4-20.23,20-37.74,44.65-54.07,67.92-47.67,67.88-90.57,138.49-144,202.11-11.34,13.47-23.72,26-35.29,39.3-6.68,7.65-14.3,19.87-24.57,23.39-.07,0-.22-6.89-.23-7.4a127.8,127.8,0,0,0-1.12-17.6c-2.39-16.15-4.51-32.45-6.31-48.66-5.35-48.18-6.63-98-1.68-146.29,2.21-21.48.44-32.52,4.6-53.67,1.8-9.12-2.48-9.18,1.6-17.55,2-4.16,7.49-7.52,10.58-10.94,12.57-14,172.93-169,186.87-179.55C2040.75,1304.06,2106.39,1450.89,2112.58,1442.46Z"/><path class="cls-64" d="M2045.85,1327.36c21.21,35,58,113.12,65.75,115.4-4.84,2.14-13.22,14.12-16.24,17.1-20.23,20-37.74,44.65-54.07,67.92-47.67,67.88-90.57,138.49-144,202.11-11.34,13.47-23.72,26-35.29,39.3-6.68,7.65-14.3,19.87-24.57,23.39-.07,0-.22-6.89-.23-7.4a127.8,127.8,0,0,0-1.12-17.6c-2.39-16.15-4.51-32.45-6.31-48.66q-1.53-13.7-2.59-27.54l.55-.8c5.6-8.07,11.26-16.13,17-24.09,11.21-15.59,22.53-29.86,36.16-43.37,36.59-36.24,74.5-76.11,104.52-118,20-27.92,49.69-64.7,54.46-100.32,2.43-18.07-15.84-66.66-5.07-72.36Zm65.75,115.4a.81.81,0,0,0,1-.3A4.32,4.32,0,0,0,2111.6,1442.76Z"/><path class="cls-41" d="M1286.57,1102.78c-25.23,43-28.79,72.67-37,101.26-11.31,39.15-18,87.77-19.75,128.53-9.4,217.11,16.85,432.62,52.85,646.36,10,59.52,21.34,119.33,30.1,179.08,2.84,19.3,16.58,27.89,27.45,44.68,8.66,13.37,31.25,28.26,46.63,31.77,62.44,14.22,306.85-65.46,362.24-98,18.34-10.78,250.58-327.91,250.58-327.91s-132.16-139.29-133-155c-2.29-42.71-4.12-74.89-3-117.62,1-41.07,12.64-46.34,16.68-87.23.69-7-222,256.84-290.61,323.39-10.68,10.38-55.56,46.72-61,32.43-3.16-8.3,11.17-26.19,9.56-37.18-2.49-17-11.33-36-14.68-53.74-11.46-60.69-17-135.66-19.62-197.69-4.41-102.49-5.61-205.8-64.57-294.15C1407.61,1174.17,1375,1110,1310,1103.54,1301.89,1102.74,1294.47,1098.56,1286.57,1102.78Z"/><path class="cls-65" d="M1286.19,1103.43c-24.88,42.64-28.45,72.17-36.66,100.61-11.31,39.15-18,87.77-19.75,128.53-9.4,217.11,16.85,432.62,52.85,646.36,10,59.52,21.34,119.33,30.1,179.08,2.84,19.3,11.45,25.55,22.32,42.35,8.66,13.36,31.25,28.25,46.63,31.76,62.44,14.22,298.19-58.87,353.6-91.45,18.34-10.76,257.85-319.05,257.85-319.05s-66.82-69-100.73-71.12c-16.41-1,12.68,45.37,6.68,58.48-7.48,16.34-47.91-.08-48.15-4.62-.52-9.76-42.63-83.74-43.07-92.63-7.41.72,12.27,154.75-5.71,185.79-35.31,61-74.16,85.36-89.4,89.26-7.72,2-20.59,5.68-28.43,4.9-1.8-.18-12.34-4.35-12.6-4.15-9.56,7.87-16.55,17.8-29.94,20.22-31.14,5.68-65.12,1.87-95.79,9.31-21,5.12-36.35,18.21-59.56,12.92-16.65-3.79-17.25-83.79-16-96.77.09-.87,2.21-13.32-.09-13.55-28.94-2.88-43.46,170.37-46.64,189.14-.66,3.85-11.52,50.07-15,49.72-1.68-.16-2.33-19-1.67-61.06,1.1-71,9.67-135,30.63-202.79,5.2-16.83,11.73-33.36,23.86-46.44,1.29-1.38,19-15.93,17.63-17.57-1.08-1.3-8.59,4.47-9.16,4.9-9.33,7.06-78.25,44.85-83.52,36.15-31.35-51.91-39.51-222.84-45.08-284.76-12.77-142.16-29.27-284.23-44.08-426.22C1296,1147.78,1290.89,1125.15,1286.19,1103.43Z"/><path class="cls-66" d="M1507.48,1798.59c.13-2.09-2.77,3.16-3.75,5-2.25,4.31-3.31,6.17-5.79,10.5-5.51,9.59-11.38,19-16.68,28.7-18.07,33.27-32.2,68.54-44.67,104.22-3.42,9.74-4.93,20-7.08,30.09-.87,4-1.29,5.34-2.45,9.3-.6,2.08-1.54,8.08-2.31,6.06-2-5.24,11.13-37.66,13.57-43.34,16.62-38.57,40.08-72.68,59.9-109.42,6.47-12,28.65-39.56,16.61-54.32"/><path class="cls-67" d="M2141.81,1226.12l-1.39-189.87,147-73.81,335,23.9-11.58,331.94-120.75,105.19-306.59-17.9Z"/><path class="cls-68" d="M2282.79,962.33l10.78,341.38-153.48,99.66,161.45-89.74,309.73,9.83-310.1-21-15-340.44Z"/><path class="cls-69" d="M2160.88,1194.35l-2.65,201,331.13,8.28,102.28-82.85,5-202.61L2292.47,1135Z"/><path class="cls-67" d="M2397.72,1238.59c-7.95,2.56-14.93,9.36-16.57,18.38-2.05,11.17,12.35,15,19.76,13.69,13.36-2.38,14.57-30.59.12-32.12"/><path class="cls-67" d="M2419.1,1270.42c-1,.23-2.8-.13-3.63.65-5.67,5.5-2.29,11.26,4.65,9.86,1.65-.33,4.25-1.45,5.16-3.15,1.24-2.34-.07-6.65-2.86-6.86"/><path class="cls-67" d="M2280.47,1239c-6,3.21-12.43,13.07-10.82,20.74,1.82,8.71,14,12.17,20.91,10,15.17-4.84,10.6-32.39-5-31.67"/><path class="cls-67" d="M2206.6,1261.59c-2.27,2.55-4.43,5.28-3.74,9.19.93,5.26,7.24,9.89,11.83,6.16,2.59-2.09,5.53-5.71,5.47-9.44-.09-5.73-3.66-12.43-9.73-9"/><path class="cls-67" d="M2314,1335c-5.65-.41-6.82,8.8-.3,9.18,3.74.23,9.29-5.57,5.59-9.5-.82-.87-2.92-.73-4.06-.88"/><path class="cls-67" d="M2304.52,1325.11c-2.61.2-4.4,5.86-1.39,6.61,3.83,1,6.87-4.83,2.9-7"/><path class="cls-67" d="M2450.52,1211.82c-.4-3-4.37,2-4.78,2.79-2.23,4.35,4.16,9.42,8,8.59,7.85-1.72,6.41-11.9-.18-13.42"/><path class="cls-67" d="M2551.64,1248.11c-3.19-1.35-5.55,1.86-7.41,4.13-5.06,6.21-4.67,13.87,3.58,17.51,7.46,3.3,17.75-6.21,15.58-14.7-.82-3.2-5-4.79-7.41-6.14"/><path class="cls-67" d="M2532.66,1234.59c-4.49-3.49-9.66,9.43-5,12.16,9.58,5.53,16-13,5.92-11.64"/><path class="cls-67" d="M2573.77,1162.46c-1.54-.79-7.48,9.71-3.63,11.6s10.36-1.26,10-6.33c-.14-2.08-3.24-5.53-5.23-4.9"/><path class="cls-67" d="M2435.73,1347.42c-11.83-.26-15.35,19.08-2.7,21.65,3,.61,7.72,1,10.39-.88,6.06-4.43,5.06-15.79-1.08-19.34"/><path class="cls-67" d="M2353.47,1225.06c-3.72.5-4.26,12.28,1.83,11.61,3.5-.37,10.38-14.92.26-12.22"/><path class="cls-70" d="M2160.88,1194.35l324.25-1.15,111.51-75L2292.47,1135Z"/><path class="cls-71" d="M2139.56,1029.87l357.18,15.94-6.49,379-353.5-14.7Z"/><path class="cls-68" d="M2139.49,1037.42l.07-7.55,357.18,15.94-6.49,379-8.09-.33,6.36-371.48Z"/><path class="cls-71" d="M2490.25,1424.78l121.33-101,14-344.15-129,66.2Z"/><path class="cls-68" d="M2625.1,990.63l.45-11-129,66.2-6.28,378.9,9.45-7.86,6.06-365.05Z"/><path class="cls-71" d="M2139.39,1030l357.14,15.86,129-64.5L2282.19,961Z"/><path class="cls-72" d="M2166.05,1411.27c8.37-22.38,25.87-44.22,37.23-59.51L2357,1165.87a65.62,65.62,0,0,0,17.18,1c4-.31,7.39-.84,11.36.33,2.85.83,5.48,1.72,8.36,2.39,21.39,5-6.7,18.93-1.44,33.24,2.44,6.64,9.2,11.39,13.24,17,11.83,16.42,27.18,33,34.8,52,5.34,13.43,1.8,28.49,1.22,42.41-.7,17.15,1.22,40.13-5.16,56.34-6.92,17.64-20.75,34.43-32.55,50.58Z"/><path class="cls-34" d="M1936.7,1399.55s185.46-200.06,200.51-209.82,130-32.87,150.15-39.35S2382,1158,2398,1162.75s-1.15,25-29.51,24c0,0,37,24.94,39,29s4.88,25.58,5,29,5.46,17.87,7.65,20.38-8.32,21.5-9.85,25.58-52.28,65.13-69.29,80.82-69.31,70.9-69.31,70.9-48.07,56.9-122.17,79.06-112.07,44.36-112.07,44.36l-45.76,54.55s-44.28-31.47-75.78-89.89S1897.09,1425,1897.09,1425Z"/><path class="cls-36" d="M2420.39,1265.52c1.13,3.66-8.61,21.28-10.09,25.2-1.53,4.08-52.29,65.14-69.27,80.82s-69.31,70.9-69.31,70.9-48.07,56.91-122.2,79.07-112.06,44.37-112.06,44.37l-45.77,54.54s-35.44-25.19-65.45-72.34c4.37-2,8.64-4.65,12.26-6,17-6.39,38.59-6.85,48.42-23.79,6.35-11-4.4-24.94-3.7-36,0-.73.9-8.61,2.58-7.62,4.59,2.68,7.26,11,10.34,15.17,6.07,8.2,17.6,14.11,25.49,20.39,3,2.34,6.34,6.24,10.35,6.5,11.63.74,19-9,28.71-13.38,6.75-3,14.52-3.47,21.4-6.24,10.69-4.31,21.06-10.15,31.93-14.22,6-2.26,12.53-1.56,18.58-3.76,12.8-4.67,26.79-10.6,40.45-12.44,6-.81,15.56,1.24,20.48-3.11,3.45-3-5-14.2-2.92-17.71,1.87-3.2,7.49,1.48,11.07.54,9.07-2.4,16.09-3.57,22.83-9.51,2.14-1.88,6.79.63,9.43-1.34,5.71-4.25,13.37-11.58,19.79-14.48,3.72-1.68,12-5.11,13-9.78.77-3.66-7.07-9.79-5.57-12.38.52-.88,6.47,1.86,7.47,2.06,2.25.47,10.43-2,12.36-3.27,6.22-4.09,8.87-11.16,14.25-15.9,5.76-5.09,13.05-11.16,19.79-14.47,3-1.5,9.09-2.53,11.27-5.3,13.85-17.57,28.55-36,45.73-53.67,7-7.25,16.63-11.93,23.78-19C2403.88,1281.41,2412.36,1273.57,2420.39,1265.52Z"/><path class="cls-36" d="M2413.51,1249.14c.55,1.89,1.3,4.12,2.13,6.3-16.1,9.78-44.46,32.08-59.52,42.64-19.78,13.87-74.64,56.76-74.64,56.76l-16.64-22s16,1.57,23-2,39.13-21.49,42.05-24.76C2332.2,1303.42,2389.41,1265.2,2413.51,1249.14Zm-6.67-34.19a4,4,0,0,1,.64.86,33.48,33.48,0,0,1,1.77,6.39c-22.13,7.5-85.05,29.12-85.69,32.53-.76,4.12-72.59,17.59-76.54,22.76s-1.79,12.64-1.79,12.64l-16.79-18s8.86-1.29,13-.5,70-28.34,73.77-30.33C2318.38,1239.61,2384.8,1221.08,2406.84,1215Zm-26.24-19.82-71.38-2.79s-8,1.42-16.35,3.52-75.31,24.14-80,29.78a103.28,103.28,0,0,0-8.46,12.16l-15-21.14s4-2.29,12.32-1.09,102.52-28.76,102.52-28.76l66,1.22C2372.4,1189.47,2376.22,1192.07,2380.6,1195.13Z"/><path class="cls-73" d="M2282,2148.67h-36.12v23.18h-36.08V2195h-36.12v23.16l-104.47,7.29s27.92,8.17,48.08,14.05a147.91,147.91,0,0,0,41.44,5.94h534.82a11.56,11.56,0,0,0,11.54-11.58v0a11.56,11.56,0,0,1,11.54-11.58h13a11.59,11.59,0,0,0,11.57-11.58v0a11.66,11.66,0,0,1,3.38-8.19,11.48,11.48,0,0,1,8.16-3.39h13a11.56,11.56,0,0,0,11.54-11.58,11.54,11.54,0,0,1,3.38-8.19,11.41,11.41,0,0,1,8.16-3.39h13a11.64,11.64,0,0,0,11.57-11.61,11.64,11.64,0,0,1,3.38-8.19,11.48,11.48,0,0,1,8.16-3.39h6.49a18.08,18.08,0,0,0,18.06-18.11v-9.17H2282Z"/><rect class="cls-74" x="2245.04" y="2115.48" width="567.5" height="27.27"/><path class="cls-75" d="M2242.81,2124.24c21.49,0,38.93,4.18,38.93,9.33s-17.44,9.33-38.93,9.33-38.9-4.18-38.9-9.33c0-1.22-1.19-8.41.54-9.47C2210.16,2120.63,2226.38,2124.24,2242.81,2124.24Zm94.31,0c21.47,0,38.93,4.18,38.93,9.33s-17.46,9.33-38.93,9.33-38.89-4.18-38.89-9.33S2315.63,2124.24,2337.12,2124.24Zm94.32,0c21.46,0,38.89,4.18,38.89,9.33s-17.43,9.33-38.89,9.33-38.93-4.18-38.93-9.33S2410,2124.24,2431.44,2124.24Zm94.31,0c21.46,0,38.89,4.18,38.89,9.33s-17.43,9.33-38.89,9.33-38.93-4.18-38.93-9.33S2504.26,2124.24,2525.75,2124.24Zm94.28,0c21.49,0,38.93,4.18,38.93,9.33s-17.44,9.33-38.93,9.33-38.9-4.18-38.9-9.33S2598.57,2124.24,2620,2124.24Zm94.31,0c21.49,0,38.93,4.18,38.93,9.33s-17.44,9.33-38.93,9.33-38.89-4.18-38.89-9.33S2692.88,2124.24,2714.34,2124.24Zm94.32,0c17.51,0,33.68-3.74,38.57.08,1.08.87.35,8.3.35,9.25,0,5.15-17.46,9.33-38.92,9.33s-38.9-4.18-38.9-9.33S2787.19,2124.24,2808.66,2124.24Z"/><path class="cls-33" d="M2242.81,2115.4c21.49,0,38.93,4.17,38.93,9.32s-17.44,9.33-38.93,9.33-38.9-4.17-38.9-9.33S2221.35,2115.4,2242.81,2115.4Zm94.31,0c21.47,0,38.93,4.17,38.93,9.32s-17.46,9.33-38.93,9.33-38.89-4.17-38.89-9.33S2315.63,2115.4,2337.12,2115.4Zm94.32,0c21.46,0,38.89,4.17,38.89,9.32s-17.43,9.33-38.89,9.33-38.93-4.17-38.93-9.33S2410,2115.4,2431.44,2115.4Zm94.31,0c21.46,0,38.89,4.17,38.89,9.32s-17.43,9.33-38.89,9.33-38.93-4.17-38.93-9.33S2504.26,2115.4,2525.75,2115.4Zm94.28,0c21.49,0,38.93,4.17,38.93,9.32s-17.44,9.33-38.93,9.33-38.9-4.17-38.9-9.33S2598.57,2115.4,2620,2115.4Zm94.31,0c21.49,0,38.93,4.17,38.93,9.32s-17.44,9.33-38.93,9.33-38.89-4.17-38.89-9.33S2692.88,2115.4,2714.34,2115.4Zm94.32,0c21.46,0,38.92,4.17,38.92,9.32s-17.46,9.33-38.92,9.33-38.9-4.17-38.9-9.33S2787.19,2115.4,2808.66,2115.4Z"/><path class="cls-76" d="M2206.05,2127.76c-1.38-1-2.14-2-2.14-3,0-5.15,17.44-9.32,38.9-9.32s38.93,4.17,38.93,9.32c0,1.06-.76,2.09-2.14,3-5.3-3.63-19.76-6.26-36.79-6.26S2211.32,2124.13,2206.05,2127.76Zm94.31,0c-1.4-1-2.13-2-2.13-3,0-5.15,17.4-9.32,38.89-9.32s38.93,4.17,38.93,9.32c0,1.06-.76,2.09-2.14,3-5.3-3.63-19.76-6.26-36.79-6.26S2305.63,2124.13,2300.36,2127.76Zm471.53,0c-1.4-1-2.13-2-2.13-3,0-5.15,17.43-9.32,38.9-9.32s38.92,4.17,38.92,9.32c0,1.06-.76,2.09-2.14,3-5.29-3.63-19.75-6.26-36.78-6.26S2777.16,2124.13,2771.89,2127.76Zm-377.24,0c-1.38-1-2.14-2-2.14-3,0-5.15,17.44-9.32,38.93-9.32s38.89,4.17,38.89,9.32c0,1.06-.73,2.09-2.13,3-5.27-3.63-19.76-6.26-36.76-6.26S2399.94,2124.13,2394.65,2127.76Zm94.31,0c-1.38-1-2.14-2-2.14-3,0-5.15,17.44-9.32,38.93-9.32s38.89,4.17,38.89,9.32c0,1.06-.75,2.09-2.13,3-5.27-3.63-19.76-6.26-36.76-6.26S2494.23,2124.13,2489,2127.76Zm94.31,0c-1.38-1-2.14-2-2.14-3,0-5.15,17.44-9.32,38.9-9.32s38.93,4.17,38.93,9.32c0,1.06-.76,2.09-2.14,3-5.27-3.63-19.76-6.26-36.79-6.26S2588.54,2124.13,2583.27,2127.76Zm94.31,0c-1.38-1-2.13-2-2.13-3,0-5.15,17.43-9.32,38.89-9.32s38.93,4.17,38.93,9.32c0,1.06-.76,2.09-2.14,3-5.29-3.63-19.76-6.26-36.79-6.26S2682.85,2124.13,2677.58,2127.76Z"/><rect class="cls-74" x="2208.94" y="2138.66" width="567.5" height="27.27"/><path class="cls-75" d="M2206.71,2147.42c21.49,0,38.93,4.18,38.93,9.33s-17.44,9.33-38.93,9.33-38.9-4.18-38.9-9.33c0-1.22-1.19-8.41.54-9.47C2174.06,2143.81,2190.28,2147.42,2206.71,2147.42Zm94.31,0c21.47,0,38.93,4.18,38.93,9.33s-17.46,9.33-38.93,9.33-38.89-4.18-38.89-9.33S2279.53,2147.42,2301,2147.42Zm94.31,0c21.47,0,38.9,4.18,38.9,9.33s-17.43,9.33-38.9,9.33-38.92-4.18-38.92-9.33S2373.85,2147.42,2395.33,2147.42Zm94.32,0c21.46,0,38.89,4.18,38.89,9.33s-17.43,9.33-38.89,9.33-38.93-4.18-38.93-9.33S2468.16,2147.42,2489.65,2147.42Zm94.28,0c21.49,0,38.93,4.18,38.93,9.33s-17.44,9.33-38.93,9.33-38.9-4.18-38.9-9.33S2562.47,2147.42,2583.93,2147.42Zm94.31,0c21.49,0,38.93,4.18,38.93,9.33s-17.44,9.33-38.93,9.33-38.89-4.18-38.89-9.33S2656.78,2147.42,2678.24,2147.42Zm94.32,0c17.51,0,33.68-3.74,38.57.08,1.08.87.35,8.3.35,9.25,0,5.15-17.46,9.33-38.92,9.33s-38.9-4.18-38.9-9.33S2751.09,2147.42,2772.56,2147.42Z"/><path class="cls-33" d="M2206.71,2138.58c21.49,0,38.93,4.17,38.93,9.32s-17.44,9.33-38.93,9.33-38.9-4.17-38.9-9.33S2185.25,2138.58,2206.71,2138.58Zm94.31,0c21.47,0,38.93,4.17,38.93,9.32s-17.46,9.33-38.93,9.33-38.89-4.17-38.89-9.33S2279.53,2138.58,2301,2138.58Zm94.31,0c21.47,0,38.9,4.17,38.9,9.32s-17.43,9.33-38.9,9.33-38.92-4.17-38.92-9.33S2373.85,2138.58,2395.33,2138.58Zm94.32,0c21.46,0,38.89,4.17,38.89,9.32s-17.43,9.33-38.89,9.33-38.93-4.17-38.93-9.33S2468.16,2138.58,2489.65,2138.58Zm94.28,0c21.49,0,38.93,4.17,38.93,9.32s-17.44,9.33-38.93,9.33-38.9-4.17-38.9-9.33S2562.47,2138.58,2583.93,2138.58Zm94.31,0c21.49,0,38.93,4.17,38.93,9.32s-17.44,9.33-38.93,9.33-38.89-4.17-38.89-9.33S2656.78,2138.58,2678.24,2138.58Zm94.32,0c21.46,0,38.92,4.17,38.92,9.32s-17.46,9.33-38.92,9.33-38.9-4.17-38.9-9.33S2751.09,2138.58,2772.56,2138.58Z"/><path class="cls-76" d="M2170,2150.94c-1.38-1-2.14-2-2.14-3,0-5.15,17.44-9.32,38.9-9.32s38.93,4.17,38.93,9.32c0,1.06-.76,2.09-2.14,3-5.3-3.63-19.76-6.26-36.79-6.26S2175.22,2147.31,2170,2150.94Zm94.31,0c-1.41-1-2.13-2-2.13-3,0-5.15,17.4-9.32,38.89-9.32s38.93,4.17,38.93,9.32c0,1.06-.76,2.09-2.14,3-5.3-3.63-19.76-6.26-36.79-6.26S2269.53,2147.31,2264.26,2150.94Zm471.53,0c-1.4-1-2.13-2-2.13-3,0-5.15,17.43-9.32,38.9-9.32s38.92,4.17,38.92,9.32c0,1.06-.76,2.09-2.14,3-5.29-3.63-19.75-6.26-36.78-6.26S2741.06,2147.31,2735.79,2150.94Zm-377.24,0c-1.38-1-2.14-2-2.14-3,0-5.15,17.44-9.32,38.92-9.32s38.9,4.17,38.9,9.32c0,1.06-.73,2.09-2.13,3-5.27-3.63-19.76-6.26-36.77-6.26S2363.84,2147.31,2358.55,2150.94Zm94.31,0c-1.38-1-2.14-2-2.14-3,0-5.15,17.44-9.32,38.93-9.32s38.89,4.17,38.89,9.32c0,1.06-.75,2.09-2.13,3-5.27-3.63-19.76-6.26-36.76-6.26S2458.13,2147.31,2452.86,2150.94Zm94.31,0c-1.38-1-2.14-2-2.14-3,0-5.15,17.44-9.32,38.9-9.32s38.93,4.17,38.93,9.32c0,1.06-.76,2.09-2.14,3-5.27-3.63-19.76-6.26-36.79-6.26S2552.44,2147.31,2547.17,2150.94Zm94.31,0c-1.38-1-2.13-2-2.13-3,0-5.15,17.43-9.32,38.89-9.32s38.93,4.17,38.93,9.32c0,1.06-.76,2.09-2.14,3-5.3-3.63-19.76-6.26-36.79-6.26S2646.75,2147.31,2641.48,2150.94Z"/><rect class="cls-74" x="2172.84" y="2161.84" width="567.5" height="27.27"/><path class="cls-75" d="M2170.61,2170.6c21.49,0,38.93,4.18,38.93,9.33s-17.44,9.33-38.93,9.33-38.9-4.18-38.9-9.33c0-1.22-1.19-8.41.54-9.47C2138,2167,2154.18,2170.6,2170.61,2170.6Zm94.31,0c21.47,0,38.93,4.18,38.93,9.33s-17.46,9.33-38.93,9.33-38.9-4.18-38.9-9.33S2243.43,2170.6,2264.92,2170.6Zm94.31,0c21.47,0,38.9,4.18,38.9,9.33s-17.43,9.33-38.9,9.33-38.92-4.18-38.92-9.33S2337.75,2170.6,2359.23,2170.6Zm94.32,0c21.46,0,38.89,4.18,38.89,9.33s-17.43,9.33-38.89,9.33-38.93-4.18-38.93-9.33S2432.06,2170.6,2453.55,2170.6Zm94.28,0c21.49,0,38.93,4.18,38.93,9.33s-17.44,9.33-38.93,9.33-38.9-4.18-38.9-9.33S2526.37,2170.6,2547.83,2170.6Zm94.31,0c21.49,0,38.93,4.18,38.93,9.33s-17.44,9.33-38.93,9.33-38.89-4.18-38.89-9.33S2620.68,2170.6,2642.14,2170.6Zm94.32,0c17.51,0,33.68-3.74,38.57.08,1.08.87.35,8.3.35,9.25,0,5.15-17.46,9.33-38.92,9.33s-38.9-4.18-38.9-9.33S2715,2170.6,2736.46,2170.6Z"/><path class="cls-33" d="M2170.61,2161.75c21.49,0,38.93,4.18,38.93,9.33s-17.44,9.33-38.93,9.33-38.9-4.17-38.9-9.33S2149.15,2161.75,2170.61,2161.75Zm94.31,0c21.47,0,38.93,4.18,38.93,9.33s-17.46,9.33-38.93,9.33-38.9-4.17-38.9-9.33S2243.43,2161.75,2264.92,2161.75Zm94.31,0c21.47,0,38.9,4.18,38.9,9.33s-17.43,9.33-38.9,9.33-38.92-4.17-38.92-9.33S2337.75,2161.75,2359.23,2161.75Zm94.32,0c21.46,0,38.89,4.18,38.89,9.33s-17.43,9.33-38.89,9.33-38.93-4.17-38.93-9.33S2432.06,2161.75,2453.55,2161.75Zm94.28,0c21.49,0,38.93,4.18,38.93,9.33s-17.44,9.33-38.93,9.33-38.9-4.17-38.9-9.33S2526.37,2161.75,2547.83,2161.75Zm94.31,0c21.49,0,38.93,4.18,38.93,9.33s-17.44,9.33-38.93,9.33-38.89-4.17-38.89-9.33S2620.68,2161.75,2642.14,2161.75Zm94.32,0c21.46,0,38.92,4.18,38.92,9.33s-17.46,9.33-38.92,9.33-38.9-4.17-38.9-9.33S2715,2161.75,2736.46,2161.75Z"/><path class="cls-76" d="M2133.85,2174.12c-1.38-.95-2.14-2-2.14-3,0-5.15,17.44-9.33,38.9-9.33s38.93,4.18,38.93,9.33c0,1.06-.76,2.09-2.14,3-5.3-3.63-19.76-6.26-36.79-6.26S2139.12,2170.49,2133.85,2174.12Zm94.31,0c-1.41-.95-2.14-2-2.14-3,0-5.15,17.41-9.33,38.9-9.33s38.93,4.18,38.93,9.33c0,1.06-.76,2.09-2.14,3-5.3-3.63-19.76-6.26-36.79-6.26S2233.43,2170.49,2228.16,2174.12Zm471.53,0c-1.4-.95-2.13-2-2.13-3,0-5.15,17.43-9.33,38.9-9.33s38.92,4.18,38.92,9.33c0,1.06-.76,2.09-2.14,3-5.29-3.63-19.76-6.26-36.78-6.26S2705,2170.49,2699.69,2174.12Zm-377.25,0c-1.37-.95-2.13-2-2.13-3,0-5.15,17.44-9.33,38.92-9.33s38.9,4.18,38.9,9.33c0,1.06-.73,2.09-2.13,3-5.27-3.63-19.76-6.26-36.77-6.26S2327.74,2170.49,2322.44,2174.12Zm94.32,0c-1.38-.95-2.14-2-2.14-3,0-5.15,17.44-9.33,38.93-9.33s38.89,4.18,38.89,9.33c0,1.06-.75,2.09-2.13,3-5.27-3.63-19.76-6.26-36.76-6.26S2422,2170.49,2416.76,2174.12Zm94.31,0c-1.38-.95-2.14-2-2.14-3,0-5.15,17.44-9.33,38.9-9.33s38.93,4.18,38.93,9.33c0,1.06-.76,2.09-2.14,3-5.27-3.63-19.76-6.26-36.79-6.26S2516.34,2170.49,2511.07,2174.12Zm94.31,0c-1.38-.95-2.13-2-2.13-3,0-5.15,17.43-9.33,38.89-9.33s38.93,4.18,38.93,9.33c0,1.06-.76,2.09-2.14,3-5.3-3.63-19.76-6.26-36.79-6.26S2610.65,2170.49,2605.38,2174.12Z"/><rect class="cls-74" x="2136.74" y="2185.02" width="567.5" height="27.27"/><path class="cls-75" d="M2134.51,2193.78c21.49,0,38.93,4.18,38.93,9.33s-17.44,9.33-38.93,9.33-38.9-4.18-38.9-9.33c0-1.22-1.19-8.41.54-9.47C2101.86,2190.17,2118.08,2193.78,2134.51,2193.78Zm94.31,0c21.47,0,38.93,4.18,38.93,9.33s-17.46,9.33-38.93,9.33-38.9-4.18-38.9-9.33S2207.33,2193.78,2228.82,2193.78Zm94.31,0c21.47,0,38.9,4.18,38.9,9.33s-17.43,9.33-38.9,9.33-38.92-4.18-38.92-9.33S2301.64,2193.78,2323.13,2193.78Zm94.32,0c21.46,0,38.89,4.18,38.89,9.33s-17.43,9.33-38.89,9.33-38.93-4.18-38.93-9.33S2396,2193.78,2417.45,2193.78Zm94.28,0c21.49,0,38.93,4.18,38.93,9.33s-17.44,9.33-38.93,9.33-38.9-4.18-38.9-9.33S2490.27,2193.78,2511.73,2193.78Zm94.31,0c21.49,0,38.93,4.18,38.93,9.33s-17.44,9.33-38.93,9.33-38.89-4.18-38.89-9.33S2584.58,2193.78,2606,2193.78Zm94.32,0c17.51,0,33.68-3.74,38.57.08,1.08.87.35,8.3.35,9.25,0,5.15-17.46,9.33-38.92,9.33s-38.9-4.18-38.9-9.33S2678.89,2193.78,2700.36,2193.78Z"/><path class="cls-33" d="M2134.51,2184.93c21.49,0,38.93,4.18,38.93,9.33s-17.44,9.33-38.93,9.33-38.9-4.17-38.9-9.33S2113.05,2184.93,2134.51,2184.93Zm94.31,0c21.47,0,38.93,4.18,38.93,9.33s-17.46,9.33-38.93,9.33-38.9-4.17-38.9-9.33S2207.33,2184.93,2228.82,2184.93Zm94.31,0c21.47,0,38.9,4.18,38.9,9.33s-17.43,9.33-38.9,9.33-38.92-4.17-38.92-9.33S2301.64,2184.93,2323.13,2184.93Zm94.32,0c21.46,0,38.89,4.18,38.89,9.33s-17.43,9.33-38.89,9.33-38.93-4.17-38.93-9.33S2396,2184.93,2417.45,2184.93Zm94.28,0c21.49,0,38.93,4.18,38.93,9.33s-17.44,9.33-38.93,9.33-38.9-4.17-38.9-9.33S2490.27,2184.93,2511.73,2184.93Zm94.31,0c21.49,0,38.93,4.18,38.93,9.33s-17.44,9.33-38.93,9.33-38.89-4.17-38.89-9.33S2584.58,2184.93,2606,2184.93Zm94.32,0c21.46,0,38.92,4.18,38.92,9.33s-17.46,9.33-38.92,9.33-38.9-4.17-38.9-9.33S2678.89,2184.93,2700.36,2184.93Z"/><path class="cls-76" d="M2097.75,2197.3c-1.38-1-2.14-2-2.14-3,0-5.15,17.44-9.33,38.9-9.33s38.93,4.18,38.93,9.33c0,1.06-.76,2.09-2.14,3-5.3-3.63-19.76-6.26-36.79-6.26S2103,2193.67,2097.75,2197.3Zm94.31,0c-1.41-1-2.14-2-2.14-3,0-5.15,17.41-9.33,38.9-9.33s38.93,4.18,38.93,9.33c0,1.06-.76,2.09-2.14,3-5.3-3.63-19.76-6.26-36.79-6.26S2197.33,2193.67,2192.06,2197.3Zm471.53,0c-1.4-1-2.13-2-2.13-3,0-5.15,17.43-9.33,38.9-9.33s38.92,4.18,38.92,9.33c0,1.06-.76,2.09-2.14,3-5.29-3.63-19.76-6.26-36.78-6.26S2668.86,2193.67,2663.59,2197.3Zm-377.25,0c-1.37-1-2.13-2-2.13-3,0-5.15,17.43-9.33,38.92-9.33s38.9,4.18,38.9,9.33c0,1.06-.73,2.09-2.13,3-5.27-3.63-19.76-6.26-36.77-6.26S2291.64,2193.67,2286.34,2197.3Zm94.32,0c-1.38-1-2.14-2-2.14-3,0-5.15,17.44-9.33,38.93-9.33s38.89,4.18,38.89,9.33c0,1.06-.75,2.09-2.13,3-5.27-3.63-19.76-6.26-36.76-6.26S2385.93,2193.67,2380.66,2197.3Zm94.31,0c-1.38-1-2.14-2-2.14-3,0-5.15,17.44-9.33,38.9-9.33s38.93,4.18,38.93,9.33c0,1.06-.76,2.09-2.14,3-5.27-3.63-19.76-6.26-36.79-6.26S2480.24,2193.67,2475,2197.3Zm94.31,0c-1.38-1-2.13-2-2.13-3,0-5.15,17.43-9.33,38.89-9.33s38.93,4.18,38.93,9.33c0,1.06-.76,2.09-2.14,3-5.3-3.63-19.76-6.26-36.79-6.26S2574.55,2193.67,2569.28,2197.3Z"/><rect class="cls-74" x="2100.64" y="2208.2" width="567.5" height="27.27"/><path class="cls-75" d="M2098.41,2217c21.49,0,38.93,4.18,38.93,9.33s-17.44,9.33-38.93,9.33-38.9-4.18-38.9-9.33c0-1.22-1.19-8.41.54-9.47C2065.76,2213.35,2082,2217,2098.41,2217Zm94.31,0c21.47,0,38.93,4.18,38.93,9.33s-17.46,9.33-38.93,9.33-38.9-4.18-38.9-9.33S2171.23,2217,2192.72,2217Zm94.31,0c21.47,0,38.9,4.18,38.9,9.33s-17.43,9.33-38.9,9.33-38.92-4.18-38.92-9.33S2265.54,2217,2287,2217Zm94.32,0c21.46,0,38.89,4.18,38.89,9.33s-17.43,9.33-38.89,9.33-38.93-4.18-38.93-9.33S2359.86,2217,2381.35,2217Zm94.28,0c21.49,0,38.93,4.18,38.93,9.33s-17.44,9.33-38.93,9.33-38.9-4.18-38.9-9.33S2454.17,2217,2475.63,2217Zm94.31,0c21.49,0,38.93,4.18,38.93,9.33s-17.44,9.33-38.93,9.33-38.89-4.18-38.89-9.33S2548.48,2217,2569.94,2217Zm94.32,0c17.51,0,33.68-3.74,38.57.08,1.08.87.35,8.3.35,9.25,0,5.15-17.46,9.33-38.92,9.33s-38.9-4.18-38.9-9.33S2642.79,2217,2664.26,2217Z"/><path class="cls-33" d="M2098.41,2208.11c21.49,0,38.93,4.18,38.93,9.33s-17.44,9.33-38.93,9.33-38.9-4.17-38.9-9.33S2077,2208.11,2098.41,2208.11Zm94.31,0c21.47,0,38.93,4.18,38.93,9.33s-17.46,9.33-38.93,9.33-38.9-4.17-38.9-9.33S2171.23,2208.11,2192.72,2208.11Zm94.31,0c21.47,0,38.9,4.18,38.9,9.33s-17.43,9.33-38.9,9.33-38.92-4.17-38.92-9.33S2265.54,2208.11,2287,2208.11Zm94.32,0c21.46,0,38.89,4.18,38.89,9.33s-17.43,9.33-38.89,9.33-38.93-4.17-38.93-9.33S2359.86,2208.11,2381.35,2208.11Zm94.28,0c21.49,0,38.93,4.18,38.93,9.33s-17.44,9.33-38.93,9.33-38.9-4.17-38.9-9.33S2454.17,2208.11,2475.63,2208.11Zm94.31,0c21.49,0,38.93,4.18,38.93,9.33s-17.44,9.33-38.93,9.33-38.89-4.17-38.89-9.33S2548.48,2208.11,2569.94,2208.11Zm94.32,0c21.46,0,38.92,4.18,38.92,9.33s-17.46,9.33-38.92,9.33-38.9-4.17-38.9-9.33S2642.79,2208.11,2664.26,2208.11Z"/><path class="cls-76" d="M2061.65,2220.48c-1.38-.95-2.14-2-2.14-3,0-5.15,17.44-9.33,38.9-9.33s38.93,4.18,38.93,9.33c0,1.06-.76,2.09-2.14,3-5.3-3.63-19.76-6.26-36.79-6.26S2066.92,2216.85,2061.65,2220.48Zm94.31,0c-1.41-.95-2.14-2-2.14-3,0-5.15,17.41-9.33,38.9-9.33s38.93,4.18,38.93,9.33c0,1.06-.76,2.09-2.14,3-5.3-3.63-19.76-6.26-36.79-6.26S2161.23,2216.85,2156,2220.48Zm471.53,0c-1.4-.95-2.13-2-2.13-3,0-5.15,17.43-9.33,38.9-9.33s38.92,4.18,38.92,9.33c0,1.06-.76,2.09-2.14,3-5.29-3.63-19.76-6.26-36.78-6.26S2632.76,2216.85,2627.49,2220.48Zm-377.25,0c-1.37-.95-2.13-2-2.13-3,0-5.15,17.43-9.33,38.92-9.33s38.9,4.18,38.9,9.33c0,1.06-.73,2.09-2.13,3-5.27-3.63-19.76-6.26-36.77-6.26S2255.54,2216.85,2250.24,2220.48Zm94.32,0c-1.38-.95-2.14-2-2.14-3,0-5.15,17.44-9.33,38.93-9.33s38.89,4.18,38.89,9.33c0,1.06-.75,2.09-2.13,3-5.27-3.63-19.76-6.26-36.76-6.26S2349.83,2216.85,2344.56,2220.48Zm94.31,0c-1.38-.95-2.14-2-2.14-3,0-5.15,17.44-9.33,38.9-9.33s38.93,4.18,38.93,9.33c0,1.06-.76,2.09-2.14,3-5.27-3.63-19.76-6.26-36.79-6.26S2444.14,2216.85,2438.87,2220.48Zm94.31,0c-1.38-.95-2.13-2-2.13-3,0-5.15,17.43-9.33,38.89-9.33s38.93,4.18,38.93,9.33c0,1.06-.76,2.09-2.14,3-5.3-3.63-19.76-6.26-36.79-6.26S2538.45,2216.85,2533.18,2220.48Z"/><path class="cls-34" d="M4100.17,454.43a25.09,25.09,0,0,0-25-25.11h-1439a25.07,25.07,0,0,0-25,25.11V811.06a25.12,25.12,0,0,1-17.4,23.94c-33.18,10.65-108,34.65-172.8,55.48a18.68,18.68,0,0,0,5.68,36.46H4075.13a25.1,25.1,0,0,0,25-25.14Z"/><path class="cls-18" d="M2711,614.47a14.93,14.93,0,0,0,1.22,6.41c1.51,3.15,4.35,4.67,8.4,4.67a9.24,9.24,0,0,0,6.59-2.54,9.76,9.76,0,0,0,2.84-7.42c0-4.27-1.73-7.11-5.27-8.54-1.93-.81-5.07-1.22-9.22-1.22v-9.14c4.15,0,7-.41,8.61-1.22,2.84-1.22,4.25-3.76,4.25-7.62a8.54,8.54,0,0,0-2.12-6,8.1,8.1,0,0,0-6.08-2.34c-3,0-5.27.92-6.69,2.85a11.84,11.84,0,0,0-2,7.62h-11.86a31.09,31.09,0,0,1,1.62-9.15,21.74,21.74,0,0,1,5-7,17.12,17.12,0,0,1,5.87-3.46,25.87,25.87,0,0,1,8.41-1.22c6.28,0,11.25,1.63,15,4.78s5.68,7.52,5.68,12.91a14.11,14.11,0,0,1-3.35,9.65,10.09,10.09,0,0,1-4.45,3.36c1.11,0,2.83,1,5,3,3.24,3.05,4.86,7.11,4.86,12.4a20.47,20.47,0,0,1-5.67,14.43c-3.75,4.16-9.42,6.3-16.82,6.3-9.21,0-15.6-3-19.14-9-1.83-3.15-2.84-7.31-3.14-12.5Z"/><path class="cls-8" d="M2694.4,701.51l64.89,87.42a12.69,12.69,0,0,0,22.82-6.1l19.45-164.54c54.32.1,285.6.47,285.6.47l0-25.52-296.92-.47A12.73,12.73,0,0,0,2777.63,604l-17,144-45.83-61.74Z"/><path class="cls-18" d="M2819.31,682.39v-17.8a141.77,141.77,0,0,0,17.33-1.67,24.6,24.6,0,0,0,12.94-7.13c2.3-2.3,4-5.44,5.22-9.63a24.61,24.61,0,0,0,1-5.23h21.71V774.74h-26.93V682.39Z"/><path class="cls-18" d="M2962.93,756.52c7.72,0,12.94-4,15.24-12.14,2.5-8.17,3.75-19.9,3.75-35.4q0-23.87-3.75-35.8c-2.3-7.54-7.52-11.52-15.24-11.52-7.93,0-12.94,4-15.45,11.52q-3.75,11.93-3.75,35.8c0,15.5,1.25,27.23,3.75,35.4S2955,756.52,2962.93,756.52ZM3008.85,709c0,22.2-3.34,39.17-10.23,51.1s-18.78,18-35.69,18c-17.12,0-29-6.07-35.69-18-6.89-11.93-10.23-28.9-10.23-51.1,0-22,3.34-39,10.23-51.09,6.67-11.94,18.57-18,35.69-18,16.91,0,28.8,6.07,35.69,18C3005.51,670,3008.85,687,3008.85,709Z"/><path class="cls-18" d="M3197.74,685.36v24.29h-99.57V685.36Zm0,43.14v24.29h-99.57V728.5Z"/><path class="cls-18" d="M3234.31,748.35c3.76-8.79,12.52-18.21,26.51-28.27,12.1-8.58,19.83-14.86,23.38-18.63,5.43-5.87,8.14-12.36,8.14-19.27,0-5.65-1.47-10.26-4.6-14s-7.72-5.65-13.35-5.65c-8.15,0-13.57,2.93-16.49,9-1.68,3.35-2.51,8.8-2.93,16.33H3229.5q.63-17,6.27-27.64c6.89-13.19,19.41-19.89,37.15-19.89,14.2,0,25.47,4,33.82,11.73,8.14,7.74,12.53,18.21,12.53,31.2a42.82,42.82,0,0,1-9,26.38c-3.76,5-10.23,10.68-19,17l-10.44,7.55c-6.67,4.6-11,8-13.56,10a34.21,34.21,0,0,0-6.06,7.33h58.24v23.24h-91.42C3228.46,765.11,3230.34,756.31,3234.31,748.35Z"/><rect class="cls-18" x="3338.68" y="747.1" width="27.87" height="27.5"/><path class="cls-18" d="M3392.32,682.39v-17.8a146.81,146.81,0,0,0,17.54-1.67,24.79,24.79,0,0,0,12.73-7.13c2.3-2.3,4-5.44,5.22-9.63a24.61,24.61,0,0,0,1-5.23h21.71V774.74h-26.92V682.39Z"/><path class="cls-18" d="M3515.07,738.93c1,5.66,3.13,10.05,6,13.2s7.31,4.6,12.94,4.6c6.47,0,11.48-2.3,14.82-6.91,3.34-4.4,5-10.26,5-17.17s-1.46-12.57-4.8-17.38c-3.13-4.61-8.14-6.91-14.82-6.91a26.33,26.33,0,0,0-8.35,1,16.71,16.71,0,0,0-9.19,8.17l-23.58-1.05,9.39-73.92H3576V665h-54.48l-4.81,29.11a57.65,57.65,0,0,1,9.4-5.24,44.69,44.69,0,0,1,14-2.09,41,41,0,0,1,28.8,11.31c8.35,7.32,12.32,18.21,12.32,32.46a51.12,51.12,0,0,1-11.9,33.08c-7.93,9.64-19.62,14.45-35.49,14.45-12.73,0-23.17-3.35-31.31-10.26-8.14-6.7-12.53-16.33-13.56-28.9Z"/><path class="cls-18" d="M3687.28,745.84h-15v28.9h-25.68v-28.9h-52.81V723l49.06-81.26h29.43v83.56h15Zm-40.71-20.52v-57.8l-33.39,57.8Z"/><path class="cls-18" d="M3792.06,745.84h-15v28.9h-25.68v-28.9h-52.81V723l49-81.26H3777v83.56h15Zm-40.7-20.52v-57.8l-33.4,57.8Z"/><path class="cls-18" d="M3829,733.7a31,31,0,0,0,2.51,13.19c3.34,6.49,9.18,9.63,17.54,9.63a18.86,18.86,0,0,0,13.35-5.23c4-3.56,5.85-8.59,5.85-15.29q0-13.2-10.65-17.59c-4.17-1.68-10.44-2.52-19.2-2.52V697.05c8.56,0,14.4-.84,18-2.51,5.63-2.52,8.55-7.75,8.55-15.71,0-5-1.45-9.21-4.38-12.36s-7.09-4.81-12.52-4.81c-6.26,0-10.85,1.88-13.78,5.86-2.71,4-4.17,9.21-4.17,15.71h-24.42a71.36,71.36,0,0,1,3.33-18.85,44.79,44.79,0,0,1,10.23-14.45,34.18,34.18,0,0,1,12.32-7.12c4.59-1.67,10.44-2.51,17.33-2.51,12.73,0,23,3.35,30.89,9.84,7.72,6.7,11.69,15.5,11.69,26.59,0,8-2.3,14.67-7.1,19.9-2.92,3.56-5.84,5.86-9.18,6.91,2.5,0,5.84,2.09,10.44,6.28,6.67,6.28,10,14.66,10,25.55,0,11.31-4,21.15-11.9,29.74-7.72,8.58-19.2,13-34.64,13-18.79,0-31.94-6.28-39.25-18.64-4-6.49-6.06-15.07-6.47-25.75Z"/><path class="cls-18" d="M3934.22,738.93c1,5.66,2.92,10.05,5.84,13.2s7.31,4.6,13,4.6c6.47,0,11.48-2.3,14.82-6.91,3.34-4.4,5.22-10.26,5.22-17.17a30.9,30.9,0,0,0-4.8-17.38c-3.35-4.61-8.15-6.91-15-6.91a24.27,24.27,0,0,0-8.15,1,16.46,16.46,0,0,0-9.39,8.17l-23.59-1.05,9.4-73.92H3995V665h-54.49l-4.8,29.11c4.18-2.52,7.31-4.4,9.6-5.24a43.29,43.29,0,0,1,13.78-2.09,41,41,0,0,1,28.81,11.31c8.34,7.32,12.52,18.21,12.52,32.46a51.12,51.12,0,0,1-11.9,33.08c-7.93,9.64-19.83,14.45-35.48,14.45-12.74,0-23.17-3.35-31.31-10.26-8.15-6.7-12.74-16.33-13.57-28.9Z"/></g></g></svg>